<svg width="553" height="128" viewBox="0 0 553 128" fill="none" xmlns="http://www.w3.org/2000/svg">
<path d="M2.17871 125.277V3.26807H11.5908V125.277H2.17871ZM35.4111 125.277V3.26807H45.6946L114.019 108.283V3.26807H123.431V125.277H113.322L44.8231 20.2621V125.277H35.4111Z" fill="#676767"/>
<path d="M186.887 127.543C180.438 127.543 174.192 126.555 168.15 124.579C162.107 122.546 156.82 119.699 152.289 116.039C147.815 112.321 144.677 107.876 142.876 102.705L151.679 99.3934C153.073 103.344 155.6 106.743 159.26 109.59C162.979 112.379 167.249 114.499 172.071 115.952C176.952 117.404 181.89 118.13 186.887 118.13C192.813 118.13 198.361 117.114 203.532 115.08C208.703 113.047 212.886 110.229 216.082 106.627C219.277 102.967 220.875 98.6382 220.875 93.6416C220.875 88.645 219.219 84.549 215.907 81.3536C212.596 78.0999 208.325 75.5437 203.096 73.6845C197.925 71.7672 192.522 70.2857 186.887 69.2399C178.637 67.7875 171.258 65.8702 164.751 63.4881C158.244 61.0479 153.073 57.6199 149.238 53.2045C145.462 48.789 143.574 42.8629 143.574 35.4261C143.574 28.5122 145.578 22.528 149.587 17.4734C153.654 12.4188 158.97 8.49707 165.535 5.7083C172.101 2.91953 179.218 1.52515 186.887 1.52515C193.103 1.52515 199.204 2.51284 205.188 4.48822C211.172 6.40549 216.459 9.22332 221.049 12.9417C225.639 16.66 228.95 21.1918 230.984 26.5369L222.008 29.7614C220.613 25.7526 218.086 22.3537 214.426 19.565C210.765 16.7762 206.495 14.6556 201.615 13.2031C196.793 11.7506 191.883 11.0244 186.887 11.0244C180.903 10.9663 175.325 11.983 170.154 14.0746C165.041 16.1081 160.887 18.9549 157.692 22.6152C154.554 26.2755 152.986 30.5458 152.986 35.4261C152.986 41.0616 154.467 45.4191 157.43 48.4984C160.393 51.5778 164.431 53.9017 169.544 55.4703C174.657 56.981 180.438 58.3463 186.887 59.5663C194.556 60.9027 201.673 62.9652 208.238 65.7539C214.861 68.4847 220.178 72.1449 224.186 76.7347C228.253 81.2664 230.287 86.902 230.287 93.6416C230.287 100.497 228.253 106.482 224.186 111.594C220.178 116.649 214.891 120.571 208.325 123.359C201.76 126.148 194.614 127.543 186.887 127.543ZM251.785 125.277V3.26813H289.435C295.884 3.26813 301.693 4.83681 306.865 7.97417C312.094 11.0534 316.247 15.2656 319.327 20.6108C322.405 25.9559 323.946 31.9401 323.946 38.5635C323.946 45.3031 322.377 51.3452 319.24 56.6904C316.103 62.0357 311.92 66.2477 306.691 69.327C301.462 72.4064 295.71 73.9459 289.435 73.9459H261.197V125.277H251.785ZM261.197 64.5338H288.825C293.531 64.5338 297.829 63.4009 301.723 61.135C305.615 58.8111 308.722 55.6738 311.048 51.7229C313.371 47.7721 314.534 43.2695 314.534 38.2149C314.534 33.2182 313.371 28.7448 311.048 24.7939C308.722 20.7851 305.615 17.6477 301.723 15.3818C297.829 13.0578 293.531 11.8959 288.825 11.8959H261.197V64.5338ZM345.055 125.277V3.26813H354.467V125.277H345.055ZM378.289 125.277V3.26813H418.029C424.478 3.26813 430.317 4.83681 435.546 7.97417C440.775 11.0534 444.898 15.2656 447.921 20.6108C450.998 25.9559 452.54 31.9401 452.54 38.5635C452.54 44.7219 451.233 50.2705 448.618 55.2089C446.061 60.1472 442.575 64.2144 438.16 67.4098C433.743 70.5471 428.805 72.5224 423.345 73.3359L453.324 125.277H442.431L412.623 73.9459H387.701V125.277H378.289ZM387.701 64.5338H417.419C422.125 64.5338 426.422 63.4009 430.317 61.135C434.209 58.8111 437.316 55.6738 439.642 51.7229C441.965 47.7721 443.128 43.2695 443.128 38.2149C443.128 33.2182 441.965 28.7448 439.642 24.7939C437.316 20.7851 434.209 17.6477 430.317 15.3818C426.422 13.0578 422.125 11.8959 417.419 11.8959H387.701V64.5338ZM476.604 125.277V3.26813H550.158V12.6802H486.016V55.2089H539.7V64.621H486.016V115.865H550.158V125.277H476.604Z" fill="#050505"/>
</svg>
