<svg width="24" height="24" viewBox="0 0 24 24" fill="none" xmlns="http://www.w3.org/2000/svg">
<path d="M18.0746 11.1765L17.9445 10.9481C17.948 9.31727 17.1924 8.65299 16.3102 8.14688C16.5773 8.07659 16.8515 8.02036 16.9288 7.68295C17.3892 7.56696 17.4841 7.35257 17.5298 7.12763C17.6493 7.04679 18.05 6.82186 18.0078 6.43524C18.2327 6.2806 18.3593 6.08026 18.2925 5.79909C18.535 5.53549 18.5983 5.31758 18.4963 5.11724C18.7881 4.75523 18.658 4.56896 18.535 4.38268C18.7529 3.98904 18.5596 3.56728 17.9516 3.63757C17.7091 3.28259 17.1819 3.36343 17.101 3.36343C17.0096 3.25096 16.8901 3.15255 16.5211 3.19824C16.2821 2.98384 16.015 3.02251 15.7373 3.12443C15.4105 2.86786 15.1926 3.07523 14.943 3.15255C14.5459 3.02602 14.4545 3.19824 14.2612 3.27205C13.8289 3.18067 13.6953 3.37749 13.4879 3.58485L13.2454 3.58134C12.5917 3.96092 12.2684 4.73415 12.1524 5.1313C12.0364 4.73415 11.713 3.96092 11.0593 3.58134L10.8168 3.58485C10.6094 3.37749 10.4759 3.18067 10.0436 3.27205C9.84676 3.20175 9.75889 3.02602 9.36173 3.15255C9.20006 3.10334 9.04893 2.9979 8.87319 3.00142C8.78181 3.00493 8.67989 3.03656 8.56742 3.12443C8.28976 3.01899 8.02265 2.98384 7.78365 3.19824C7.41461 3.15255 7.2916 3.24744 7.20373 3.36343C7.12289 3.36343 6.59569 3.28259 6.35318 3.63757C5.74514 3.56728 5.55535 3.98904 5.77326 4.38268C5.65025 4.57247 5.52021 4.75875 5.81192 5.11724C5.71 5.31758 5.77326 5.53549 6.01577 5.79909C5.95251 6.08026 6.07904 6.2806 6.30046 6.43524C6.25829 6.82186 6.65896 7.04679 6.77846 7.12763C6.82415 7.35257 6.91904 7.56345 7.37946 7.68295C7.45679 8.01684 7.73093 8.07659 7.99804 8.14688C7.11586 8.65299 6.36021 9.31727 6.36373 10.9481L6.23368 11.1765C5.22146 11.781 4.31116 13.7317 5.7346 15.3133C5.82598 15.8088 5.98414 16.1638 6.12121 16.5575C6.32858 18.1461 7.68524 18.8877 8.04022 18.9756C8.5639 19.3692 9.12273 19.7418 9.87487 20.0018C10.5883 20.7259 11.3616 21 12.1348 21H12.1699C12.9467 21 13.7164 20.7259 14.4264 20.0018C15.182 19.7418 15.7373 19.3692 16.261 18.9756C16.6195 18.8877 17.9727 18.1461 18.18 16.5575C18.3171 16.1638 18.4752 15.8088 18.5666 15.3133C19.9936 13.7282 19.0833 11.781 18.0746 11.1765ZM17.2943 10.8953C17.2416 11.5526 13.8183 8.6073 14.4088 8.50889C16.015 8.24529 17.347 9.18371 17.2943 10.8953ZM15.783 14.1675C14.9219 14.7228 13.6813 14.3643 13.0135 13.3662C12.3457 12.368 12.5003 11.1097 13.3614 10.5544C14.2225 9.99911 15.4632 10.3576 16.131 11.3558C16.7988 12.3539 16.6441 13.6122 15.783 14.1675ZM13.3966 4.03473C13.4247 4.18234 13.4598 4.27373 13.4985 4.30184C13.6883 4.09799 13.8429 3.89063 14.089 3.69381C14.089 3.80979 14.0292 3.9328 14.1768 4.02418C14.3069 3.84845 14.4861 3.69029 14.7216 3.55673C14.6091 3.75356 14.7005 3.8133 14.7638 3.89414C14.943 3.7395 15.1152 3.58485 15.4456 3.46184C15.3542 3.57079 15.2277 3.67975 15.3613 3.80628C15.5475 3.69029 15.7338 3.57431 16.1731 3.49347C16.0747 3.60243 15.8674 3.71489 15.9939 3.82385C16.2259 3.73598 16.486 3.6692 16.7706 3.63406C16.6336 3.74653 16.5211 3.85548 16.6336 3.94335C16.8831 3.86602 17.2275 3.7641 17.5614 3.85197L17.3506 4.06636C17.326 4.09448 17.8461 4.08745 18.1906 4.09448C18.064 4.27021 17.9375 4.4354 17.8637 4.73415C17.8988 4.76929 18.0675 4.7482 18.2292 4.73415C18.064 5.0821 17.7793 5.16645 17.7126 5.31758C17.8145 5.3949 17.9516 5.37381 18.1062 5.32109C17.9867 5.56361 17.7407 5.73231 17.5439 5.92913C17.5931 5.96428 17.6809 5.98537 17.8848 5.96076C17.702 6.15407 17.4841 6.3298 17.224 6.48796C17.2697 6.54068 17.4279 6.54068 17.5755 6.5442C17.34 6.77265 17.0378 6.89215 16.7531 7.04328C16.8937 7.13817 16.9956 7.11709 17.1045 7.11709C16.9042 7.28228 16.5633 7.36663 16.247 7.46855C16.3067 7.56345 16.3665 7.58805 16.4965 7.61265C16.1626 7.79893 15.6811 7.71458 15.5475 7.80948C15.5792 7.90437 15.6741 7.96412 15.783 8.01333C15.2418 8.04496 13.7691 7.99224 13.4844 6.87809C14.0362 6.27005 15.0449 5.56009 16.7777 4.67791C15.428 5.12779 14.212 5.73231 13.1927 6.55826C11.9872 5.99942 12.8131 4.59356 13.3966 4.03473ZM12.1875 8.06253C13.0381 8.05199 14.089 8.68814 14.0854 9.28212C14.0819 9.80932 13.3474 10.2346 12.1945 10.2276C11.0663 10.2135 10.3072 9.69333 10.3107 9.18019C10.3107 8.76195 11.2315 8.03793 12.1875 8.06253ZM7.86449 7.61265C7.99453 7.58805 8.05428 7.55993 8.11403 7.46855C7.79771 7.37014 7.45679 7.28228 7.25645 7.11709C7.3654 7.11709 7.46733 7.14169 7.60792 7.04328C7.32323 6.89215 7.02097 6.77265 6.78548 6.5442C6.9331 6.54068 7.09126 6.5442 7.13695 6.48796C6.87687 6.3298 6.65896 6.15407 6.47619 5.96076C6.68004 5.98537 6.76791 5.96428 6.81712 5.92913C6.6203 5.73231 6.37075 5.56361 6.25477 5.32109C6.4059 5.37381 6.54649 5.39139 6.64841 5.31758C6.58163 5.16996 6.29695 5.0821 6.13176 4.73415C6.29343 4.7482 6.46214 4.76929 6.49728 4.73415C6.42347 4.4354 6.29343 4.2667 6.17042 4.09448C6.51486 4.09096 7.03503 4.09448 7.01042 4.06636L6.79954 3.85197C7.13344 3.7641 7.47787 3.86602 7.72741 3.94335C7.83988 3.85548 7.7239 3.74653 7.59034 3.63406C7.87503 3.67272 8.1316 3.73598 8.36708 3.82385C8.4901 3.71489 8.28625 3.60243 8.18783 3.49347C8.62717 3.57431 8.81344 3.69029 8.99972 3.80628C9.13328 3.67975 9.00675 3.57079 8.91537 3.46184C9.24575 3.58134 9.41797 3.7395 9.59721 3.89414C9.65696 3.8133 9.75186 3.75356 9.63939 3.55673C9.87487 3.69029 10.0541 3.84845 10.1842 4.02418C10.3283 3.9328 10.272 3.80628 10.272 3.69381C10.5181 3.89063 10.6727 4.09799 10.8625 4.30184C10.9012 4.27373 10.9328 4.18234 10.9644 4.03473C11.5479 4.59356 12.3738 5.99942 11.1753 6.55826C10.156 5.73231 8.93997 5.12779 7.59034 4.67791C9.32307 5.55658 10.3318 6.27005 10.8836 6.87809C10.6024 7.99575 9.12625 8.04496 8.58499 8.01333C8.69395 7.96412 8.78884 7.90086 8.82047 7.80948C8.67989 7.71106 8.20189 7.79542 7.86449 7.61265ZM9.9768 8.45969C10.5673 8.5581 7.14398 11.4999 7.09126 10.8461C7.03854 9.1345 8.37411 8.19257 9.9768 8.45969ZM6.34264 15.0251C5.50966 14.3643 5.24255 12.4348 6.78548 11.5702C7.71687 11.3241 7.1018 15.359 6.34264 15.0251ZM9.54098 18.4765C9.07353 18.7541 7.93126 18.6417 7.12289 17.4959C6.57812 16.5329 6.64841 15.5558 7.03151 15.2676C7.6044 14.9232 8.4901 15.3871 9.17194 16.1673C9.76592 16.8703 10.0365 18.1109 9.54098 18.4765ZM8.61311 14.2694C7.75202 13.7141 7.59737 12.4559 8.26516 11.4577C8.93294 10.4595 10.1736 10.101 11.0347 10.6564C11.8958 11.2117 12.0504 12.4699 11.3827 13.4681C10.7114 14.4662 9.47069 14.8247 8.61311 14.2694ZM12.2051 20.4377C11.1718 20.4798 10.1596 19.6047 10.1736 19.3024C10.1596 18.8561 11.4319 18.5081 12.2578 18.5292C13.0908 18.494 14.212 18.7928 14.2155 19.1935C14.2331 19.5801 13.2033 20.4552 12.2051 20.4377ZM14.2752 16.0478C14.2823 17.0917 13.3544 17.9387 12.2086 17.9458C11.0628 17.9528 10.1279 17.1093 10.1209 16.0689V16.0478C10.1139 15.004 11.0417 14.157 12.1875 14.1499C13.3333 14.1429 14.2682 14.9864 14.2752 16.0268V16.0478ZM17.1643 17.5486C16.2751 18.7647 15.0695 18.8104 14.6232 18.473C14.1557 18.0371 14.5107 16.684 15.1539 15.9424C15.8885 15.1235 16.6757 14.5893 17.224 15.0075C17.5931 15.3695 17.811 16.7332 17.1643 17.5486ZM17.9691 14.9759C17.2135 15.3062 16.5984 11.2749 17.5263 11.521C19.0692 12.3891 18.8021 14.3186 17.9691 14.9759Z" fill="black" fill-opacity="0.9"/>
</svg>
