<svg width="24" height="24" viewBox="0 0 24 24" fill="none" xmlns="http://www.w3.org/2000/svg">
<path d="M11.5034 7.85281C11.5346 7.86844 11.5596 7.90593 11.5971 7.90593C11.6315 7.90593 11.6846 7.89344 11.6878 7.85906C11.694 7.81532 11.6284 7.78719 11.5878 7.76845C11.5346 7.74657 11.4659 7.7372 11.4159 7.76532C11.4034 7.77157 11.3909 7.78719 11.3972 7.79969C11.4065 7.84031 11.469 7.83407 11.5034 7.85281ZM10.8191 7.90593C10.8566 7.90593 10.8816 7.86844 10.9128 7.85281C10.9472 7.83407 11.0097 7.84031 11.0222 7.80282C11.0284 7.79032 11.0159 7.77469 11.0034 7.76845C10.9534 7.74032 10.8847 7.7497 10.8316 7.77157C10.791 7.79032 10.7253 7.81844 10.7316 7.86219C10.7347 7.89344 10.7878 7.90906 10.8191 7.90593ZM17.7279 16.6177C17.6154 16.4927 17.5623 16.2552 17.5029 16.0021C17.4467 15.749 17.381 15.4772 17.1748 15.3022C17.1342 15.2678 17.0936 15.2366 17.0498 15.2116C17.0092 15.1866 16.9654 15.1647 16.9217 15.1491C17.2092 14.296 17.0967 13.4461 16.8061 12.6774C16.4499 11.7369 15.828 10.9151 15.3531 10.3526C14.8187 9.68079 14.3 9.04334 14.3094 8.10279C14.325 6.66854 14.4688 4.00313 11.9409 4.00001C8.74113 3.99376 9.54106 7.23099 9.50669 8.22466C9.45357 8.95585 9.30671 9.5308 8.80363 10.2464C8.21305 10.9494 7.38187 12.0837 6.98815 13.268C6.80067 13.8273 6.71317 14.396 6.79442 14.9335C6.59131 15.1147 6.4382 15.3928 6.27571 15.5647C6.14447 15.699 5.95386 15.749 5.7445 15.824C5.53515 15.899 5.30704 16.0115 5.16643 16.2771C5.10081 16.399 5.07894 16.5302 5.07894 16.6646C5.07894 16.7864 5.09768 16.9114 5.11643 17.0333C5.15393 17.2864 5.19455 17.5239 5.14143 17.6832C4.97894 18.1332 4.95707 18.4457 5.07269 18.6738C5.19143 18.9019 5.42891 19.0019 5.70076 19.0581C6.24134 19.1706 6.97565 19.1425 7.55373 19.4487C8.17243 19.7737 8.8005 19.8893 9.30046 19.7737C9.66293 19.6925 9.95978 19.4737 10.1098 19.1425C10.5004 19.1394 10.9316 18.9738 11.619 18.9363C12.0846 18.8988 12.6689 19.1019 13.3407 19.0644C13.3595 19.1362 13.3845 19.2081 13.4189 19.2737V19.2769C13.6782 19.7987 14.1626 20.0362 14.6781 19.9956C15.1968 19.9549 15.7437 19.6518 16.1874 19.1237C16.6124 18.6113 17.3123 18.3988 17.7779 18.1176C18.0091 17.977 18.1966 17.802 18.2122 17.5458C18.2247 17.2895 18.0747 17.0052 17.7279 16.6177ZM11.594 6.72791C11.9002 6.03421 12.6627 6.04671 12.9689 6.71541C13.172 7.15912 13.0814 7.68095 12.8345 7.9778C12.7845 7.95281 12.6502 7.89656 12.4408 7.82469C12.4752 7.78719 12.5377 7.74032 12.5627 7.68095C12.7127 7.31223 12.5564 6.83727 12.2783 6.8279C12.0502 6.81227 11.844 7.16537 11.9096 7.54659C11.7815 7.48409 11.6159 7.43722 11.5034 7.4091C11.4722 7.19349 11.494 6.95289 11.594 6.72791ZM10.3222 6.36856C10.6378 6.36856 10.9722 6.81228 10.9191 7.41535C10.8097 7.4466 10.6972 7.49347 10.6004 7.55909C10.6378 7.28099 10.4972 6.93102 10.3004 6.94664C10.0379 6.96851 9.99415 7.60908 10.2441 7.82469C10.2754 7.84969 10.3035 7.81844 10.0598 7.99655C9.57231 7.54034 9.73167 6.36856 10.3222 6.36856ZM9.89728 8.26528C10.091 8.12154 10.3222 7.95281 10.3379 7.93718C10.4847 7.79969 10.7597 7.49347 11.2097 7.49347C11.4315 7.49347 11.6971 7.56534 12.019 7.77157C12.2158 7.89968 12.3721 7.90906 12.7252 8.06217C12.9877 8.17154 13.1533 8.36527 13.0533 8.63087C12.972 8.85273 12.7096 9.08084 12.344 9.19645C11.9971 9.30894 11.7253 9.69641 11.1503 9.66204C11.0284 9.65579 10.9316 9.63079 10.8503 9.59642C10.6004 9.48705 10.4691 9.27145 10.2254 9.12771C9.95665 8.97772 9.81292 8.80273 9.76605 8.64962C9.7223 8.49651 9.76605 8.3684 9.89728 8.26528ZM10.0004 18.7019C9.91603 19.7987 8.62864 19.7768 7.64747 19.2644C6.71317 18.7707 5.5039 19.0613 5.25705 18.58C5.18205 18.4332 5.18205 18.1832 5.33829 17.7551V17.7489C5.41328 17.5114 5.35704 17.2489 5.31954 17.0021C5.28204 16.7583 5.2633 16.5333 5.34766 16.3771C5.45703 16.1677 5.61327 16.0928 5.81012 16.024C6.13197 15.9084 6.17884 15.9178 6.42257 15.7147C6.59443 15.5365 6.71942 15.3116 6.86941 15.1522C7.02877 14.9803 7.18189 14.8991 7.42249 14.9366C7.67559 14.9741 7.89433 15.1491 8.10681 15.4366L8.71926 16.549C9.01611 17.1708 10.066 18.0613 10.0004 18.7019ZM9.95665 17.8926C9.82854 17.6864 9.65668 17.4676 9.50669 17.2802C9.72855 17.2802 9.95041 17.2114 10.0285 17.0021C10.1004 16.8083 10.0285 16.5365 9.79729 16.224C9.37545 15.6553 8.60052 15.2085 8.60052 15.2085C8.17868 14.946 7.9412 14.6241 7.83183 14.2742C7.72247 13.9242 7.73809 13.5461 7.82246 13.1742C7.98494 12.4587 8.40366 11.7619 8.67239 11.3244C8.74426 11.2713 8.69738 11.4244 8.40053 11.9743C8.13493 12.4774 7.6381 13.6398 8.31929 14.5491C8.33804 13.9023 8.49115 13.243 8.7505 12.6274C9.12547 11.7712 9.91603 10.287 9.97853 9.10583C10.0129 9.13083 10.1223 9.20583 10.1723 9.23395C10.316 9.31832 10.4254 9.44331 10.566 9.5558C10.9534 9.86827 11.4565 9.84327 11.8909 9.59329C12.0846 9.48393 12.2408 9.35894 12.3877 9.31207C12.6971 9.2152 12.9439 9.04334 13.0845 8.84336C13.3251 9.79328 13.8876 11.165 14.2469 11.8337C14.4375 12.19 14.8188 12.943 14.9844 13.8523C15.0875 13.8492 15.2031 13.8648 15.325 13.8961C15.7562 12.7805 14.9594 11.5775 14.5969 11.2432C14.45 11.0994 14.4438 11.0369 14.5157 11.04C14.9094 11.39 15.4281 12.0931 15.6156 12.8836C15.7031 13.2461 15.7187 13.6242 15.6281 13.9992C16.1405 14.2117 16.7498 14.5585 16.5874 15.0866C16.5186 15.0835 16.4874 15.0866 16.4561 15.0866C16.5561 14.771 16.3342 14.5366 15.7437 14.271C15.1312 14.0023 14.6188 14.0023 14.5469 14.6616C14.1688 14.7929 13.9751 15.121 13.8782 15.5147C13.7907 15.8646 13.7657 16.2865 13.7407 16.7614C13.7251 17.0021 13.6282 17.3239 13.5282 17.6676C12.5252 18.3832 11.1316 18.6957 9.95665 17.8926ZM17.9997 17.5333C17.9716 18.0582 16.7123 18.1551 16.0249 18.9863C15.6124 19.4768 15.1062 19.7487 14.6625 19.7831C14.2188 19.8174 13.8345 19.6331 13.6095 19.18C13.4626 18.8331 13.5345 18.4582 13.6438 18.0457C13.7595 17.602 13.9313 17.1458 13.9532 16.7771C13.9782 16.3021 14.0063 15.8865 14.0844 15.5678C14.1657 15.2459 14.2907 15.0303 14.5125 14.9085C14.5219 14.9022 14.5344 14.8991 14.5438 14.8929C14.5688 15.3053 14.7719 15.724 15.1312 15.8147C15.5249 15.9178 16.0905 15.5803 16.3311 15.3053C16.6124 15.2959 16.8217 15.2772 17.0373 15.4647C17.3467 15.7303 17.2592 16.4115 17.5716 16.7646C17.9029 17.127 18.0091 17.3739 17.9997 17.5333ZM10.0191 8.6465C10.0816 8.70587 10.166 8.78711 10.2691 8.86835C10.4754 9.03084 10.7628 9.19958 11.1222 9.19958C11.4847 9.19958 11.8252 9.01522 12.1158 8.8621C12.269 8.78086 12.4564 8.64337 12.5783 8.53713C12.7002 8.43089 12.7627 8.34027 12.6752 8.3309C12.5877 8.32152 12.5939 8.41214 12.4877 8.49026C12.3502 8.59025 12.1846 8.72149 12.0534 8.79648C11.8221 8.92772 11.444 9.11521 11.1191 9.11521C10.7941 9.11521 10.5347 8.96522 10.341 8.81211C10.2441 8.73399 10.1629 8.65587 10.1004 8.5965C10.0535 8.55276 10.041 8.45276 9.96603 8.44339C9.92228 8.44026 9.90978 8.559 10.0191 8.6465Z" fill="black" fill-opacity="0.9"/>
</svg>
