<svg width="24" height="24" viewBox="0 0 24 24" fill="none" xmlns="http://www.w3.org/2000/svg">
<path d="M1.87012 20.5L12.0046 3L22.1391 20.5H1.87012ZM4.45462 19H19.5546L12.0046 6L4.45462 19ZM12.0046 17.8077C12.2335 17.8077 12.4253 17.7303 12.5801 17.5755C12.735 17.4207 12.8124 17.2288 12.8124 17C12.8124 16.7712 12.735 16.5793 12.5801 16.4245C12.4253 16.2697 12.2335 16.1923 12.0046 16.1923C11.7758 16.1923 11.584 16.2697 11.4291 16.4245C11.2743 16.5793 11.1969 16.7712 11.1969 17C11.1969 17.2288 11.2743 17.4207 11.4291 17.5755C11.584 17.7303 11.7758 17.8077 12.0046 17.8077ZM11.2546 15.1923H12.7546V10.1923H11.2546V15.1923Z" fill="black" fill-opacity="0.9"/>
</svg>
