<svg width="24" height="24" viewBox="0 0 24 24" fill="none" xmlns="http://www.w3.org/2000/svg">
<path fill-rule="evenodd" clip-rule="evenodd" d="M5.25 4H18.75C19.4404 4 20 4.55965 20 5.25V18.75C20 19.4404 19.4404 20 18.75 20H5.25C4.55965 20 4 19.4404 4 18.75V5.25C4 4.55965 4.55965 4 5.25 4ZM13.4074 18.2559V16.5297C13.7205 16.7923 14.0606 16.9891 14.4278 17.1204C14.7949 17.2517 15.1656 17.3173 15.5399 17.3173C15.7595 17.3173 15.9512 17.2975 16.1149 17.2579C16.2787 17.2184 16.4155 17.1636 16.5253 17.0934C16.635 17.0233 16.7169 16.9406 16.7709 16.8453C16.8249 16.75 16.8519 16.6466 16.8519 16.5351C16.8519 16.3841 16.8087 16.2492 16.7223 16.1305C16.6359 16.0118 16.5181 15.9021 16.3687 15.8014C16.2193 15.7008 16.0421 15.6037 15.8369 15.5102C15.6318 15.4166 15.4104 15.3214 15.1728 15.2242C14.5681 14.9725 14.1174 14.665 13.8204 14.3018C13.5234 13.9386 13.375 13.4998 13.375 12.9856C13.375 12.5827 13.456 12.2366 13.6179 11.9471C13.7799 11.6576 14.0004 11.4194 14.2793 11.2323C14.5582 11.0453 14.8813 10.9077 15.2484 10.8197C15.6156 10.7316 16.0042 10.6875 16.4146 10.6875C16.8177 10.6875 17.1749 10.7118 17.4862 10.7603C17.7976 10.8089 18.0846 10.8835 18.3474 10.9842V12.5971C18.2178 12.5072 18.0765 12.4281 17.9236 12.3598C17.7706 12.2914 17.6131 12.2348 17.4512 12.1899C17.2892 12.1449 17.1281 12.1116 16.9679 12.0901C16.8078 12.0685 16.6558 12.0577 16.5118 12.0577C16.3138 12.0577 16.1338 12.0766 15.9719 12.1143C15.8099 12.1521 15.6731 12.2051 15.5616 12.2735C15.45 12.3418 15.3636 12.4236 15.3024 12.5189C15.2412 12.6142 15.2106 12.7212 15.2106 12.8399C15.2106 12.9694 15.2448 13.0853 15.3132 13.1878C15.3816 13.2903 15.4787 13.3874 15.6047 13.4791C15.7307 13.5709 15.8837 13.6607 16.0636 13.7489C16.2436 13.837 16.4469 13.9278 16.6737 14.0213C16.9833 14.1508 17.2613 14.2883 17.5079 14.4339C17.7544 14.5796 17.9659 14.7441 18.1422 14.9276C18.3186 15.1109 18.4536 15.3204 18.5471 15.556C18.6407 15.7916 18.6875 16.0658 18.6875 16.3787C18.6875 16.8103 18.6056 17.1726 18.4419 17.4656C18.2781 17.7587 18.0558 17.9961 17.7751 18.1777C17.4944 18.3593 17.1677 18.4897 16.7952 18.5688C16.4227 18.6479 16.0294 18.6875 15.6156 18.6875C15.1908 18.6875 14.7868 18.6516 14.4035 18.5796C14.0202 18.5077 13.6881 18.3998 13.4074 18.2559ZM12.75 12.2339H10.5301V18.5625H8.77154V12.2339H6.5625V10.8125H12.75V12.2339Z" fill="black" fill-opacity="0.9"/>
</svg>
