<svg width="24" height="24" viewBox="0 0 24 24" fill="none" xmlns="http://www.w3.org/2000/svg">
<path d="M7.30775 22.5C6.80258 22.5 6.375 22.325 6.025 21.975C5.675 21.625 5.5 21.1974 5.5 20.6923V3.30775C5.5 2.80258 5.675 2.375 6.025 2.025C6.375 1.675 6.80258 1.5 7.30775 1.5H16.6923C17.1974 1.5 17.625 1.675 17.975 2.025C18.325 2.375 18.5 2.80258 18.5 3.30775V20.6923C18.5 21.1974 18.325 21.625 17.975 21.975C17.625 22.325 17.1974 22.5 16.6923 22.5H7.30775ZM7 17.7693V20.6923C7 20.7693 7.03208 20.8398 7.09625 20.9038C7.16025 20.9679 7.23075 21 7.30775 21H16.6923C16.7692 21 16.8398 20.9679 16.9038 20.9038C16.9679 20.8398 17 20.7693 17 20.6923V17.7693H7ZM12 20.2693C12.2448 20.2693 12.4535 20.183 12.626 20.0105C12.7983 19.8382 12.8845 19.6295 12.8845 19.3845C12.8845 19.1397 12.7983 18.9311 12.626 18.7587C12.4535 18.5863 12.2448 18.5 12 18.5C11.7552 18.5 11.5465 18.5863 11.374 18.7587C11.2017 18.9311 11.1155 19.1397 11.1155 19.3845C11.1155 19.6295 11.2017 19.8382 11.374 20.0105C11.5465 20.183 11.7552 20.2693 12 20.2693ZM7 16.2693H17V5.75H7V16.2693ZM7 4.25H17V3.30775C17 3.23075 16.9679 3.16025 16.9038 3.09625C16.8398 3.03208 16.7692 3 16.6923 3H7.30775C7.23075 3 7.16025 3.03208 7.09625 3.09625C7.03208 3.16025 7 3.23075 7 3.30775V4.25Z" fill="black" fill-opacity="0.9"/>
</svg>
