<svg width="24" height="24" viewBox="0 0 24 24" fill="none" xmlns="http://www.w3.org/2000/svg">
<path d="M11.8812 7.83818C9.64522 7.83818 7.8417 9.6417 7.8417 11.8776C7.8417 14.1136 9.64522 15.9171 11.8812 15.9171C14.1171 15.9171 15.9206 14.1136 15.9206 11.8776C15.9206 9.6417 14.1171 7.83818 11.8812 7.83818ZM11.8812 14.5038C10.4362 14.5038 9.25498 13.3261 9.25498 11.8776C9.25498 10.4292 10.4327 9.25146 11.8812 9.25146C13.3296 9.25146 14.5073 10.4292 14.5073 11.8776C14.5073 13.3261 13.3261 14.5038 11.8812 14.5038ZM17.028 7.67295C17.028 8.19678 16.6062 8.61514 16.0858 8.61514C15.562 8.61514 15.1437 8.19326 15.1437 7.67295C15.1437 7.15264 15.5655 6.73076 16.0858 6.73076C16.6062 6.73076 17.028 7.15264 17.028 7.67295ZM19.7034 8.6292C19.6437 7.36709 19.3554 6.24912 18.4308 5.32803C17.5097 4.40693 16.3917 4.11865 15.1296 4.05537C13.8288 3.98154 9.92998 3.98154 8.6292 4.05537C7.37061 4.11514 6.25264 4.40342 5.32803 5.32451C4.40342 6.24561 4.11865 7.36357 4.05537 8.62568C3.98154 9.92646 3.98154 13.8253 4.05537 15.1261C4.11514 16.3882 4.40342 17.5062 5.32803 18.4272C6.25264 19.3483 7.36709 19.6366 8.6292 19.6999C9.92998 19.7737 13.8288 19.7737 15.1296 19.6999C16.3917 19.6401 17.5097 19.3519 18.4308 18.4272C19.3519 17.5062 19.6401 16.3882 19.7034 15.1261C19.7772 13.8253 19.7772 9.92998 19.7034 8.6292ZM18.0229 16.5218C17.7487 17.2108 17.2179 17.7417 16.5253 18.0194C15.4882 18.4308 13.0272 18.3358 11.8812 18.3358C10.7351 18.3358 8.27061 18.4272 7.23701 18.0194C6.54795 17.7452 6.01709 17.2144 5.73936 16.5218C5.32803 15.4847 5.42295 13.0237 5.42295 11.8776C5.42295 10.7315 5.33154 8.26709 5.73936 7.2335C6.01357 6.54443 6.54443 6.01357 7.23701 5.73584C8.27412 5.32451 10.7351 5.41943 11.8812 5.41943C13.0272 5.41943 15.4917 5.32803 16.5253 5.73584C17.2144 6.01006 17.7452 6.54092 18.0229 7.2335C18.4343 8.27061 18.3394 10.7315 18.3394 11.8776C18.3394 13.0237 18.4343 15.4882 18.0229 16.5218Z" fill="black" fill-opacity="0.9"/>
</svg>
