<svg width="24" height="24" viewBox="0 0 24 24" fill="none" xmlns="http://www.w3.org/2000/svg">
<path d="M9.49923 14.4992V9.49923H14.4992V14.4992H9.49923ZM10.9992 12.9992H12.9992V10.9992H10.9992V12.9992ZM9.24923 20.2685V18.4992H7.30698C6.80181 18.4992 6.37423 18.3242 6.02423 17.9742C5.67423 17.6242 5.49923 17.1966 5.49923 16.6915V14.7492H3.72998V13.2492H5.49923V10.7492H3.72998V9.24923H5.49923V7.30698C5.49923 6.80181 5.67423 6.37423 6.02423 6.02423C6.37423 5.67423 6.80181 5.49923 7.30698 5.49923H9.24923V3.72998H10.7492V5.49923H13.2492V3.72998H14.7492V5.49923H16.6915C17.1966 5.49923 17.6242 5.67423 17.9742 6.02423C18.3242 6.37423 18.4992 6.80181 18.4992 7.30698V9.24923H20.2685V10.7492H18.4992V13.2492H20.2685V14.7492H18.4992V16.6915C18.4992 17.1966 18.3242 17.6242 17.9742 17.9742C17.6242 18.3242 17.1966 18.4992 16.6915 18.4992H14.7492V20.2685H13.2492V18.4992H10.7492V20.2685H9.24923ZM16.6915 16.9992C16.7685 16.9992 16.839 16.9671 16.903 16.903C16.9671 16.839 16.9992 16.7685 16.9992 16.6915V7.30698C16.9992 7.22998 16.9671 7.15948 16.903 7.09548C16.839 7.03131 16.7685 6.99923 16.6915 6.99923H7.30698C7.22998 6.99923 7.15948 7.03131 7.09548 7.09548C7.03131 7.15948 6.99923 7.22998 6.99923 7.30698V16.6915C6.99923 16.7685 7.03131 16.839 7.09548 16.903C7.15948 16.9671 7.22998 16.9992 7.30698 16.9992H16.6915Z" fill="black" fill-opacity="0.9"/>
</svg>
