<svg width="24" height="24" viewBox="0 0 24 24" fill="none" xmlns="http://www.w3.org/2000/svg">
<path d="M12.0896 20C11.8769 20 11.661 19.9429 11.4737 19.8349L9.51473 18.6761C9.22264 18.511 9.36551 18.4538 9.46076 18.4221C9.85127 18.2855 9.93065 18.257 10.3466 18.0189C10.391 17.9935 10.4482 18.003 10.4926 18.0316L11.9975 18.9237C12.0515 18.9555 12.1277 18.9555 12.1785 18.9237L18.0426 15.5392C18.0965 15.5075 18.1315 15.444 18.1315 15.3805V8.61157C18.1315 8.5449 18.0965 8.48457 18.0394 8.44965L12.1785 5.06836C12.1245 5.03661 12.0515 5.03661 11.9975 5.06836L6.1398 8.45282C6.08265 8.48457 6.04772 8.54807 6.04772 8.61474V15.3805C6.04772 15.444 6.08265 15.5075 6.1398 15.5361L7.7463 16.4631C8.61941 16.8981 9.15279 16.3869 9.15279 15.8694V9.1894C9.15279 9.09416 9.22899 9.02113 9.32424 9.02113H10.0672C10.1592 9.02113 10.2386 9.09416 10.2386 9.1894V15.8726C10.2386 17.0346 9.60363 17.7014 8.50193 17.7014C8.16222 17.7014 7.89553 17.7014 7.15259 17.3331L5.61593 16.4473C5.23494 16.2282 5 15.8186 5 15.3773V8.61157C5 8.17343 5.23494 7.76069 5.61593 7.54162L11.4737 4.15716C11.8451 3.94761 12.3372 3.94761 12.7055 4.15716L18.5696 7.5448C18.9506 7.76387 19.1855 8.17343 19.1855 8.61474V15.3805C19.1855 15.8186 18.9506 16.2282 18.5696 16.4504L12.7055 19.8349C12.5182 19.9429 12.3055 20 12.0896 20ZM16.8234 13.3295C16.8234 12.0627 15.9662 11.7262 14.166 11.488C12.3436 11.2468 12.1594 11.1229 12.1594 10.6975C12.1594 10.3451 12.315 9.87519 13.6644 9.87519C14.8676 9.87519 15.3121 10.1355 15.4963 10.9483C15.5122 11.0245 15.582 11.0817 15.6614 11.0817H16.4234C16.471 11.0817 16.5154 11.0626 16.5472 11.0277C16.5789 10.9928 16.5948 10.9451 16.5916 10.8975C16.4742 9.49737 15.5439 8.84651 13.6644 8.84651C11.9912 8.84651 10.9942 9.55134 10.9942 10.7356C10.9942 12.0183 11.988 12.3738 13.5913 12.5326C15.5122 12.7199 15.6614 13.0025 15.6614 13.3803C15.6614 14.0343 15.1343 14.3137 13.8993 14.3137C12.3468 14.3137 12.007 13.9232 11.8927 13.1517C11.88 13.0692 11.8102 13.0088 11.7245 13.0088H10.9657C10.8704 13.0088 10.7974 13.085 10.7974 13.1771C10.7974 14.1645 11.334 15.3424 13.9025 15.3424C15.7566 15.3392 16.8234 14.6058 16.8234 13.3295Z" fill="black" fill-opacity="0.9"/>
</svg>
