<svg width="24" height="24" viewBox="0 0 24 24" fill="none" xmlns="http://www.w3.org/2000/svg">
<path d="M12.0288 20.476C9.6678 20.476 7.66089 19.6496 6.00805 17.9967C4.35539 16.3441 3.52905 14.3372 3.52905 11.976C3.52905 9.71315 4.29664 7.77249 5.8318 6.15399C7.36697 4.53532 9.24672 3.65865 11.4711 3.52399C11.6147 3.52399 11.7558 3.52915 11.8943 3.53949C12.0326 3.54982 12.1685 3.56524 12.3018 3.58574C11.7916 4.06257 11.3853 4.63882 11.0828 5.31449C10.7801 5.99015 10.6288 6.71065 10.6288 7.47599C10.6288 9.11482 11.2025 10.5079 12.3498 11.6552C13.497 12.8024 14.89 13.376 16.5288 13.376C17.3045 13.376 18.0276 13.2247 18.6981 12.9222C19.3686 12.6196 19.9391 12.2132 20.4096 11.703C20.4301 11.8363 20.4455 11.9722 20.4558 12.1107C20.466 12.2491 20.4711 12.3901 20.4711 12.5337C20.3429 14.7581 19.4696 16.6378 17.8511 18.173C16.2324 19.7083 14.2916 20.476 12.0288 20.476ZM12.0288 18.976C13.4955 18.976 14.8121 18.5718 15.9788 17.7635C17.1455 16.9552 17.9955 15.901 18.5288 14.601C18.1955 14.6843 17.8621 14.751 17.5288 14.801C17.1955 14.851 16.8621 14.876 16.5288 14.876C14.4788 14.876 12.733 14.1552 11.2913 12.7135C9.84964 11.2718 9.1288 9.52599 9.1288 7.47599C9.1288 7.14265 9.1538 6.80932 9.2038 6.47599C9.2538 6.14265 9.32047 5.80932 9.4038 5.47599C8.1038 6.00932 7.04964 6.85932 6.2413 8.02599C5.43297 9.19265 5.0288 10.5093 5.0288 11.976C5.0288 13.9093 5.71214 15.5593 7.0788 16.926C8.44547 18.2927 10.0955 18.976 12.0288 18.976Z" fill="black" fill-opacity="0.9"/>
</svg>
