<svg width="24" height="24" viewBox="0 0 24 24" fill="none" xmlns="http://www.w3.org/2000/svg">
<path d="M4.327 19.676V18.176H7.25L6.523 17.48C5.70133 16.7197 5.11708 15.8687 4.77025 14.927C4.42342 13.9853 4.25 13.0338 4.25 12.0723C4.25 10.3441 4.75608 8.79443 5.76825 7.42327C6.78042 6.0521 8.10767 5.11077 9.75 4.59927V6.18002C8.5435 6.65168 7.57525 7.42443 6.84525 8.49827C6.11508 9.57193 5.75 10.7633 5.75 12.0723C5.75 12.8543 5.89808 13.6139 6.19425 14.351C6.49042 15.0882 6.95133 15.7696 7.577 16.3953L8.2115 17.03V14.2915H9.7115V19.676H4.327ZM14.25 19.4068V17.826C15.4565 17.3544 16.4248 16.5816 17.1547 15.5078C17.8849 14.4341 18.25 13.2428 18.25 11.9338C18.25 11.1518 18.1019 10.3922 17.8057 9.65502C17.5096 8.91785 17.0487 8.23643 16.423 7.61077L15.7885 6.97602V9.71452H14.2885V4.33002H19.673V5.83002H16.75L17.477 6.52602C18.268 7.31718 18.8446 8.17585 19.2068 9.10202C19.5689 10.0284 19.75 10.9723 19.75 11.9338C19.75 13.6619 19.2439 15.2116 18.2318 16.5828C17.2196 17.9539 15.8923 18.8953 14.25 19.4068Z" fill="black" fill-opacity="0.9"/>
</svg>
