<svg width="24" height="24" viewBox="0 0 24 24" fill="none" xmlns="http://www.w3.org/2000/svg">
<path d="M10.8077 16.077H7.0385C5.78283 16.077 4.7125 15.6345 3.8275 14.7495C2.9425 13.8647 2.5 12.7945 2.5 11.539C2.5 10.2835 2.9425 9.21317 3.8275 8.328C4.7125 7.44267 5.78283 7 7.0385 7H10.8077V8.5H7.0385C6.19867 8.5 5.48233 8.7965 4.8895 9.3895C4.2965 9.9825 4 10.6988 4 11.5385C4 12.3782 4.2965 13.0945 4.8895 13.6875C5.48233 14.2805 6.19867 14.577 7.0385 14.577H10.8077V16.077ZM8.25 12.2885V10.7885H15.75V12.2885H8.25ZM13.1923 16.077V14.577H16.9615C17.8013 14.577 18.5177 14.2805 19.1105 13.6875C19.7035 13.0945 20 12.3782 20 11.5385C20 10.6988 19.7035 9.9825 19.1105 9.3895C18.5177 8.7965 17.8013 8.5 16.9615 8.5H13.1923V7H16.9615C18.2172 7 19.2875 7.4425 20.1725 8.3275C21.0575 9.21233 21.5 10.2825 21.5 11.538C21.5 12.7935 21.0575 13.8638 20.1725 14.749C19.2875 15.6343 18.2172 16.077 16.9615 16.077H13.1923Z" fill="black" fill-opacity="0.9"/>
</svg>
