<svg width="24" height="24" viewBox="0 0 24 24" fill="none" xmlns="http://www.w3.org/2000/svg">
<path fill-rule="evenodd" clip-rule="evenodd" d="M10.5025 7.20529C10.427 7.18501 10.3482 7.17982 10.2706 7.19001C10.193 7.20019 10.1182 7.22556 10.0505 7.26466C9.98271 7.30376 9.92331 7.35581 9.87567 7.41786C9.82803 7.47991 9.79306 7.55073 9.7728 7.6263C9.75253 7.70186 9.74734 7.78067 9.75753 7.85823C9.76771 7.9358 9.79308 8.01058 9.83217 8.07834C9.87127 8.1461 9.92333 8.2055 9.98538 8.25315C10.0474 8.30078 10.1182 8.33574 10.1938 8.35601L15.9434 9.8956C16.02 9.91934 16.1006 9.92739 16.1803 9.91924C16.2601 9.91109 16.3374 9.88692 16.4074 9.84818C16.4776 9.80944 16.5392 9.75694 16.5885 9.69381C16.638 9.63067 16.6741 9.55823 16.6948 9.48079C16.7155 9.40337 16.7203 9.32256 16.7091 9.24321C16.6977 9.16387 16.6706 9.08762 16.6291 9.01905C16.5876 8.95048 16.5326 8.89097 16.4676 8.84413C16.4026 8.7973 16.3288 8.76408 16.2506 8.74646L10.5017 7.20688L10.5025 7.20529ZM9.8351 9.69721C9.68447 9.66148 9.52586 9.68586 9.3929 9.76515C9.25995 9.84444 9.16312 9.97242 9.12296 10.1219C9.08279 10.2714 9.10246 10.4307 9.17777 10.5659C9.25309 10.7012 9.37814 10.8018 9.5264 10.8463L15.276 12.3875C15.4286 12.4283 15.5912 12.4069 15.728 12.3279C15.8648 12.2488 15.9645 12.1187 16.0054 11.9661C16.0462 11.8135 16.0248 11.651 15.9456 11.5142C15.8666 11.3774 15.7366 11.2776 15.584 11.2368L9.8351 9.69721ZM8.43836 12.6089C8.47928 12.4566 8.57899 12.3267 8.71559 12.2479C8.85219 12.169 9.01451 12.1476 9.16688 12.1883L13 13.2152C13.0755 13.2355 13.1463 13.2704 13.2083 13.3179C13.2703 13.3655 13.3224 13.4248 13.3615 13.4925C13.4005 13.5603 13.4259 13.6349 13.4361 13.7125C13.4464 13.7899 13.4412 13.8686 13.421 13.9441C13.4008 14.0196 13.3659 14.0904 13.3183 14.1525C13.2707 14.2145 13.2114 14.2665 13.1437 14.3056C13.076 14.3448 13.0013 14.37 12.9238 14.3803C12.8463 14.3906 12.7676 14.3854 12.6921 14.3651L8.85896 13.3383C8.78345 13.3181 8.71268 13.2831 8.65067 13.2355C8.58866 13.1878 8.53664 13.1285 8.49758 13.0608C8.45852 12.993 8.43317 12.9182 8.42302 12.8407C8.41285 12.7632 8.41807 12.6844 8.43836 12.6089Z" fill="black" fill-opacity="0.9"/>
<path fill-rule="evenodd" clip-rule="evenodd" d="M14.2827 19.9258L6.61716 17.8727C6.05815 17.7229 5.58159 17.3571 5.29226 16.8559C5.00295 16.3546 4.92458 15.7589 5.07439 15.1999L7.64169 5.61715C7.79159 5.05814 8.15739 4.58158 8.65864 4.29227C9.15988 4.00295 9.75552 3.92457 10.3146 4.07439L17.9808 6.12744C18.5398 6.27735 19.0163 6.64314 19.3057 7.14439C19.595 7.64564 19.6733 8.24127 19.5235 8.80029L16.9555 18.3822C16.8056 18.9413 16.4397 19.4178 15.9385 19.7072C15.4372 19.9965 14.8416 20.0756 14.2827 19.9258ZM6.22353 15.5078C6.1898 15.6338 6.1812 15.765 6.19821 15.8941C6.21521 16.0232 6.25749 16.1478 6.32265 16.2606C6.38779 16.3734 6.47452 16.4723 6.57789 16.5517C6.68125 16.6309 6.79922 16.6891 6.92506 16.7228L14.5912 18.7766C14.8452 18.8445 15.1157 18.8089 15.3434 18.6775C15.5711 18.5462 15.7372 18.3297 15.8055 18.0759L18.3736 8.49237C18.4073 8.36653 18.4159 8.23528 18.3989 8.10611C18.3818 7.97695 18.3396 7.85238 18.2744 7.73956C18.2093 7.62673 18.1226 7.52785 18.0192 7.44855C17.9159 7.36924 17.7978 7.31107 17.6721 7.27737L10.005 5.22273C9.751 5.15487 9.48041 5.19064 9.25273 5.32218C9.02505 5.45373 8.85891 5.67029 8.79083 5.92428L6.22353 15.5078Z" fill="black" fill-opacity="0.9"/>
</svg>
