<svg width="24" height="24" viewBox="0 0 24 24" fill="none" xmlns="http://www.w3.org/2000/svg">
<path d="M16.2345 12.7882L15.1115 11.6652C15.2615 10.8371 15.0253 10.0925 14.4028 9.4315C13.7804 8.77067 13.0167 8.51525 12.1115 8.66525L10.9885 7.54225C11.2142 7.44092 11.4456 7.36492 11.6828 7.31425C11.9199 7.26358 12.1795 7.23825 12.4615 7.23825C13.5962 7.23825 14.5593 7.63408 15.351 8.42575C16.1427 9.21742 16.5385 10.1806 16.5385 11.3152C16.5385 11.5972 16.5132 11.8601 16.4625 12.1038C16.4118 12.3472 16.3358 12.5754 16.2345 12.7882ZM19.4153 15.8997L18.3115 14.8652C18.9448 14.3819 19.5073 13.8527 19.999 13.2778C20.4907 12.7028 20.9115 12.0486 21.2615 11.3152C20.4282 9.63192 19.2323 8.29442 17.674 7.30275C16.1157 6.31108 14.3782 5.81525 12.4615 5.81525C11.9782 5.81525 11.5032 5.84858 11.0365 5.91525C10.5698 5.98192 10.1115 6.08192 9.6615 6.21525L8.49625 5.05C9.12825 4.79867 9.77375 4.61342 10.4328 4.49425C11.0918 4.37492 11.768 4.31525 12.4615 4.31525C14.805 4.31525 16.9184 4.96142 18.8018 6.25375C20.6851 7.54608 22.0588 9.23325 22.923 11.3152C22.5525 12.2087 22.074 13.0427 21.4875 13.8172C20.9008 14.5916 20.2101 15.2858 19.4153 15.8997ZM20.223 21.6845L16.177 17.669C15.6642 17.8588 15.0958 18.014 14.472 18.1345C13.8483 18.255 13.1782 18.3152 12.4615 18.3152C10.1115 18.3152 7.99808 17.6691 6.12125 16.3767C4.24425 15.0844 2.8705 13.3973 2 11.3152C2.36917 10.4319 2.84608 9.60792 3.43075 8.84325C4.01542 8.07842 4.659 7.41525 5.3615 6.85375L2.59225 4.05375L3.64625 3L21.2768 20.6305L20.223 21.6845ZM6.4155 7.9075C5.88717 8.328 5.37333 8.8335 4.874 9.424C4.37467 10.0143 3.9705 10.6447 3.6615 11.3152C4.49483 12.9986 5.69067 14.3361 7.249 15.3278C8.80733 16.3194 10.5448 16.8152 12.4615 16.8152C12.9167 16.8152 13.3699 16.7767 13.8213 16.6997C14.2724 16.6229 14.6551 16.5435 14.9693 16.4615L13.7038 15.1652C13.5333 15.2344 13.3358 15.2895 13.1115 15.3305C12.8872 15.3717 12.6705 15.3922 12.4615 15.3922C11.3268 15.3922 10.3637 14.9964 9.572 14.2047C8.78033 13.4131 8.3845 12.4499 8.3845 11.3152C8.3845 11.1128 8.40508 10.9009 8.44625 10.6797C8.48725 10.4586 8.54233 10.2563 8.6115 10.073L6.4155 7.9075Z" fill="black" fill-opacity="0.9"/>
</svg>
