<svg width="24" height="24" viewBox="0 0 24 24" fill="none" xmlns="http://www.w3.org/2000/svg">
<path d="M2.5 20.0045V12.7737H9.73075V20.0045H2.5ZM4 18.5045H8.23075V14.2737H4V18.5045ZM6.30775 9.5045L11.1155 1.62L15.923 9.5045H6.30775ZM8.95375 8.0045H13.277L11.1155 4.52749L8.95375 8.0045ZM21.5943 22.3967L18.9635 19.766C18.6327 20.0057 18.2695 20.1887 17.874 20.315C17.4785 20.4413 17.059 20.5045 16.6155 20.5045C15.468 20.5045 14.4953 20.1054 13.6973 19.3072C12.8991 18.5092 12.5 17.5365 12.5 16.389C12.5 15.2417 12.8991 14.2689 13.6973 13.4707C14.4953 12.6727 15.468 12.2737 16.6155 12.2737C17.7628 12.2737 18.7356 12.6727 19.5338 13.4707C20.3318 14.2689 20.7308 15.2417 20.7308 16.389C20.7308 16.8223 20.6676 17.2352 20.5413 17.6275C20.4151 18.0198 20.2404 18.3814 20.0173 18.7122L22.648 21.343L21.5943 22.3967ZM16.615 19.0045C17.3473 19.0045 17.9664 18.7517 18.4723 18.246C18.9779 17.7405 19.2308 17.1217 19.2308 16.3895C19.2308 15.6572 18.978 15.0381 18.4725 14.5322C17.9668 14.0266 17.3479 13.7737 16.6158 13.7737C15.8834 13.7737 15.2644 14.0265 14.7588 14.532C14.2529 15.0377 14 15.6566 14 16.3887C14 17.1211 14.2528 17.7401 14.7585 18.2457C15.264 18.7516 15.8828 19.0045 16.615 19.0045Z" fill="black" fill-opacity="0.9"/>
</svg>
