<svg width="24" height="24" viewBox="0 0 24 24" fill="none" xmlns="http://www.w3.org/2000/svg">
<path d="M19.9964 8.43214C19.9964 8.27143 19.9929 8.11071 19.9893 7.95C19.9847 7.59817 19.9537 7.24717 19.8964 6.9C19.8371 6.55222 19.7264 6.21519 19.5679 5.9C19.2454 5.2662 18.7302 4.75102 18.0964 4.42857C17.7813 4.26987 17.4443 4.15912 17.0964 4.1C16.7493 4.04257 16.3983 4.01153 16.0464 4.00714C15.8857 4.00357 15.725 4 15.5643 4H8.42857C8.26786 4 8.10714 4.00357 7.94643 4.00714C7.85714 4.01071 7.77143 4.01429 7.68214 4.01786C7.41755 4.02817 7.1539 4.05561 6.89286 4.1C6.63341 4.14533 6.37958 4.21837 6.13571 4.31786C6.05238 4.35357 5.97143 4.39048 5.89286 4.42857C5.65739 4.54881 5.43684 4.69625 5.23571 4.86786C5.16786 4.925 5.10357 4.98571 5.04286 5.04643C4.79321 5.29662 4.58469 5.5847 4.425 5.9C4.26644 6.21517 4.1557 6.5522 4.09643 6.9C4.04037 7.24726 4.01052 7.59826 4.00714 7.95C4.00357 8.11071 4 8.27143 4 8.43214V15.5679C4 15.7286 4.00357 15.8893 4.00714 16.05C4.01167 16.4018 4.04272 16.7528 4.1 17.1C4.15917 17.4478 4.26991 17.7849 4.42857 18.1C4.75049 18.733 5.26425 19.248 5.89643 19.5714C6.2116 19.73 6.54863 19.8407 6.89643 19.9C7.24358 19.9574 7.59459 19.9885 7.94643 19.9929C8.10714 19.9964 8.26786 20 8.42857 20H15.5643C15.725 20 15.8857 19.9964 16.0464 19.9929C16.3983 19.9883 16.7492 19.9572 17.0964 19.9C17.4442 19.8407 17.7812 19.7299 18.0964 19.5714C18.7301 19.2488 19.2452 18.7337 19.5679 18.1C19.7265 17.7849 19.8373 17.4478 19.8964 17.1C19.9539 16.7529 19.9849 16.4018 19.9893 16.05C19.9929 15.8893 19.9964 15.7286 19.9964 15.5679V9.00357C19.9964 8.81071 19.9964 8.62143 19.9964 8.42857V8.43214ZM17.5 17.0393C16.7857 15.65 15.4571 15.9929 14.775 16.3429C14.7143 16.3786 14.65 16.4143 14.5857 16.45L14.5714 16.4607C13.1607 17.2107 11.2679 17.2643 9.36071 16.4464C7.81154 15.7735 6.50191 14.6481 5.60357 13.2179C6.04145 13.5421 6.51041 13.822 7.00357 14.0536C9.01786 14.9964 11.0393 14.9286 12.4679 14.0536C10.4321 12.4857 8.73214 10.4464 7.42857 8.79643C7.18006 8.50681 6.95551 8.19745 6.75714 7.87143C8.31786 9.3 10.7821 11.0929 11.6679 11.5893C9.78929 9.60714 8.13571 7.16429 8.21429 7.24286C11.1714 10.2214 13.9 11.9071 13.9 11.9071C14.0036 11.9643 14.0786 12.0107 14.1393 12.05C14.197 11.9039 14.247 11.7549 14.2893 11.6036C14.7607 9.87857 14.2286 7.90357 13.0286 6.275C15.7679 7.92143 17.3893 11.0464 16.725 13.6929C16.7107 13.7536 16.6893 13.8143 16.675 13.875C18.05 15.5679 17.675 17.3821 17.5 17.0393Z" fill="black" fill-opacity="0.9"/>
</svg>
