<svg width="24" height="24" viewBox="0 0 24 24" fill="none" xmlns="http://www.w3.org/2000/svg">
<path d="M14.474 14.2933L7.98172 14.2117C7.96187 14.2111 7.94241 14.206 7.92485 14.1968C7.90729 14.1875 7.8921 14.1743 7.88045 14.1582C7.86928 14.1414 7.86219 14.1223 7.85975 14.1022C7.85731 14.0822 7.85958 14.0619 7.86639 14.0429C7.87746 14.0108 7.8978 13.9827 7.92484 13.9622C7.95188 13.9417 7.9844 13.9296 8.01829 13.9276L14.5696 13.8432C15.346 13.8066 16.1871 13.1793 16.4824 12.4142L16.8565 11.4438C16.8663 11.4177 16.8711 11.39 16.8706 11.3622C16.8703 11.347 16.8684 11.3319 16.865 11.3172C16.6575 10.4129 16.1613 9.60077 15.4514 9.00344C14.7415 8.40611 13.8565 8.05606 12.9301 8.00618C12.0037 7.9563 11.0862 8.20931 10.3163 8.72696C9.54636 9.24462 8.96584 9.9988 8.66245 10.8755C8.34562 10.6354 7.96192 10.4998 7.56455 10.4874C7.16717 10.4751 6.77582 10.5868 6.44474 10.8069C6.11366 11.027 5.85927 11.3446 5.71683 11.7158C5.57439 12.087 5.55096 12.4933 5.64979 12.8784C4.17863 12.9206 3 14.1189 3 15.5928C2.99977 15.7246 3.00917 15.8562 3.02813 15.9867C3.03218 16.0167 3.0469 16.0444 3.06962 16.0645C3.09234 16.0847 3.12155 16.096 3.1519 16.0964L15.1378 16.0992H15.1406C15.1742 16.0988 15.2068 16.0876 15.2337 16.0674C15.2605 16.0471 15.2801 16.0189 15.2897 15.9867L15.3826 15.6688C15.4923 15.2919 15.4501 14.9431 15.2672 14.6871C15.0985 14.448 14.8172 14.3101 14.474 14.2933ZM17.4557 11.5141C17.3966 11.5141 17.3347 11.5169 17.2757 11.5197C17.2544 11.5216 17.2341 11.5299 17.2176 11.5434C17.201 11.557 17.1889 11.5752 17.1828 11.5957L16.9269 12.4733C16.8172 12.8502 16.8594 13.199 17.0422 13.455C17.211 13.6913 17.4951 13.8291 17.8354 13.846L19.2194 13.9276C19.2388 13.9283 19.2578 13.9336 19.2749 13.9428C19.2919 13.9521 19.3066 13.9652 19.3179 13.981C19.3295 13.9982 19.3368 14.0178 19.3393 14.0384C19.3417 14.0589 19.3392 14.0798 19.3319 14.0992C19.3205 14.1311 19.3001 14.159 19.2731 14.1794C19.2462 14.1999 19.2138 14.2121 19.18 14.2145L17.7426 14.2961C16.9606 14.3326 16.1195 14.9599 15.827 15.7251L15.7229 15.9951C15.7184 16.0064 15.7167 16.0186 15.7179 16.0307C15.719 16.0428 15.7231 16.0544 15.7297 16.0646C15.7363 16.0748 15.7453 16.0833 15.7559 16.0893C15.7664 16.0953 15.7783 16.0987 15.7904 16.0992H15.7932H20.7412C20.7698 16.0991 20.7976 16.0897 20.8204 16.0724C20.8433 16.0552 20.8599 16.031 20.8678 16.0035C20.9557 15.6923 21.0002 15.3705 21 15.0471C21.0028 13.095 19.4135 11.5141 17.4557 11.5141Z" fill="black" fill-opacity="0.9"/>
</svg>
