<svg width="24" height="24" viewBox="0 0 24 24" fill="none" xmlns="http://www.w3.org/2000/svg">
<path d="M17.7023 9.22974C17.5125 9.16645 17.3227 9.10669 17.1328 9.05044C17.1645 8.92036 17.1926 8.79028 17.2207 8.6602C17.6531 6.56489 17.3684 4.88091 16.4086 4.32544C15.484 3.79458 13.9758 4.34653 12.45 5.67544C12.2988 5.80552 12.1512 5.94263 12.0105 6.07974C11.9156 5.98833 11.8172 5.89692 11.7188 5.80903C10.1191 4.38872 8.51602 3.79106 7.55625 4.35005C6.63516 4.88442 6.36094 6.46997 6.74766 8.45278C6.78633 8.64966 6.82852 8.84302 6.87773 9.03989C6.65273 9.10317 6.43125 9.17349 6.22383 9.24731C4.34648 9.8977 3 10.9243 3 11.986C3 13.0829 4.43438 14.1833 6.38555 14.8512C6.54375 14.904 6.70195 14.9567 6.86367 15.0024C6.81094 15.2133 6.76523 15.4208 6.72305 15.6352C6.35391 17.5864 6.64219 19.1333 7.56328 19.6641C8.5125 20.2125 10.1086 19.65 11.6625 18.2895C11.7855 18.1805 11.9086 18.068 12.0316 17.9485C12.1863 18.0997 12.348 18.2438 12.5098 18.3844C14.0145 19.6782 15.5016 20.202 16.4191 19.6711C17.3684 19.1227 17.6777 17.4598 17.277 15.4348C17.2453 15.2801 17.2102 15.1219 17.1715 14.9602C17.284 14.9286 17.393 14.8934 17.502 14.8583C19.5305 14.1868 21 13.1004 21 11.986C21 10.9208 19.6148 9.88716 17.7023 9.22974ZM12.9457 6.24497C14.2535 5.10591 15.4734 4.65942 16.0289 4.97935C16.623 5.32036 16.8516 6.69849 16.4789 8.50903C16.4543 8.62856 16.4297 8.74458 16.398 8.8606C15.6176 8.68481 14.8266 8.55825 14.032 8.48794C13.575 7.83403 13.0758 7.20825 12.5344 6.62114C12.6715 6.49106 12.8051 6.36802 12.9457 6.24497ZM8.87812 13.8106C9.05742 14.1165 9.24023 14.4223 9.43359 14.7211C8.88516 14.6614 8.34023 14.5735 7.80234 14.4575C7.95703 13.9512 8.15039 13.4274 8.37539 12.893C8.53711 13.2024 8.70234 13.5083 8.87812 13.8106ZM7.81289 9.5813C8.31914 9.4688 8.85703 9.37739 9.41602 9.30708C9.22969 9.59888 9.04688 9.8977 8.87461 10.2C8.70234 10.4989 8.53359 10.8047 8.37539 11.1141C8.15391 10.5903 7.96758 10.077 7.81289 9.5813ZM8.77617 12.0036C9.0082 11.5184 9.26133 11.0438 9.52852 10.5762C9.7957 10.1086 10.084 9.65513 10.3863 9.20864C10.9137 9.16997 11.4516 9.14888 12 9.14888C12.5484 9.14888 13.0898 9.16997 13.6137 9.20864C13.9125 9.65161 14.1973 10.1051 14.468 10.5692C14.7387 11.0333 14.9918 11.5079 15.2309 11.9895C14.9953 12.4747 14.7422 12.9528 14.4715 13.4239C14.2043 13.8915 13.9195 14.345 13.6207 14.795C13.0969 14.8336 12.552 14.8512 12 14.8512C11.448 14.8512 10.9137 14.8336 10.3969 14.802C10.091 14.3555 9.80273 13.8985 9.53203 13.4309C9.26133 12.9633 9.01172 12.4887 8.77617 12.0036ZM15.1254 13.8036C15.3047 13.4942 15.4734 13.1813 15.6387 12.8649C15.8637 13.3747 16.0605 13.8915 16.2328 14.4223C15.6879 14.5454 15.1359 14.6403 14.5805 14.7036C14.7703 14.4083 14.9496 14.1059 15.1254 13.8036ZM15.6316 11.1141C15.4664 10.8047 15.2977 10.4954 15.1219 10.193C14.9496 9.89419 14.7703 9.59888 14.584 9.30708C15.15 9.37739 15.6914 9.47231 16.1977 9.58833C16.0359 10.1086 15.8461 10.6149 15.6316 11.1141ZM12.007 7.15903C12.3762 7.55981 12.7242 7.98169 13.0477 8.41763C12.3516 8.38599 11.652 8.38599 10.9559 8.41763C11.3004 7.96411 11.6555 7.54224 12.007 7.15903ZM7.92891 5.00395C8.51953 4.65942 9.83086 5.15161 11.2125 6.37505C11.3004 6.45239 11.3883 6.53677 11.4797 6.62114C10.9348 7.20825 10.432 7.83403 9.97148 8.48794C9.17695 8.55825 8.38945 8.6813 7.60898 8.85356C7.56328 8.67427 7.52461 8.49146 7.48594 8.30864C7.15547 6.60708 7.37344 5.32388 7.92891 5.00395ZM7.06758 14.2711C6.91992 14.229 6.77578 14.1833 6.63164 14.134C5.88281 13.8985 5.03203 13.5258 4.4168 13.0372C4.06172 12.7911 3.82266 12.4114 3.75586 11.986C3.75586 11.3426 4.8668 10.52 6.46992 9.96099C6.67031 9.89067 6.87422 9.82739 7.07812 9.76763C7.31719 10.5305 7.60547 11.2793 7.93945 12.0036C7.60195 12.7383 7.31016 13.4977 7.06758 14.2711ZM11.1668 17.7165C10.5867 18.2473 9.91523 18.6692 9.18398 18.9575C8.79375 19.1438 8.34375 19.1614 7.94297 19.0032C7.38398 18.6797 7.15195 17.4387 7.46836 15.7688C7.50703 15.5719 7.54922 15.375 7.59844 15.1817C8.38594 15.3504 9.18047 15.4665 9.98555 15.5262C10.4496 16.1836 10.9594 16.8129 11.5043 17.4036C11.3918 17.5125 11.2793 17.618 11.1668 17.7165ZM12.0281 16.8622C11.6695 16.4754 11.3109 16.0465 10.9629 15.586C11.3004 15.6 11.6484 15.6071 12 15.6071C12.3621 15.6071 12.7172 15.6 13.0687 15.5825C12.7453 16.029 12.3973 16.4543 12.0281 16.8622ZM16.623 17.9168C16.5914 18.3458 16.3805 18.7465 16.043 19.0172C15.484 19.3407 14.2922 18.9188 13.0055 17.8149C12.8578 17.6883 12.7102 17.5512 12.559 17.4106C13.0969 16.8165 13.5926 16.1872 14.0426 15.5262C14.8477 15.4594 15.6492 15.3364 16.4402 15.1571C16.4754 15.3012 16.507 15.4454 16.5352 15.586C16.7074 16.3454 16.7355 17.1364 16.623 17.9168ZM17.2629 14.1375C17.1645 14.1692 17.066 14.2008 16.9641 14.229C16.718 13.4625 16.4156 12.7137 16.0676 11.986C16.4051 11.2688 16.6898 10.5305 16.9289 9.77466C17.1117 9.82739 17.2875 9.88364 17.4563 9.93989C19.0945 10.5024 20.2441 11.3391 20.2441 11.979C20.2441 12.668 19.0172 13.5575 17.2629 14.1375ZM12 13.6102C12.8895 13.6102 13.6102 12.8895 13.6102 12C13.6102 11.1106 12.8895 10.3899 12 10.3899C11.1105 10.3899 10.3898 11.1106 10.3898 12C10.3898 12.8895 11.1105 13.6102 12 13.6102Z" fill="black" fill-opacity="0.9"/>
</svg>
