<svg width="24" height="24" viewBox="0 0 24 24" fill="none" xmlns="http://www.w3.org/2000/svg">
<path d="M1.5 20.5V19H22.7305V20.5H1.5ZM4.423 18C3.91783 18 3.49025 17.825 3.14025 17.475C2.79025 17.125 2.61525 16.6974 2.61525 16.1923V5.80775C2.61525 5.30258 2.79025 4.875 3.14025 4.525C3.49025 4.175 3.91783 4 4.423 4H19.8075C20.3127 4 20.7402 4.175 21.0903 4.525C21.4403 4.875 21.6152 5.30258 21.6152 5.80775V16.1923C21.6152 16.6974 21.4403 17.125 21.0903 17.475C20.7402 17.825 20.3127 18 19.8075 18H4.423ZM4.423 16.5H19.8075C19.8845 16.5 19.955 16.468 20.019 16.404C20.0832 16.3398 20.1152 16.2693 20.1152 16.1923V5.80775C20.1152 5.73075 20.0832 5.66025 20.019 5.59625C19.955 5.53208 19.8845 5.5 19.8075 5.5H4.423C4.346 5.5 4.2755 5.53208 4.2115 5.59625C4.14733 5.66025 4.11525 5.73075 4.11525 5.80775V16.1923C4.11525 16.2693 4.14733 16.3398 4.2115 16.404C4.2755 16.468 4.346 16.5 4.423 16.5Z" fill="black" fill-opacity="0.9"/>
</svg>
