<svg width="24" height="24" viewBox="0 0 24 24" fill="none" xmlns="http://www.w3.org/2000/svg">
<path d="M11.06 16.0962C11.04 16.1329 11.05 16.1162 11.06 16.0962V16.0962ZM19.3627 13.1964C18.6923 13.1963 18.0309 13.3502 17.4295 13.6464C17.2329 13.2498 17.0296 12.9031 16.9962 12.6432C16.9562 12.3398 16.9129 12.1599 16.9596 11.7999C17.0062 11.4399 17.2162 10.93 17.2129 10.8933C17.2095 10.8566 17.1662 10.6733 16.7363 10.67C16.3063 10.6666 15.9363 10.7533 15.893 10.8666C15.817 11.0737 15.758 11.2866 15.7163 11.5032C15.6397 11.8932 14.8564 13.2864 14.4131 14.013C14.2665 13.7297 14.1431 13.4798 14.1165 13.2798C14.0765 12.9765 14.0331 12.7965 14.0798 12.4365C14.1265 12.0765 14.3364 11.5666 14.3331 11.5299C14.3298 11.4932 14.2865 11.3099 13.8565 11.3066C13.4265 11.3033 13.0566 11.3899 13.0132 11.5032C12.9699 11.6166 12.9232 11.8832 12.8366 12.1399C12.7499 12.3965 11.7067 14.7163 11.4334 15.3196C11.2934 15.6262 11.1734 15.8729 11.0867 16.0395C11.0734 16.0662 11.0634 16.0829 11.0567 16.0962C11.0667 16.0795 11.0734 16.0629 11.0734 16.0695C11.0001 16.2129 10.9567 16.2929 10.9567 16.2929V16.2962C10.9001 16.4028 10.8367 16.4995 10.8067 16.4995C10.7867 16.4995 10.7434 16.2195 10.8167 15.8362C10.9734 15.0296 11.3434 13.7764 11.34 13.7331C11.3367 13.7097 11.41 13.4931 11.0967 13.3764C10.7934 13.2664 10.6834 13.4498 10.6567 13.4498C10.6301 13.4498 10.6101 13.5164 10.6101 13.5164C10.6101 13.5164 10.9467 12.1032 9.96347 12.1032C9.35019 12.1032 8.49692 12.7765 8.07696 13.3864C7.81364 13.5297 7.24369 13.8397 6.64374 14.1697C6.41376 14.2964 6.17711 14.4263 5.9538 14.5497C5.93713 14.533 5.9238 14.5163 5.90713 14.4997C4.7139 13.2264 2.51074 12.3265 2.60407 10.6167C2.6374 9.99337 2.85405 8.35684 6.84039 6.37033C10.1068 4.7438 12.7199 5.19043 13.1665 6.18368C13.8132 7.60023 11.77 10.2367 8.37693 10.6167C7.0837 10.76 6.40376 10.26 6.23377 10.0734C6.05712 9.87671 6.03046 9.86671 5.9638 9.90338C5.8538 9.96337 5.9238 10.1367 5.9638 10.24C6.06379 10.5033 6.48042 10.97 7.19036 11.2033C7.81364 11.4066 9.33019 11.5199 11.1634 10.81C13.2232 10.0167 14.8264 7.80688 14.3564 5.95703C13.8832 4.07719 10.7667 3.46057 7.82031 4.50715C6.06379 5.13043 4.16394 6.11035 2.79739 7.38692C1.17419 8.90679 0.914207 10.23 1.02086 10.7833C1.40083 12.7465 4.10728 14.0264 5.19053 14.973C5.1372 15.003 5.0872 15.0296 5.04054 15.0563C4.49725 15.3263 2.43408 16.4062 1.91746 17.5461C1.33417 18.8393 2.01412 19.7659 2.46075 19.8926C3.85397 20.2792 5.28052 19.5826 6.04712 18.4393C6.81373 17.2961 6.7204 15.8029 6.3671 15.123C6.36376 15.113 6.3571 15.1063 6.35376 15.0963C6.49375 15.013 6.63707 14.9296 6.7804 14.8463C7.05704 14.683 7.32702 14.533 7.56366 14.403C7.43034 14.763 7.33368 15.1963 7.28369 15.8229C7.22369 16.5562 7.527 17.5061 7.9203 17.8794C8.09362 18.0427 8.3036 18.046 8.43359 18.046C8.89356 18.046 9.10021 17.6661 9.33019 17.2128C9.6135 16.6595 9.86348 16.0162 9.86348 16.0162C9.86348 16.0162 9.55017 17.7561 10.4068 17.7561C10.7201 17.7561 11.0334 17.3528 11.1734 17.1461V17.1495C11.1734 17.1495 11.18 17.1361 11.1967 17.1095C11.23 17.0595 11.2467 17.0295 11.2467 17.0295V17.0195C11.3734 16.8028 11.65 16.3062 12.0666 15.4863C12.6066 14.4263 13.1232 13.1031 13.1232 13.1031C13.1731 13.394 13.2421 13.6813 13.3299 13.963C13.4232 14.2797 13.6198 14.6263 13.7765 14.963C13.6498 15.1363 13.5732 15.2363 13.5732 15.2363C13.5734 15.2388 13.5746 15.2412 13.5765 15.2429C13.4765 15.3763 13.3632 15.5196 13.2465 15.6596C12.8199 16.1662 12.3133 16.7462 12.2466 16.9128C12.1666 17.1095 12.1866 17.2561 12.3399 17.3694C12.4533 17.4561 12.6533 17.4694 12.8632 17.4528C13.2465 17.4261 13.5165 17.3328 13.6465 17.2728C13.8863 17.1869 14.1129 17.068 14.3198 16.9195C14.7364 16.6128 14.9897 16.1729 14.9664 15.5929C14.9531 15.2729 14.8497 14.953 14.7231 14.653C14.7597 14.5997 14.7997 14.543 14.8364 14.4863C15.493 13.5231 16.003 12.4665 16.003 12.4665C16.0529 12.7574 16.1219 13.0446 16.2096 13.3264C16.2896 13.5964 16.4463 13.8931 16.5896 14.183C15.9696 14.6863 15.5863 15.2696 15.453 15.6529C15.2064 16.3629 15.3997 16.6828 15.763 16.7562C15.9263 16.7895 16.1596 16.7128 16.333 16.6395C16.5905 16.5538 16.8333 16.429 17.0529 16.2695C17.4695 15.9629 17.8728 15.5329 17.8462 14.9496C17.8362 14.6863 17.7628 14.423 17.6662 14.1697C18.1895 13.9497 18.8694 13.8297 19.736 13.9297C21.5925 14.1464 21.9558 15.3063 21.8858 15.7896C21.8158 16.2729 21.4259 16.5428 21.2959 16.6228C21.1659 16.7028 21.1259 16.7328 21.1359 16.7928C21.1526 16.8795 21.2126 16.8761 21.3225 16.8561C21.4759 16.8295 22.2958 16.4628 22.3325 15.5662C22.3858 14.433 21.2959 13.1864 19.366 13.1964H19.3627ZM5.0572 18.0194C4.44392 18.6893 3.58399 18.9426 3.21402 18.7293C2.82072 18.4993 2.97737 17.5128 3.73398 16.7995C4.19394 16.3662 4.78722 15.9662 5.18053 15.7196C5.27052 15.6662 5.40051 15.5862 5.56049 15.4896C5.58716 15.4729 5.60049 15.4663 5.60049 15.4663C5.63049 15.4463 5.66382 15.4296 5.69715 15.4096C5.97379 16.4228 5.70715 17.3161 5.06054 18.0194H5.0572ZM9.53684 14.973C9.32352 15.4963 8.87356 16.8295 8.60025 16.7595C8.36693 16.6995 8.22361 15.6829 8.55358 14.683C8.72024 14.1797 9.07354 13.5797 9.28353 13.3464C9.62016 12.9698 9.99013 12.8498 10.0768 12.9998C10.1935 13.1964 9.67016 14.6463 9.53684 14.973ZM13.2365 16.7395C13.1465 16.7862 13.0632 16.8161 13.0232 16.7928C12.9932 16.7762 13.0599 16.7128 13.0599 16.7128C13.0599 16.7128 13.5232 16.2162 13.7065 15.9895C13.8132 15.8562 13.9365 15.6996 14.0698 15.5263C14.0698 15.5429 14.0731 15.5596 14.0731 15.5796C14.0698 16.1762 13.4965 16.5795 13.2365 16.7395ZM16.0896 16.0895C16.023 16.0429 16.033 15.8862 16.2563 15.3996C16.343 15.2096 16.5429 14.8896 16.8896 14.583C16.9288 14.6991 16.9502 14.8205 16.9529 14.943C16.9496 15.6929 16.4129 15.9729 16.0896 16.0895Z" fill="black" fill-opacity="0.9"/>
</svg>
