<svg width="24" height="24" viewBox="0 0 24 24" fill="none" xmlns="http://www.w3.org/2000/svg">
<path d="M12.1 21.4972C10.77 21.4972 9.52308 21.245 8.35925 20.7405C7.19542 20.236 6.18017 19.5504 5.3135 18.6837C4.44683 17.8171 3.76125 16.8018 3.25675 15.638C2.75225 14.4742 2.5 13.2272 2.5 11.8972C2.5 9.70758 3.16767 7.75724 4.503 6.04624C5.83817 4.33541 7.56475 3.21333 9.68275 2.67999C9.49808 4.28516 9.66342 5.84158 10.1788 7.34924C10.6943 8.85691 11.5244 10.1832 12.6693 11.328C13.8141 12.4728 15.1403 13.303 16.648 13.8185C18.1557 14.3338 19.7121 14.4992 21.3173 14.3145C20.7943 16.4325 19.6747 18.1591 17.9585 19.4942C16.2425 20.8296 14.2897 21.4972 12.1 21.4972ZM12.1 19.9972C13.5667 19.9972 14.925 19.6306 16.175 18.8972C17.425 18.1639 18.4083 17.1547 19.125 15.8695C17.6917 15.736 16.3333 15.373 15.05 14.7805C13.7667 14.188 12.6167 13.3827 11.6 12.3647C10.5833 11.3467 9.775 10.1977 9.175 8.91749C8.575 7.63733 8.21667 6.28058 8.1 4.84724C6.81667 5.56391 5.8125 6.55141 5.0875 7.80974C4.3625 9.06808 4 10.4306 4 11.8972C4 14.1472 4.7875 16.0597 6.3625 17.6347C7.9375 19.2097 9.85 19.9972 12.1 19.9972Z" fill="black" fill-opacity="0.9"/>
</svg>
