<svg width="24" height="24" viewBox="0 0 24 24" fill="none" xmlns="http://www.w3.org/2000/svg">
<path d="M5.30775 21.4953C4.80258 21.4953 4.375 21.3203 4.025 20.9703C3.675 20.6203 3.5 20.1927 3.5 19.6875V6.303C3.5 5.79784 3.675 5.37025 4.025 5.02025C4.375 4.67025 4.80258 4.49525 5.30775 4.49525H6.69225V2.38H8.23075V4.49525H15.8077V2.38H17.3077V4.49525H18.6923C19.1974 4.49525 19.625 4.67025 19.975 5.02025C20.325 5.37025 20.5 5.79784 20.5 6.303V19.6875C20.5 20.1927 20.325 20.6203 19.975 20.9703C19.625 21.3203 19.1974 21.4953 18.6923 21.4953H5.30775ZM5.30775 19.9953H18.6923C18.7692 19.9953 18.8398 19.9632 18.9038 19.899C18.9679 19.835 19 19.7645 19 19.6875V10.303H5V19.6875C5 19.7645 5.03208 19.835 5.09625 19.899C5.16025 19.9632 5.23075 19.9953 5.30775 19.9953ZM5 8.803H19V6.303C19 6.226 18.9679 6.1555 18.9038 6.0915C18.8398 6.02734 18.7692 5.99525 18.6923 5.99525H5.30775C5.23075 5.99525 5.16025 6.02734 5.09625 6.0915C5.03208 6.1555 5 6.226 5 6.303V8.803Z" fill="black" fill-opacity="0.9"/>
</svg>
