<svg width="24" height="24" viewBox="0 0 24 24" fill="none" xmlns="http://www.w3.org/2000/svg">
<path d="M12.9952 11.2948H10.635V9.17384H12.9952V11.2948ZM12.9952 4H10.635V6.16737H12.9952V4ZM15.7874 9.17027H13.4272V11.2912H15.7874V9.17027ZM10.2065 6.59585H7.84635V8.7418H10.2065V6.59585ZM12.9952 6.59585H10.635V8.7418H12.9952V6.59585ZM22.8787 10.1665C22.3645 9.82013 21.1791 9.69516 20.2686 9.86655C20.1507 9.0096 19.6723 8.26333 18.801 7.59206L18.3012 7.25999L17.9691 7.75988C17.3121 8.75251 17.1336 10.3879 17.837 11.4662C17.5263 11.634 16.9157 11.8625 16.1088 11.8482H0.587252C0.276607 13.6621 0.794348 16.0187 2.15833 17.6362C3.48303 19.2037 5.46831 20 8.06415 20C13.6843 20 17.8441 17.4113 19.7901 12.7088C20.5542 12.7231 22.2039 12.7123 23.0501 11.0948C23.1037 11.0056 23.2858 10.6235 23.3536 10.4843L22.8787 10.1665ZM4.62921 9.17027H2.27259V11.2912H4.63278V9.17027H4.62921ZM7.41787 9.17027H5.05768V11.2912H7.41787V9.17027ZM10.2065 9.17027H7.84635V11.2912H10.2065V9.17027ZM7.41787 6.59585H5.05768V8.7418H7.41787V6.59585Z" fill="black" fill-opacity="0.9"/>
</svg>
