<svg width="24" height="24" viewBox="0 0 24 24" fill="none" xmlns="http://www.w3.org/2000/svg">
<path d="M19.8293 21.9875L10.9871 13.0953C10.0882 13.2081 9.23881 13.4574 8.43881 13.8433C7.63881 14.2293 6.94331 14.7325 6.35231 15.353L4.79081 13.7608C5.38181 13.1698 6.04814 12.6582 6.78981 12.226C7.53148 11.794 8.31648 11.4697 9.14481 11.253L6.18306 8.2915C5.46123 8.61584 4.74839 9.01776 4.04456 9.49725C3.34073 9.97676 2.69331 10.512 2.10231 11.103L0.560059 9.51075C1.15756 8.91325 1.79506 8.37159 2.47256 7.88575C3.15006 7.39975 3.83306 6.98117 4.52156 6.63L2.32556 4.43375L3.37931 3.38L20.9331 20.9338L19.8293 21.9875ZM12.0023 20.7145C11.437 20.7145 10.9591 20.5168 10.5686 20.1213C10.1782 19.7258 9.98306 19.2504 9.98306 18.6953C9.98306 18.1299 10.1782 17.6521 10.5686 17.2618C10.9591 16.8714 11.437 16.6763 12.0023 16.6763C12.5676 16.6763 13.0456 16.8714 13.4361 17.2618C13.8264 17.6521 14.0216 18.1299 14.0216 18.6953C14.0216 19.2504 13.8264 19.7258 13.4361 20.1213C13.0456 20.5168 12.5676 20.7145 12.0023 20.7145ZM17.9023 15.053L17.3263 14.477L16.7503 13.901L13.9101 11.0608C14.8691 11.1941 15.8078 11.4893 16.7263 11.9463C17.645 12.4034 18.4741 13.0018 19.2138 13.7415L17.9023 15.053ZM21.9023 11.103C20.619 9.81967 19.1315 8.8155 17.4398 8.0905C15.7481 7.3655 13.9356 7.003 12.0023 7.003C11.6523 7.003 11.31 7.0155 10.9753 7.0405C10.6408 7.0655 10.3165 7.103 10.0023 7.153L8.08706 5.23775C8.67289 5.08259 9.28889 4.96625 9.93506 4.88875C10.5812 4.81109 11.2703 4.77225 12.0023 4.77225C14.26 4.77225 16.3657 5.19309 18.3196 6.03475C20.2734 6.87642 21.9881 8.03509 23.4638 9.51075L21.9023 11.103Z" fill="black" fill-opacity="0.9"/>
</svg>
