<svg width="24" height="24" viewBox="0 0 24 24" fill="none" xmlns="http://www.w3.org/2000/svg">
<path d="M9.5 13.75C9.15 13.75 8.85417 13.6292 8.6125 13.3875C8.37083 13.1458 8.25 12.85 8.25 12.5C8.25 12.15 8.37083 11.8542 8.6125 11.6125C8.85417 11.3708 9.15 11.25 9.5 11.25C9.85 11.25 10.1458 11.3708 10.3875 11.6125C10.6292 11.8542 10.75 12.15 10.75 12.5C10.75 12.85 10.6292 13.1458 10.3875 13.3875C10.1458 13.6292 9.85 13.75 9.5 13.75ZM15.5 13.75C15.15 13.75 14.8542 13.6292 14.6125 13.3875C14.3708 13.1458 14.25 12.85 14.25 12.5C14.25 12.15 14.3708 11.8542 14.6125 11.6125C14.8542 11.3708 15.15 11.25 15.5 11.25C15.85 11.25 16.1458 11.3708 16.3875 11.6125C16.6292 11.8542 16.75 12.15 16.75 12.5C16.75 12.85 16.6292 13.1458 16.3875 13.3875C16.1458 13.6292 15.85 13.75 15.5 13.75ZM12.5 19.5C14.7333 19.5 16.625 18.725 18.175 17.175C19.725 15.625 20.5 13.7333 20.5 11.5C20.5 11.1 20.475 10.7125 20.425 10.3375C20.375 9.9625 20.2833 9.6 20.15 9.25C19.8 9.33333 19.45 9.39583 19.1 9.4375C18.75 9.47917 18.3833 9.5 18 9.5C16.4833 9.5 15.05 9.175 13.7 8.525C12.35 7.875 11.2 6.96667 10.25 5.8C9.71667 7.1 8.95417 8.22917 7.9625 9.1875C6.97083 10.1458 5.81667 10.8667 4.5 11.35V11.5C4.5 13.7333 5.275 15.625 6.825 17.175C8.375 18.725 10.2667 19.5 12.5 19.5ZM12.5017 21C11.1877 21 9.95267 20.7507 8.7965 20.252C7.64033 19.7533 6.63467 19.0766 5.7795 18.2218C4.92433 17.3669 4.24725 16.3617 3.74825 15.206C3.24942 14.0503 3 12.8156 3 11.5017C3 10.1877 3.24933 8.95267 3.748 7.7965C4.24667 6.64033 4.92342 5.63467 5.77825 4.7795C6.63308 3.92433 7.63833 3.24725 8.794 2.74825C9.94967 2.24942 11.1844 2 12.4983 2C13.8123 2 15.0473 2.24933 16.2035 2.748C17.3597 3.24667 18.3653 3.92342 19.2205 4.77825C20.0757 5.63308 20.7528 6.63833 21.2518 7.794C21.7506 8.94967 22 10.1844 22 11.4983C22 12.8123 21.7507 14.0473 21.252 15.2035C20.7533 16.3597 20.0766 17.3653 19.2218 18.2205C18.3669 19.0757 17.3617 19.7528 16.206 20.2518C15.0503 20.7506 13.8156 21 12.5017 21ZM10.6788 3.72125C11.4364 5.11858 12.4874 6.18108 13.8318 6.90875C15.1759 7.63625 16.5653 8 18 8C18.2718 8 18.5369 7.98592 18.7952 7.95775C19.0536 7.92958 19.3154 7.88917 19.5807 7.8365C18.9127 6.50967 17.9452 5.45517 16.678 4.673C15.4107 3.891 14.018 3.5 12.5 3.5C12.1642 3.5 11.851 3.51892 11.5605 3.55675C11.2702 3.59458 10.9763 3.64942 10.6788 3.72125ZM4.78075 9.5905C5.72058 9.12 6.61292 8.4325 7.45775 7.528C8.30258 6.6235 8.84808 5.53917 9.09425 4.275C8.00058 4.77117 7.07625 5.48433 6.32125 6.4145C5.56608 7.34467 5.05258 8.40333 4.78075 9.5905Z" fill="black" fill-opacity="0.9"/>
</svg>
