<svg width="24" height="24" viewBox="0 0 24 24" fill="none" xmlns="http://www.w3.org/2000/svg">
<path d="M12 21.4822C9.83717 20.8924 8.0465 19.6193 6.628 17.663C5.20933 15.7066 4.5 13.5195 4.5 11.1015V5.34773L12 2.53998L19.5 5.34773V11.1015C19.5 13.5195 18.7907 15.7066 17.372 17.663C15.9535 19.6193 14.1628 20.8924 12 21.4822ZM12 19.9015C13.7333 19.3515 15.1667 18.2515 16.3 16.6015C17.4333 14.9515 18 13.1181 18 11.1015V6.37648L12 4.13598L6 6.37648V11.1015C6 13.1181 6.56667 14.9515 7.7 16.6015C8.83333 18.2515 10.2667 19.3515 12 19.9015Z" fill="black" fill-opacity="0.9"/>
</svg>
