<svg width="24" height="24" viewBox="0 0 24 24" fill="none" xmlns="http://www.w3.org/2000/svg">
<path d="M11.5 20.3345C9.62433 20.0908 8.07208 19.2646 6.84325 17.8558C5.61442 16.4468 5 14.7961 5 12.9038C5 11.8871 5.20067 10.9131 5.602 9.98175C6.00333 9.05025 6.5655 8.23192 7.2885 7.52675L8.35775 8.596C7.74358 9.15633 7.28042 9.80667 6.96825 10.547C6.65608 11.2873 6.5 12.0729 6.5 12.9038C6.5 14.3704 6.96825 15.6631 7.90475 16.7818C8.84125 17.9003 10.0397 18.5845 11.5 18.8345V20.3345ZM13.5 20.3538V18.8538C14.9437 18.5614 16.1379 17.8618 17.0828 16.7548C18.0276 15.6478 18.5 14.3641 18.5 12.9038C18.5 11.2371 17.9167 9.82042 16.75 8.65375C15.5833 7.48708 14.1667 6.90375 12.5 6.90375H12.1463L13.4962 8.25375L12.4423 9.3075L9.2885 6.15375L12.4423 3L13.4962 4.05375L12.1463 5.40375H12.5C14.5923 5.40375 16.3654 6.13067 17.8193 7.5845C19.2731 9.03833 20 10.8114 20 12.9038C20 14.7858 19.384 16.4281 18.152 17.8308C16.9198 19.2333 15.3692 20.0743 13.5 20.3538Z" fill="black" fill-opacity="0.9"/>
</svg>
