<svg width="24" height="24" viewBox="0 0 24 24" fill="none" xmlns="http://www.w3.org/2000/svg">
<path d="M7.35996 14.1085C7.35996 15.0333 6.60299 15.7902 5.6782 15.7902C4.7534 15.7902 4 15.0333 4 14.1085C4 13.1837 4.75697 12.4267 5.68177 12.4267H7.36353V14.1085H7.35996ZM8.2062 14.1085C8.2062 13.1837 8.96318 12.4267 9.88797 12.4267C10.8128 12.4267 11.5697 13.1837 11.5697 14.1085V18.3147C11.5697 19.2395 10.8128 19.9964 9.88797 19.9964C8.96318 19.9964 8.2062 19.2395 8.2062 18.3147V14.1085ZM9.88797 7.35996C8.96318 7.35996 8.2062 6.60299 8.2062 5.6782C8.2062 4.7534 8.96318 4 9.88797 4C10.8128 4 11.5697 4.75697 11.5697 5.68177V7.36353H9.88797V7.35996ZM9.88797 8.2062C10.8128 8.2062 11.5697 8.96318 11.5697 9.88797C11.5697 10.8128 10.8128 11.5697 9.88797 11.5697H5.68177C4.75697 11.5697 4 10.8128 4 9.88797C4 8.96318 4.75697 8.2062 5.68177 8.2062H9.88797ZM16.6365 9.88797C16.6365 8.96318 17.3934 8.2062 18.3182 8.2062C19.243 8.2062 20 8.96318 20 9.88797C20 10.8128 19.243 11.5697 18.3182 11.5697H16.6365V9.88797ZM15.7902 9.88797C15.7902 10.8128 15.0333 11.5697 14.1085 11.5697C13.1837 11.5697 12.4267 10.8128 12.4267 9.88797V5.68177C12.4267 4.75697 13.1837 4 14.1085 4C15.0333 4 15.7902 4.75697 15.7902 5.68177V9.88797ZM14.1085 16.6365C15.0333 16.6365 15.7902 17.3934 15.7902 18.3182C15.7902 19.243 15.0333 20 14.1085 20C13.1837 20 12.4267 19.243 12.4267 18.3182V16.6365H14.1085ZM14.1085 15.7902C13.1837 15.7902 12.4267 15.0333 12.4267 14.1085C12.4267 13.1837 13.1837 12.4267 14.1085 12.4267H18.3147C19.2395 12.4267 19.9964 13.1837 19.9964 14.1085C19.9964 15.0333 19.2395 15.7902 18.3147 15.7902H14.1085Z" fill="black" fill-opacity="0.9"/>
</svg>
