<svg width="360" height="96" viewBox="0 0 360 96" fill="none" xmlns="http://www.w3.org/2000/svg">
<g clip-path="url(#clip0_1028_1542)">
<path d="M87.7216 56.2941L20.279 15.333L20.9815 24.8116L6.60669 40.7588L66.997 83.0374L74.3735 68.481L81.75 65.7729L87.7216 56.2941Z" fill="#676767"/>
<path d="M93.1686 29.2559L0.886963 47.6942L3.59119 53.84L4.22416 65.7482L96.887 47.6942L90.4646 42.7004L93.1686 29.2559Z" fill="#2F2F2F"/>
<path d="M8.6875 76.9435L50.5688 4.5L53.3382 9.48233L61.7149 10.9319L70.834 15.6712L28.6149 91.4999L19.4956 85.0679L16.1181 78.6363L8.6875 76.9435Z" fill="#050505"/>
<path d="M359.287 22.9607H318.381V44.4229H354.919V51.4802H318.381V73.0391H359.287V80H310.935V16H359.287V22.9607Z" fill="#050505"/>
<path fill-rule="evenodd" clip-rule="evenodd" d="M273.885 16H285.677H293.123H304.915V23.5294H293.123V72.4704H304.915V80H293.123H285.677H273.885V72.4704H285.677V23.5294H273.885V16Z" fill="#050505"/>
<path d="M226.496 57.1845V80H219.049V16H248.636C262.636 16 271.274 24.0242 271.274 36.5921C271.274 49.2567 262.636 57.1845 248.636 57.1845H226.496ZM248.14 22.864H226.496V50.4169H248.14C258.466 50.4169 263.827 45.1964 263.827 36.5921C263.827 28.0846 258.466 22.864 248.14 22.864Z" fill="#050505"/>
<path d="M186.274 16L214.173 80H205.932L197.89 61.4382H165.324L157.282 80H149.042L176.941 16H186.274ZM168.204 54.7675H195.011L181.607 23.5408L168.204 54.7675Z" fill="#050505"/>
<path d="M156.603 16V22.9607H133.669V80H126.222V22.9607H103.287V16H156.603Z" fill="#050505"/>
</g>
<defs>
<clipPath id="clip0_1028_1542">
<rect width="358.4" height="96" fill="white" transform="translate(0.886963)"/>
</clipPath>
</defs>
</svg>
