<svg width="24" height="24" viewBox="0 0 24 24" fill="none" xmlns="http://www.w3.org/2000/svg">
<path d="M11.9968 7.64194L12.2903 7.13548C12.471 6.81935 12.8742 6.7129 13.1903 6.89355C13.5065 7.07419 13.6129 7.47742 13.4323 7.79355L10.6097 12.6806H12.6516C13.3129 12.6806 13.6839 13.4581 13.3968 13.9968H7.4129C7.04839 13.9968 6.75484 13.7032 6.75484 13.3387C6.75484 12.9742 7.04839 12.6806 7.4129 12.6806H9.09032L11.2387 8.95806L10.5677 7.79355C10.3871 7.47742 10.4935 7.07742 10.8097 6.89355C11.1258 6.7129 11.5258 6.81935 11.7097 7.13548L11.9968 7.64194ZM9.45806 14.6742L8.82581 15.771C8.64516 16.0871 8.24194 16.1935 7.92581 16.0129C7.60968 15.8323 7.50323 15.429 7.68387 15.1129L8.15484 14.3C8.68387 14.1355 9.11613 14.2613 9.45806 14.6742ZM14.9065 12.6839H16.6194C16.9839 12.6839 17.2774 12.9774 17.2774 13.3419C17.2774 13.7065 16.9839 14 16.6194 14H15.6677L16.3097 15.1129C16.4903 15.429 16.3839 15.829 16.0677 16.0129C15.7516 16.1935 15.3516 16.0871 15.1677 15.771C14.0871 13.8968 13.2742 12.4935 12.7355 11.5581C12.1839 10.6065 12.5774 9.65161 12.9677 9.32903C13.4 10.071 14.0452 11.1903 14.9065 12.6839ZM12 4C7.58065 4 4 7.58065 4 12C4 16.4194 7.58065 20 12 20C16.4194 20 20 16.4194 20 12C20 7.58065 16.4194 4 12 4ZM18.9677 12C18.9677 15.829 15.8677 18.9677 12 18.9677C8.17097 18.9677 5.03226 15.8677 5.03226 12C5.03226 8.17097 8.13226 5.03226 12 5.03226C15.829 5.03226 18.9677 8.13226 18.9677 12Z" fill="black" fill-opacity="0.9"/>
</svg>
