<svg width="24" height="24" viewBox="0 0 24 24" fill="none" xmlns="http://www.w3.org/2000/svg">
<path d="M13.7913 5.00623C13.0325 4.1099 12.3791 3.19957 12.2456 3.0105C12.2316 2.9965 12.2105 2.9965 12.1964 3.0105C12.0629 3.19957 11.4095 4.1099 10.6507 5.00623C4.13772 13.2762 11.6765 18.8572 11.6765 18.8572L11.7398 18.8992C11.796 19.7606 11.9365 21 11.9365 21H12.2175H12.4985C12.4985 21 12.6391 19.7676 12.6953 18.8992L12.7585 18.8503C12.7655 18.8503 20.3043 13.2762 13.7913 5.00623ZM12.2175 18.7312C12.2175 18.7312 11.8803 18.4441 11.7889 18.297V18.283L12.1964 9.27777C12.1964 9.24975 12.2386 9.24975 12.2386 9.27777L12.6461 18.283V18.297C12.5548 18.4441 12.2175 18.7312 12.2175 18.7312Z" fill="black" fill-opacity="0.9"/>
</svg>
