<svg width="24" height="24" viewBox="0 0 24 24" fill="none" xmlns="http://www.w3.org/2000/svg">
<path d="M11.75 14.75C12.5833 14.75 13.2917 14.4583 13.875 13.875C14.4583 13.2917 14.75 12.5833 14.75 11.75C14.75 10.9167 14.4583 10.2083 13.875 9.625C13.2917 9.04167 12.5833 8.75 11.75 8.75C10.9167 8.75 10.2083 9.04167 9.625 9.625C9.04167 10.2083 8.75 10.9167 8.75 11.75C8.75 12.5833 9.04167 13.2917 9.625 13.875C10.2083 14.4583 10.9167 14.75 11.75 14.75ZM11.75 16.25C10.5013 16.25 9.43917 15.8122 8.5635 14.9365C7.68783 14.0608 7.25 12.9987 7.25 11.75C7.25 10.5013 7.68783 9.43917 8.5635 8.5635C9.43917 7.68783 10.5013 7.25 11.75 7.25C12.9987 7.25 14.0608 7.68783 14.9365 8.5635C15.8122 9.43917 16.25 10.5013 16.25 11.75C16.25 12.9987 15.8122 14.0608 14.9365 14.9365C14.0608 15.8122 12.9987 16.25 11.75 16.25ZM4.75 12.5H1V11H4.75V12.5ZM22.5 12.5H18.75V11H22.5V12.5ZM11 4.75V1H12.5V4.75H11ZM11 22.5V18.75H12.5V22.5H11ZM6.323 7.327L3.98075 5.0655L5.0405 3.95575L7.29625 6.273L6.323 7.327ZM18.4595 19.5443L16.1885 17.2115L17.177 16.173L19.5193 18.4345L18.4595 19.5443ZM16.173 6.323L18.4345 3.98075L19.5443 5.0405L17.227 7.29625L16.173 6.323ZM3.95575 18.4595L6.2885 16.1885L7.30775 17.177L5.05575 19.5288L3.95575 18.4595Z" fill="black" fill-opacity="0.9"/>
</svg>
