<svg width="24" height="24" viewBox="0 0 24 24" fill="none" xmlns="http://www.w3.org/2000/svg">
<path d="M3 6.51925V2H7.51925V3.5H4.5V6.51925H3ZM3 21V16.4808H4.5V19.5H7.51925V21H3ZM17.4808 21V19.5H20.5V16.4808H22V21H17.4808ZM20.5 6.51925V3.5H17.4808V2H22V6.51925H20.5ZM17.7212 16.7212H19.077V18.077H17.7212V16.7212ZM17.7212 14.0095H19.077V15.3652H17.7212V14.0095ZM16.3652 15.3652H17.7212V16.7212H16.3652V15.3652ZM15.0095 16.7212H16.3652V18.077H15.0095V16.7212ZM13.6538 15.3652H15.0095V16.7212H13.6538V15.3652ZM16.3652 12.6538H17.7212V14.0095H16.3652V12.6538ZM15.0095 14.0095H16.3652V15.3652H15.0095V14.0095ZM13.6538 12.6538H15.0095V14.0095H13.6538V12.6538ZM19.077 4.923V10.3462H13.6538V4.923H19.077ZM11.3463 12.6538V18.077H5.923V12.6538H11.3463ZM11.3463 4.923V10.3462H5.923V4.923H11.3463ZM10.1537 16.8845V13.8463H7.1155V16.8845H10.1537ZM10.1537 9.15375V6.1155H7.1155V9.15375H10.1537ZM17.8845 9.15375V6.1155H14.8462V9.15375H17.8845Z" fill="black" fill-opacity="0.9"/>
</svg>
