<svg width="24" height="24" viewBox="0 0 24 24" fill="none" xmlns="http://www.w3.org/2000/svg">
<path d="M5.9135 20V18.5H19.0865V20H5.9135ZM5.88475 16.8077L4.523 8.975C4.48967 8.98133 4.45217 8.98708 4.4105 8.99225C4.36883 8.99742 4.33133 9 4.298 9C3.93267 9 3.625 8.87383 3.375 8.6215C3.125 8.369 3 8.0625 3 7.702C3 7.336 3.125 7.02492 3.375 6.76875C3.625 6.51275 3.93292 6.38475 4.29875 6.38475C4.66442 6.38475 4.97525 6.51275 5.23125 6.76875C5.48742 7.02492 5.6155 7.336 5.6155 7.702C5.6155 7.795 5.60775 7.88142 5.59225 7.96125C5.57692 8.04092 5.55258 8.116 5.51925 8.1865L8.68275 9.52875L11.7308 5.36925C11.5668 5.25508 11.4344 5.10492 11.3338 4.91875C11.2331 4.73258 11.1827 4.53208 11.1827 4.31725C11.1827 3.95142 11.3108 3.64042 11.5668 3.38425C11.8228 3.12808 12.1337 3 12.4995 3C12.8652 3 13.1763 3.12792 13.4327 3.38375C13.6891 3.63942 13.8173 3.95 13.8173 4.3155C13.8173 4.53467 13.7669 4.73658 13.6663 4.92125C13.5656 5.10575 13.4332 5.25508 13.2692 5.36925L16.3173 9.52875L19.4807 8.1865C19.4551 8.11833 19.4327 8.04325 19.4135 7.96125C19.3942 7.87942 19.3845 7.793 19.3845 7.702C19.3845 7.336 19.5095 7.02492 19.7595 6.76875C20.0095 6.51275 20.3174 6.38475 20.6833 6.38475C21.0489 6.38475 21.3598 6.51275 21.616 6.76875C21.872 7.02492 22 7.336 22 7.702C22 8.0615 21.8717 8.36775 21.6152 8.62075C21.3587 8.87358 21.0472 9 20.6807 9C20.6514 9 20.6184 8.99583 20.5818 8.9875C20.5452 8.97917 20.5093 8.975 20.4738 8.975L19.1152 16.8077H5.88475ZM7.1615 15.3077H17.8385L18.777 10.1518L15.8057 11.3885L12.5 6.852L9.19425 11.3885L6.223 10.1518L7.1615 15.3077Z" fill="black" fill-opacity="0.9"/>
</svg>
