<svg width="24" height="24" viewBox="0 0 24 24" fill="none" xmlns="http://www.w3.org/2000/svg">
<path d="M18.4122 7.09367C18.4072 7.08433 18.399 7.07713 18.3891 7.07343C17.2877 6.56802 16.1255 6.20749 14.9314 6.00085C14.9207 5.99889 14.9096 6.00034 14.8997 6.00501C14.8899 6.00968 14.8817 6.01733 14.8765 6.02687C14.7181 6.31433 14.5743 6.60959 14.4457 6.91153C13.1579 6.71606 11.8479 6.71606 10.5601 6.91153C10.431 6.60884 10.2853 6.31351 10.1236 6.02687C10.118 6.01761 10.1098 6.0102 10.1 6.00557C10.0903 6.00094 10.0793 5.9993 10.0686 6.00085C8.8725 6.20656 7.70822 6.56712 6.60517 7.07343C6.59549 7.07753 6.58739 7.08463 6.58204 7.09367C4.37906 10.3866 3.77483 13.5956 4.06971 16.7671C4.07055 16.7751 4.07304 16.7828 4.07702 16.7898C4.081 16.7968 4.08639 16.8028 4.09284 16.8076C5.37608 17.7568 6.81116 18.4812 8.33691 18.9499C8.34787 18.9533 8.35963 18.9531 8.37051 18.9495C8.3814 18.9459 8.39088 18.9389 8.39762 18.9296C8.72498 18.484 9.01507 18.0121 9.26494 17.5188C9.26826 17.512 9.27015 17.5046 9.27049 17.4971C9.27082 17.4895 9.26959 17.482 9.26688 17.4749C9.26416 17.4679 9.26002 17.4614 9.25471 17.4561C9.24941 17.4507 9.24304 17.4464 9.23602 17.4436C8.77765 17.268 8.33393 17.0563 7.90903 16.8105C7.90152 16.8059 7.89523 16.7996 7.89068 16.792C7.88613 16.7845 7.88346 16.776 7.8829 16.7672C7.88233 16.7584 7.88388 16.7496 7.88742 16.7415C7.89097 16.7335 7.89639 16.7264 7.90325 16.7209C7.99287 16.6544 8.08249 16.585 8.16634 16.5156C8.17373 16.5091 8.18282 16.5049 8.19254 16.5033C8.20227 16.5018 8.21223 16.503 8.22126 16.5069C11.0025 17.7761 14.0149 17.7761 16.7643 16.5069C16.7731 16.5026 16.7829 16.5009 16.7926 16.5019C16.8023 16.503 16.8116 16.5067 16.8193 16.5127C16.9031 16.5821 16.9927 16.6544 17.0823 16.7209C17.0892 16.7264 17.0946 16.7335 17.0982 16.7415C17.1017 16.7496 17.1033 16.7584 17.1027 16.7672C17.1021 16.776 17.0995 16.7845 17.0949 16.792C17.0904 16.7996 17.0841 16.8059 17.0766 16.8105C16.6528 17.0576 16.2088 17.2684 15.7496 17.4407C15.7425 17.4436 15.7362 17.4478 15.7309 17.4532C15.7256 17.4585 15.7214 17.465 15.7187 17.472C15.716 17.4791 15.7148 17.4866 15.7151 17.4942C15.7154 17.5017 15.7173 17.5091 15.7207 17.5159C15.9749 18.0068 16.2648 18.4783 16.588 18.9267C16.5947 18.936 16.6042 18.943 16.6151 18.9466C16.626 18.9503 16.6377 18.9504 16.6487 18.947C18.1788 18.4804 19.6181 17.7559 20.9043 16.8047C20.9109 16.8001 20.9164 16.794 20.9204 16.7871C20.9244 16.7801 20.9268 16.7723 20.9274 16.7642C21.2801 13.1013 20.3319 9.91823 18.4122 7.09367ZM9.68125 14.8359C8.84284 14.8359 8.15477 14.0669 8.15477 13.1244C8.15477 12.1819 8.83128 11.41 9.68125 11.41C10.5399 11.41 11.2222 12.1848 11.2077 13.1215C11.2077 14.0669 10.5312 14.8359 9.68125 14.8359ZM15.3304 14.8359C14.492 14.8359 13.8039 14.0669 13.8039 13.1244C13.8039 12.1819 14.4775 11.41 15.3304 11.41C16.189 11.41 16.8713 12.1848 16.8568 13.1215C16.8568 14.0669 16.1861 14.8359 15.3304 14.8359Z" fill="black" fill-opacity="0.9"/>
</svg>
