<svg width="24" height="24" viewBox="0 0 24 24" fill="none" xmlns="http://www.w3.org/2000/svg">
<path d="M4 4V20H20V4H4ZM12.7071 16.4786C12.7071 18.0357 11.7929 18.7464 10.4607 18.7464C9.25714 18.7464 8.56071 18.125 8.20357 17.3714L9.42857 16.6321C9.66429 17.05 9.87857 17.4036 10.3964 17.4036C10.8893 17.4036 11.2036 17.2107 11.2036 16.4571V11.3464H12.7071V16.4786ZM16.2643 18.7464C14.8679 18.7464 13.9643 18.0821 13.525 17.2107L14.75 16.5036C15.0714 17.0286 15.4929 17.4179 16.2321 17.4179C16.8536 17.4179 17.2536 17.1071 17.2536 16.675C17.2536 16.1607 16.8464 15.9786 16.1571 15.675L15.7821 15.5143C14.6964 15.0536 13.9786 14.4714 13.9786 13.2464C13.9786 12.1179 14.8393 11.2607 16.1786 11.2607C17.1357 11.2607 17.8214 11.5929 18.3143 12.4643L17.1429 13.2143C16.8857 12.7536 16.6071 12.5714 16.175 12.5714C15.7357 12.5714 15.4571 12.85 15.4571 13.2143C15.4571 13.6643 15.7357 13.8464 16.3821 14.1286L16.7571 14.2893C18.0357 14.8357 18.7536 15.3964 18.7536 16.6536C18.7536 18.0036 17.6893 18.7464 16.2643 18.7464Z" fill="black" fill-opacity="0.9"/>
</svg>
