<svg width="359" height="96" viewBox="0 0 359 96" fill="none" xmlns="http://www.w3.org/2000/svg">
<g clip-path="url(#clip0_1028_1579)">
<path d="M87.1574 56.2941L19.7148 15.333L20.4173 24.8116L6.04248 40.7588L66.4328 83.0374L73.8093 68.481L81.1857 65.7729L87.1574 56.2941Z" fill="#FAFAFA"/>
<path d="M92.6044 29.2559L0.322754 47.6942L3.02698 53.84L3.65995 65.7482L96.3228 47.6942L89.9004 42.7004L92.6044 29.2559Z" fill="#FAFAFA"/>
<path d="M8.12329 76.9435L50.0046 4.5L52.774 9.48233L61.1507 10.9319L70.2698 15.6712L28.0507 91.4999L18.9314 85.0679L15.5539 78.6363L8.12329 76.9435Z" fill="#FAFAFA"/>
<path d="M358.723 22.9607H317.817V44.4229H354.354V51.4802H317.817V73.0391H358.723V80H310.37V16H358.723V22.9607Z" fill="#FAFAFA"/>
<path fill-rule="evenodd" clip-rule="evenodd" d="M273.321 16H285.113H292.559H304.351V23.5294H292.559V72.4704H304.351V80H292.559H285.113H273.321V72.4704H285.113V23.5294H273.321V16Z" fill="#FAFAFA"/>
<path d="M225.931 57.1845V80H218.485V16H248.072C262.071 16 270.71 24.0242 270.71 36.5921C270.71 49.2567 262.071 57.1845 248.072 57.1845H225.931ZM247.576 22.864H225.931V50.4169H247.576C257.901 50.4169 263.263 45.1964 263.263 36.5921C263.263 28.0846 257.901 22.864 247.576 22.864Z" fill="#FAFAFA"/>
<path d="M185.71 16L213.609 80H205.368L197.326 61.4382H164.76L156.718 80H148.477L176.377 16H185.71ZM167.64 54.7675H194.447L181.043 23.5408L167.64 54.7675Z" fill="#FAFAFA"/>
<path d="M156.039 16V22.9607H133.104V80H125.658V22.9607H102.723V16H156.039Z" fill="#FAFAFA"/>
</g>
<defs>
<clipPath id="clip0_1028_1579">
<rect width="358.4" height="96" fill="white" transform="translate(0.322754)"/>
</clipPath>
</defs>
</svg>
