<svg width="359" height="96" viewBox="0 0 359 96" fill="none" xmlns="http://www.w3.org/2000/svg">
<g clip-path="url(#clip0_1028_1560)">
<path d="M87.0402 56.2941L19.5976 15.333L20.3002 24.8116L5.92529 40.7588L66.3156 83.0374L73.6921 68.481L81.0686 65.7729L87.0402 56.2941Z" fill="#050505"/>
<path d="M92.4872 29.2559L0.205566 47.6942L2.90979 53.84L3.54276 65.7482L96.2056 47.6942L89.7832 42.7004L92.4872 29.2559Z" fill="#050505"/>
<path d="M8.0061 76.9435L49.8874 4.5L52.6568 9.48233L61.0335 10.9319L70.1526 15.6712L27.9335 91.4999L18.8142 85.0679L15.4367 78.6363L8.0061 76.9435Z" fill="#050505"/>
<path d="M358.606 22.9607H317.7V44.4229H354.237V51.4802H317.7V73.0391H358.606V80H310.253V16H358.606V22.9607Z" fill="#050505"/>
<path fill-rule="evenodd" clip-rule="evenodd" d="M273.204 16H284.996H292.442H304.234V23.5294H292.442V72.4704H304.234V80H292.442H284.996H273.204V72.4704H284.996V23.5294H273.204V16Z" fill="#050505"/>
<path d="M225.814 57.1845V80H218.367V16H247.955C261.954 16 270.592 24.0242 270.592 36.5921C270.592 49.2567 261.954 57.1845 247.955 57.1845H225.814ZM247.459 22.864H225.814V50.4169H247.459C257.784 50.4169 263.146 45.1964 263.146 36.5921C263.146 28.0846 257.784 22.864 247.459 22.864Z" fill="#050505"/>
<path d="M185.593 16L213.492 80H205.251L197.209 61.4382H164.643L156.601 80H148.36L176.26 16H185.593ZM167.523 54.7675H194.33L180.926 23.5408L167.523 54.7675Z" fill="#050505"/>
<path d="M155.922 16V22.9607H132.987V80H125.541V22.9607H102.605V16H155.922Z" fill="#050505"/>
</g>
<defs>
<clipPath id="clip0_1028_1560">
<rect width="358.4" height="96" fill="white" transform="translate(0.205566)"/>
</clipPath>
</defs>
</svg>
