<svg width="24" height="24" viewBox="0 0 24 24" fill="none" xmlns="http://www.w3.org/2000/svg">
<path d="M5.49219 6.36797C5.49219 4.5082 7.00039 3 8.86016 3H14.6398C16.4996 3 18.0078 4.5082 18.0078 6.36797C18.0078 7.5457 17.4031 8.58281 16.4855 9.18398C17.4031 9.78516 18.0078 10.8223 18.0078 12C18.0078 13.8598 16.4996 15.368 14.6398 15.368H14.566C13.6941 15.368 12.8996 15.0375 12.302 14.4926V17.5969C12.302 19.4813 10.7551 21 8.87773 21C7.02148 21 5.49219 19.4953 5.49219 17.632C5.49219 16.4543 6.09688 15.4172 7.01094 14.816C6.09688 14.2148 5.49219 13.1777 5.49219 12C5.49219 10.8223 6.09688 9.78516 7.01094 9.18398C6.09688 8.58281 5.49219 7.5457 5.49219 6.36797ZM11.198 9.73594H8.86016C7.60859 9.73594 6.59609 10.7484 6.59609 12C6.59609 13.2445 7.60156 14.257 8.84609 14.2641C8.84961 14.2641 8.85664 14.2641 8.86016 14.2641H11.198V9.73594ZM12.302 12C12.302 13.2516 13.3145 14.2641 14.566 14.2641H14.6398C15.8879 14.2641 16.9039 13.2516 16.9039 12C16.9039 10.7484 15.8879 9.73594 14.6398 9.73594H14.566C13.3145 9.73594 12.302 10.7484 12.302 12ZM8.86016 15.368C8.85664 15.368 8.84961 15.368 8.84609 15.368C7.60156 15.375 6.59609 16.3875 6.59609 17.632C6.59609 18.8801 7.62266 19.8961 8.87773 19.8961C10.1539 19.8961 11.198 18.8625 11.198 17.5969V15.368H8.86016ZM8.86016 4.10391C7.60859 4.10391 6.59609 5.11641 6.59609 6.36797C6.59609 7.61953 7.60859 8.63203 8.86016 8.63203H11.198V4.10391H8.86016ZM12.302 8.63203H14.6398C15.8879 8.63203 16.9039 7.61953 16.9039 6.36797C16.9039 5.11641 15.8879 4.10391 14.6398 4.10391H12.302V8.63203Z" fill="black" fill-opacity="0.9"/>
</svg>
