<svg width="24" height="24" viewBox="0 0 24 24" fill="none" xmlns="http://www.w3.org/2000/svg">
<path d="M19.75 4.25V9.75H18.25V6.82875L13.698 11.3463C14.0212 11.8193 14.2773 12.3203 14.4663 12.8495C14.6554 13.3787 14.75 13.9288 14.75 14.5C14.75 15.9637 14.241 17.2046 13.223 18.2228C12.205 19.2409 10.9643 19.75 9.50075 19.75C8.03742 19.75 6.7965 19.241 5.778 18.223C4.75933 17.205 4.25 15.9643 4.25 14.5008C4.25 13.0374 4.75908 11.7965 5.77725 10.778C6.79542 9.75933 8.03633 9.25 9.5 9.25C10.0628 9.25 10.6093 9.342 11.1395 9.526C11.6695 9.71 12.1659 9.96867 12.6287 10.302L17.1807 5.75H14.25V4.25H19.75ZM9.4985 10.75C8.46233 10.75 7.5785 11.1163 6.847 11.8488C6.11567 12.5811 5.75 13.4653 5.75 14.5015C5.75 15.5377 6.11625 16.4215 6.84875 17.153C7.58108 17.8843 8.46533 18.25 9.5015 18.25C10.5377 18.25 11.4215 17.8837 12.153 17.1512C12.8843 16.4189 13.25 15.5347 13.25 14.4985C13.25 13.4623 12.8837 12.5785 12.1512 11.847C11.4189 11.1157 10.5347 10.75 9.4985 10.75Z" fill="black" fill-opacity="0.9"/>
</svg>
