<svg width="24" height="24" viewBox="0 0 24 24" fill="none" xmlns="http://www.w3.org/2000/svg">
<path d="M11.9238 4.45C13.6858 4.45 15.3481 4.82917 16.9108 5.5875C18.4733 6.34583 19.7764 7.4385 20.8201 8.8655C20.9239 8.99617 20.9566 9.11508 20.9181 9.22225C20.8795 9.32925 20.8136 9.418 20.7201 9.4885C20.6264 9.559 20.521 9.59042 20.4041 9.58275C20.2871 9.57525 20.1846 9.5105 20.0968 9.3885C19.1673 8.07567 17.9786 7.07183 16.5308 6.377C15.0831 5.68217 13.5475 5.33475 11.9238 5.33475C10.3071 5.33475 8.7873 5.68533 7.3643 6.3865C5.94113 7.08783 4.75972 8.0885 3.82005 9.3885C3.72638 9.52567 3.6193 9.59942 3.4988 9.60975C3.3783 9.61992 3.27122 9.58658 3.17755 9.50975C3.08338 9.43925 3.02622 9.35108 3.00605 9.24525C2.98588 9.13942 3.01613 9.0295 3.0968 8.9155C4.13663 7.51167 5.42955 6.4165 6.97555 5.63C8.52172 4.84333 10.1711 4.45 11.9238 4.45ZM11.9243 6.8C14.1611 6.8 16.083 7.54542 17.6901 9.03625C19.2972 10.5271 20.1008 12.374 20.1008 14.577C20.1008 15.3967 19.8105 16.0811 19.23 16.6303C18.6495 17.1794 17.9424 17.454 17.1086 17.454C16.2777 17.454 15.563 17.1794 14.9643 16.6303C14.3655 16.0811 14.0661 15.3967 14.0661 14.577C14.0661 14.0142 13.8572 13.5388 13.4396 13.151C13.0217 12.7632 12.5229 12.5693 11.9431 12.5693C11.3581 12.5693 10.8547 12.7623 10.4331 13.1485C10.0116 13.5345 9.8008 14.0107 9.8008 14.577C9.8008 16.2128 10.2864 17.5788 11.2576 18.675C12.2287 19.7712 13.4726 20.5359 14.9893 20.9693C15.1235 21.0133 15.2147 21.0866 15.2631 21.1893C15.3112 21.2919 15.3186 21.4019 15.2853 21.5193C15.252 21.6219 15.1917 21.7117 15.1046 21.7885C15.0174 21.8655 14.9021 21.8873 14.7586 21.854C13.0507 21.4207 11.6501 20.5628 10.5566 19.2805C9.46288 17.998 8.91605 16.4302 8.91605 14.577C8.91605 13.7565 9.21288 13.0693 9.80655 12.5155C10.4001 11.9617 11.1125 11.6848 11.9438 11.6848C12.775 11.6848 13.4839 11.9617 14.0705 12.5155C14.6574 13.0693 14.9508 13.7565 14.9508 14.577C14.9508 15.1433 15.1646 15.6195 15.5921 16.0055C16.0196 16.3917 16.524 16.5848 17.1055 16.5848C17.6869 16.5848 18.184 16.3908 18.5968 16.003C19.0096 15.6152 19.216 15.1398 19.216 14.577C19.216 12.6273 18.5004 10.9887 17.069 9.661C15.6375 8.33317 13.9282 7.66925 11.9411 7.66925C9.95388 7.66925 8.24722 8.33408 6.82105 9.66375C5.39472 10.9934 4.68155 12.626 4.68155 14.5615C4.68155 14.9648 4.72388 15.4689 4.80855 16.0738C4.89305 16.6784 5.0738 17.3807 5.3508 18.1807C5.3943 18.3116 5.39172 18.4273 5.34305 18.528C5.29438 18.6287 5.2098 18.704 5.0893 18.754C4.9688 18.804 4.85405 18.8028 4.74505 18.7505C4.63605 18.698 4.55972 18.612 4.51605 18.4925C4.25972 17.8232 4.0758 17.1709 3.9643 16.5358C3.85263 15.9004 3.7968 15.2475 3.7968 14.577C3.7968 12.374 4.5963 10.5271 6.1953 9.03625C7.7943 7.54542 9.70397 6.8 11.9243 6.8ZM11.9431 2C13.0012 2 14.0346 2.12917 15.0433 2.3875C16.052 2.64583 17.0276 3.01667 17.97 3.5C18.1136 3.577 18.1962 3.669 18.2181 3.776C18.2399 3.883 18.229 3.9885 18.1853 4.0925C18.1418 4.19633 18.0665 4.27517 17.9593 4.329C17.8523 4.38283 17.7315 4.3745 17.5968 4.304C16.72 3.83467 15.806 3.48083 14.8548 3.2425C13.9036 3.004 12.9315 2.88475 11.9383 2.88475C10.962 2.88475 10.004 3.00367 9.0643 3.2415C8.12447 3.47933 7.21997 3.8335 6.3508 4.304C6.24947 4.368 6.14013 4.38242 6.0228 4.34725C5.90547 4.31192 5.81988 4.23725 5.76605 4.12325C5.71222 4.00908 5.69722 3.90267 5.72105 3.804C5.74472 3.70517 5.81355 3.6205 5.92755 3.55C6.85455 3.04367 7.82638 2.65875 8.84305 2.39525C9.85972 2.13175 10.8931 2 11.9431 2ZM11.9436 9.23475C13.4804 9.23475 14.7991 9.74917 15.8998 10.778C17.0005 11.8068 17.5508 13.0732 17.5508 14.577C17.5508 14.7097 17.5102 14.8166 17.429 14.8978C17.3481 14.9788 17.2412 15.0193 17.1086 15.0193C16.9944 15.0193 16.8921 14.9788 16.8018 14.8978C16.7113 14.8166 16.666 14.7097 16.666 14.577C16.666 13.3142 16.1989 12.2555 15.2646 11.401C14.3301 10.5465 13.223 10.1193 11.9433 10.1193C10.6636 10.1193 9.56163 10.5465 8.6373 11.401C7.71297 12.2555 7.2508 13.3139 7.2508 14.5763C7.2508 15.9396 7.4873 17.0937 7.9603 18.0385C8.43347 18.9833 9.12005 19.9366 10.0201 20.8983C10.12 20.9994 10.1652 21.1087 10.1556 21.226C10.1459 21.3433 10.1007 21.4424 10.0201 21.5233C9.93288 21.6104 9.83063 21.6556 9.7133 21.6588C9.59597 21.6619 9.49047 21.6168 9.3968 21.5233C8.4328 20.5028 7.68672 19.4533 7.15855 18.375C6.63022 17.2968 6.36605 16.0308 6.36605 14.5768C6.36605 13.0731 6.91138 11.8068 8.00205 10.778C9.09288 9.74917 10.4067 9.23475 11.9436 9.23475ZM11.9066 14.1348C12.0386 14.1348 12.1456 14.179 12.2276 14.2675C12.3097 14.3558 12.3508 14.459 12.3508 14.577C12.3508 15.8467 12.8056 16.8878 13.7151 17.7005C14.6247 18.513 15.6892 18.9193 16.9085 18.9193C17.0405 18.9193 17.1982 18.9109 17.3815 18.8943C17.5649 18.8776 17.7533 18.8526 17.9468 18.8193C18.0713 18.7924 18.1781 18.8101 18.2671 18.8723C18.3562 18.9344 18.4175 19.0315 18.4508 19.1635C18.4841 19.281 18.4623 19.3838 18.3853 19.4718C18.3085 19.5599 18.2098 19.6207 18.0893 19.654C17.847 19.718 17.6165 19.759 17.3978 19.777C17.1793 19.795 17.0162 19.804 16.9085 19.804C15.4444 19.804 14.1713 19.3085 13.0893 18.3175C12.0071 17.3267 11.4661 16.0798 11.4661 14.577C11.4661 14.459 11.5065 14.3558 11.5873 14.2675C11.668 14.179 11.7744 14.1348 11.9066 14.1348Z" fill="black" fill-opacity="0.9"/>
</svg>
