<svg width="24" height="24" viewBox="0 0 24 24" fill="none" xmlns="http://www.w3.org/2000/svg">
<path d="M6.096 20.6418C5.52383 20.6418 4.95808 20.5161 4.39875 20.2648C3.83925 20.0134 3.373 19.6775 3 19.257C3.382 19.148 3.7435 18.9163 4.0845 18.5618C4.4255 18.2074 4.596 17.7341 4.596 17.1418C4.596 16.4429 4.838 15.8516 5.322 15.3678C5.806 14.8838 6.39733 14.6418 7.096 14.6418C7.79483 14.6418 8.38617 14.8838 8.87 15.3678C9.354 15.8516 9.596 16.4429 9.596 17.1418C9.596 18.1043 9.25333 18.9282 8.568 19.6135C7.8825 20.299 7.0585 20.6418 6.096 20.6418ZM6.096 19.1418C6.646 19.1418 7.11683 18.9459 7.5085 18.5543C7.90017 18.1626 8.096 17.6918 8.096 17.1418C8.096 16.8584 8.00017 16.6209 7.8085 16.4293C7.61683 16.2376 7.37933 16.1418 7.096 16.1418C6.81267 16.1418 6.57517 16.2376 6.3835 16.4293C6.19183 16.6209 6.096 16.8584 6.096 17.1418C6.096 17.5251 6.05017 17.8751 5.9585 18.1918C5.86683 18.5084 5.746 18.8084 5.596 19.0918C5.67933 19.1251 5.76267 19.1418 5.846 19.1418H6.096ZM11.4038 15.084L9.173 12.8533L17.7383 4.288C17.9216 4.10467 18.1508 4.00883 18.4258 4.0005C18.7008 3.99217 18.9383 4.088 19.1383 4.288L19.969 5.11875C20.169 5.31875 20.269 5.55208 20.269 5.81875C20.269 6.08542 20.169 6.31875 19.969 6.51875L11.4038 15.084Z" fill="black" fill-opacity="0.9"/>
</svg>
