<svg width="24" height="24" viewBox="0 0 24 24" fill="none" xmlns="http://www.w3.org/2000/svg">
<path d="M11.25 20.75V18.75H9.25V17.25H11.25V14.6885C9.9525 14.5 8.87817 13.9125 8.027 12.926C7.17567 11.9395 6.75 10.7873 6.75 9.46925C6.75 8.01675 7.26183 6.78375 8.2855 5.77025C9.30933 4.75675 10.5475 4.25 12 4.25C13.4525 4.25 14.6907 4.75675 15.7145 5.77025C16.7382 6.78375 17.25 8.01675 17.25 9.46925C17.25 10.7873 16.8243 11.9395 15.973 12.926C15.1218 13.9125 14.0475 14.5 12.75 14.6885V17.25H14.75V18.75H12.75V20.75H11.25ZM12.0015 13.25C13.0377 13.25 13.9215 12.8837 14.653 12.1512C15.3843 11.4189 15.75 10.5347 15.75 9.4985C15.75 8.46233 15.3837 7.5785 14.6512 6.847C13.9189 6.11567 13.0347 5.75 11.9985 5.75C10.9623 5.75 10.0785 6.11625 9.347 6.84875C8.61567 7.58108 8.25 8.46533 8.25 9.5015C8.25 10.5377 8.61625 11.4215 9.34875 12.153C10.0811 12.8843 10.9653 13.25 12.0015 13.25Z" fill="black" fill-opacity="0.9"/>
</svg>
