<svg width="24" height="24" viewBox="0 0 24 24" fill="none" xmlns="http://www.w3.org/2000/svg">
<path d="M15.7508 4C15.0415 4 14.4274 4.19158 14.0021 4.38043C13.585 4.24049 12.8934 4.00136 12.0633 4.17391C11.5796 4.25815 11.1353 4.45788 10.7277 4.76359C10.0565 4.44022 9.3554 4.24185 8.62035 4.20924C8.1679 4.17391 6.32415 4.38315 5.66247 5.35598C5.41926 5.73913 5.17606 6.22554 5.07144 6.81658C4.96682 7.33832 4.96682 7.93071 5.14073 9.1481C5.24535 9.98234 5.38529 10.5394 5.69779 11.6861C5.73312 11.7908 5.90703 12.3478 6.42877 13.8791C6.53203 14.1562 6.74127 14.678 7.15839 15.1644C7.43692 15.5122 7.71546 15.7215 8.06328 15.7215C8.51573 15.7215 8.82823 15.409 9.10676 15.0611C9.12714 15.038 9.14888 15.0122 9.16926 14.9891C9.14345 15.0299 9.12035 15.0747 9.10676 15.1304C9.03747 15.4783 9.45459 15.7568 9.80241 15.8954C10.0809 16.034 10.3934 16.0693 10.6367 16.0693C10.9492 16.0693 11.1937 16 11.3323 15.966C11.4519 15.9253 11.71 15.8139 11.9858 15.6304C11.9981 16.519 12.0062 17.5679 12.028 17.8084C12.1326 18.7133 12.3758 19.3383 12.8282 19.6861C13.1761 19.9647 13.8024 20 13.8377 20C14.4627 20 15.4369 19.5829 15.854 18.9226C16.0633 18.6087 16.1326 18.3302 16.2019 17.947C16.2712 17.7391 16.3405 16.5217 16.3758 16.2785C16.4233 15.894 16.46 15.5149 16.4967 15.1467C16.7263 15.2065 17.0089 15.2704 17.316 15.2704C17.8717 15.2704 18.6027 14.8872 18.7413 14.8166C19.0198 14.6087 19.5755 14.1223 19.3323 13.7052C19.1937 13.4606 18.9845 13.4606 18.4627 13.5312C18.4627 13.5312 17.6285 13.6345 17.5578 13.5992C17.5076 13.5802 17.4301 13.5312 17.3432 13.4674C17.5239 13.1875 17.6842 12.9103 17.8717 12.6617C18.2888 11.8614 18.5334 11.2351 18.7073 10.7486C19.0198 9.87908 19.1937 9.18207 19.297 8.69565C19.5415 7.65217 19.6108 7.16576 19.4709 6.6087C19.1937 5.63451 18.1842 4.80027 17.7671 4.55707C17.4886 4.41712 16.7943 4 15.7508 4ZM15.7508 4.69565C16.6203 4.69565 17.2114 5.04348 17.5239 5.18207C17.907 5.3913 18.7766 6.08696 18.8459 6.74728C18.8812 7.13043 18.9152 7.51359 18.672 8.52174C18.5334 9.00815 18.3934 9.63451 18.0796 10.5041C17.9057 10.9905 17.6978 11.5829 17.2807 12.3139C17.2698 12.3315 17.2576 12.3505 17.2467 12.3696C17.2875 12.2228 17.316 12.1046 17.316 12.1046C17.3853 11.7568 17.3853 11.4783 17.35 11.0611C17.3146 10.8519 17.2807 10.3302 17.2807 10.1209C17.2807 10.0177 17.3839 8.93886 17.4193 8.55571C17.4546 7.93071 17.0714 7.1644 16.9682 7.02582C16.4464 6.22554 16.1679 5.77446 15.6108 5.32201C15.4722 5.2038 15.2345 5.00679 14.9111 4.80842C15.1665 4.74592 15.4492 4.69565 15.7508 4.69565ZM12.6774 4.83832C13.1312 4.84918 13.5157 4.97418 13.8024 5.0788C14.5334 5.32201 14.9845 5.7038 15.1937 5.87772C15.6462 6.26087 15.8894 6.64402 16.4111 7.44429C16.4492 7.52038 16.5483 7.68207 16.6271 7.90761C15.9152 7.84239 15.4424 8.09239 15.1584 8.34783C14.7413 8.69565 14.7752 9.21739 14.8106 9.59918C14.8106 9.87772 14.8812 10.2269 15.403 11.409C15.6108 11.9307 15.8187 12.4864 16.028 12.8696C16.1367 13.0856 16.2698 13.284 16.4125 13.4606C16.3296 13.5027 16.2453 13.5571 16.1665 13.6345C15.9587 13.8777 15.9233 14.1223 15.854 14.5747C15.7847 14.9226 15.7155 15.6522 15.6801 16.2432C15.6801 16.4864 15.5769 17.6698 15.5415 17.8438C15.4369 18.1916 15.4016 18.3655 15.263 18.5747C15.0198 18.9565 14.2549 19.2704 13.8024 19.2351C13.6638 19.2351 13.4546 19.2351 13.2807 19.0965C12.8975 18.8179 12.7589 18.1916 12.7236 17.7052C12.6883 17.3573 12.7236 14.8519 12.6543 14.2948C12.619 14.1562 12.585 13.8084 12.3065 13.5652C12.1896 13.4674 11.9478 13.4171 11.7195 13.3832C11.7223 13.2663 11.729 13.1495 11.7508 13.0435C11.7848 12.8342 11.854 12.7296 11.9247 12.5557C11.9587 12.4524 12.028 12.3139 12.0986 12.1399C12.4111 11.1658 12.3405 9.87772 12.1665 9.07745C12.1326 9.00815 11.9926 8.45245 11.5062 8.13995C10.9845 7.82609 10.4274 8 10.1149 8.10462C9.98584 8.13995 9.85812 8.19565 9.7304 8.26087C9.75214 8.11549 9.77116 7.96875 9.80241 7.82609C9.941 7.13043 10.0809 6.5394 10.5334 5.94837C11.0198 5.35598 11.5755 4.97418 12.2019 4.86957C12.3676 4.84375 12.5266 4.83424 12.6774 4.83832ZM8.38258 4.89946C8.4641 4.8981 8.53339 4.89946 8.58502 4.90489C9.1285 4.93342 9.64888 5.06114 10.1652 5.27853C10.1013 5.34918 10.0375 5.41984 9.97633 5.49592C9.38529 6.19158 9.24535 6.9212 9.10676 7.65217C8.93285 8.52174 8.89752 9.42527 9.03611 10.3302L8.96817 10.9905C8.93285 11.3383 8.8622 12 9.24535 12.6957C9.37986 12.9266 9.52796 13.1223 9.691 13.2894C9.33774 13.7568 8.96274 14.1984 8.58502 14.6087C8.37578 14.8519 8.20187 15.0258 8.06328 15.0258C8.02796 15.0258 7.88937 14.9565 7.68013 14.7133C7.29698 14.2962 7.15839 13.8438 7.0891 13.6698C6.67198 12.4171 6.42877 11.6168 6.39345 11.5122C6.11491 10.3995 5.97633 9.84375 5.83638 9.04348C5.66247 7.93071 5.66247 7.37364 5.76709 6.92255C5.87171 6.43478 6.04562 6.05163 6.21953 5.77446C6.64616 5.10462 7.81736 4.9144 8.38258 4.89946ZM16.3636 8.56522C16.475 8.56522 16.5959 8.5788 16.7236 8.60598C16.7195 8.93071 16.585 9.94973 16.585 10.087C16.585 10.3655 16.6543 10.9212 16.6543 11.1304C16.6896 11.5136 16.6896 11.7215 16.6543 12C16.6543 12 16.6027 12.2486 16.5497 12.4253C16.388 12.0598 16.2087 11.6236 15.9926 11.1304C15.4709 9.94837 15.4369 9.70516 15.4369 9.53125C15.4369 9.28668 15.4369 8.97418 15.6448 8.8356C15.8405 8.66168 16.0782 8.56793 16.3636 8.56522ZM10.9641 8.66712C11.0334 8.67527 11.0973 8.69565 11.1584 8.72962C11.4369 8.86957 11.5062 9.21739 11.5062 9.21739C11.6801 9.98234 11.7494 11.1304 11.4709 11.8954C11.4369 12.034 11.3676 12.1386 11.3323 12.2432C11.263 12.4171 11.1937 12.591 11.1231 12.9035C11.1054 13.0326 11.0973 13.1603 11.0932 13.288C10.8527 13.2378 10.6258 13.1522 10.4627 13.0435C10.1842 12.9049 9.97633 12.6603 9.83774 12.3818C9.59317 11.8601 9.6285 11.3736 9.66383 11.0965L9.73176 10.2948C9.68285 9.90353 9.65975 9.51087 9.66519 9.12092C9.82551 8.9837 10.0348 8.84375 10.3242 8.76495C10.5334 8.71332 10.7617 8.6413 10.9641 8.66712ZM16.0932 8.90082C16.0021 8.90489 15.9057 8.9212 15.854 8.93886C15.7155 8.97418 15.6801 8.97418 15.6448 9.04348C15.6108 9.11277 15.7155 9.21739 15.7508 9.28668C15.7847 9.28668 15.8894 9.3913 16.028 9.35734C16.1326 9.32201 16.2019 9.25272 16.2372 9.21739C16.2725 9.18207 16.4111 9.00815 16.3065 8.93886C16.2712 8.90353 16.1842 8.89538 16.0932 8.90082ZM10.8853 9.15353C10.8473 9.15625 10.8106 9.16576 10.7752 9.18342C10.7413 9.18342 10.672 9.21739 10.6367 9.28668C10.6013 9.35598 10.6367 9.42527 10.672 9.4606C10.7413 9.56522 10.8459 9.66984 11.0198 9.66984C11.0551 9.66984 11.1937 9.66984 11.297 9.56522C11.297 9.56522 11.403 9.4606 11.403 9.35734C11.3676 9.28668 11.2983 9.25272 11.1937 9.21739C11.1149 9.19158 10.9981 9.14538 10.8853 9.15353ZM10.2453 13.7052C10.4587 13.8193 10.7155 13.9117 10.9967 13.9755C10.922 14.125 10.8146 14.2486 10.7073 14.3302C10.4627 14.5041 10.1502 14.6087 9.83774 14.678C9.76709 14.678 9.73312 14.7133 9.66383 14.7133C9.49535 14.7609 9.33231 14.8139 9.22089 14.9293C9.56192 14.5503 9.90432 14.1318 10.2453 13.7052ZM16.9519 13.9837C17.104 14.0978 17.2535 14.1821 17.3839 14.2269C17.5932 14.2962 17.7671 14.2962 18.3934 14.2269C18.2888 14.3302 17.9763 14.5041 17.5239 14.5747C17.2331 14.6033 16.8717 14.534 16.5782 14.4497C16.6054 14.2527 16.6367 14.1399 16.6883 14.087C16.7073 14.0693 16.8228 14.034 16.9519 13.9837ZM11.7141 14.0883C11.7861 14.1005 11.8432 14.1101 11.854 14.1209C11.9233 14.1916 11.9587 14.3655 11.9587 14.4348C11.9627 14.4946 11.9655 14.6454 11.9682 14.75C11.6815 15.0856 11.2209 15.2717 11.1231 15.3043C10.9845 15.3736 10.5674 15.4429 10.1502 15.3043C10.4981 15.1997 10.8459 15.0965 11.1231 14.8872C11.3663 14.7133 11.5755 14.4361 11.7141 14.0883Z" fill="black" fill-opacity="0.9"/>
</svg>
