<svg width="24" height="24" viewBox="0 0 24 24" fill="none" xmlns="http://www.w3.org/2000/svg">
<path d="M11.25 18.75V5.25H12.75V18.75H11.25ZM1.25 15.75V15.377C1.25 15.0347 1.3455 14.7241 1.5365 14.4453C1.7275 14.1664 1.98908 13.9532 2.32125 13.8058C2.73525 13.6224 3.165 13.484 3.6105 13.3905C4.056 13.2968 4.51917 13.25 5 13.25C5.48083 13.25 5.944 13.2968 6.3895 13.3905C6.835 13.484 7.26475 13.6224 7.67875 13.8058C8.01092 13.9532 8.2725 14.1664 8.4635 14.4453C8.6545 14.7241 8.75 15.0347 8.75 15.377V15.75H1.25ZM15.25 15.75V15.377C15.25 15.0347 15.3455 14.7241 15.5365 14.4453C15.7275 14.1664 15.9891 13.9532 16.3212 13.8058C16.7352 13.6224 17.165 13.484 17.6105 13.3905C18.056 13.2968 18.5192 13.25 19 13.25C19.4808 13.25 19.944 13.2968 20.3895 13.3905C20.835 13.484 21.2648 13.6224 21.6788 13.8058C22.0109 13.9532 22.2725 14.1664 22.4635 14.4453C22.6545 14.7241 22.75 15.0347 22.75 15.377V15.75H15.25ZM5 11.75C4.51417 11.75 4.101 11.5798 3.7605 11.2395C3.42017 10.899 3.25 10.4858 3.25 10C3.25 9.51417 3.42017 9.101 3.7605 8.7605C4.101 8.42017 4.51417 8.25 5 8.25C5.48583 8.25 5.899 8.42017 6.2395 8.7605C6.57983 9.101 6.75 9.51417 6.75 10C6.75 10.4858 6.57983 10.899 6.2395 11.2395C5.899 11.5798 5.48583 11.75 5 11.75ZM19 11.75C18.5142 11.75 18.101 11.5798 17.7605 11.2395C17.4202 10.899 17.25 10.4858 17.25 10C17.25 9.51417 17.4202 9.101 17.7605 8.7605C18.101 8.42017 18.5142 8.25 19 8.25C19.4858 8.25 19.899 8.42017 20.2395 8.7605C20.5798 9.101 20.75 9.51417 20.75 10C20.75 10.4858 20.5798 10.899 20.2395 11.2395C19.899 11.5798 19.4858 11.75 19 11.75Z" fill="black" fill-opacity="0.9"/>
</svg>
