<svg width="24" height="24" viewBox="0 0 24 24" fill="none" xmlns="http://www.w3.org/2000/svg">
<path d="M14.0044 3.87573C14.0044 3.87573 15.7716 6.72207 16.3623 7.73368C16.3718 7.75016 16.3677 7.77193 16.3535 7.78613C16.3356 7.80404 16.3086 7.80598 16.2909 7.78806L13.2458 4.60341L14.0044 3.87573Z" fill="black" fill-opacity="0.9"/>
<path d="M8.79841 14.2478C9.31527 13.1543 10.0125 12.165 10.8753 11.3022C11.2034 10.9742 11.5498 10.6702 11.9132 10.391V12.6446L8.79841 14.2478ZM7 16.3291L11.9132 13.8279V19.5456L13.0203 21V13.2584L13.6928 12.9125C14.0026 12.7569 14.2931 12.5498 14.5516 12.2912C15.8323 11.0106 15.8526 8.94366 14.6084 7.64084L12.0702 4.99644C11.969 4.88829 11.9159 4.74671 11.9206 4.59788C11.9252 4.44809 11.9879 4.30894 12.0968 4.20627C12.3216 3.99496 12.6796 4.00919 12.8909 4.23372L13.2459 4.60371L14.0044 3.87587C13.1082 2.71363 12.0116 2.85956 11.3765 3.44099C11.0633 3.73576 10.8835 4.13494 10.8699 4.56496C10.8564 4.99563 11.0115 5.40531 11.3064 5.71864L11.3098 5.72234L13.8612 8.38014C14.7003 9.27313 14.6835 10.6775 13.8107 11.5503C13.6746 11.6863 13.5255 11.8016 13.3674 11.8962L13.0204 12.0747V8.46246C11.9589 9.00951 10.9908 9.71233 10.1374 10.566C9.07446 11.6287 8.2399 12.8667 7.65685 14.2452C7.3708 14.9214 7.15157 15.6176 7 16.3291Z" fill="black" fill-opacity="0.9"/>
</svg>
