<svg width="24" height="24" viewBox="0 0 24 24" fill="none" xmlns="http://www.w3.org/2000/svg">
<path d="M12.0015 20.7123C11.4362 20.7123 10.9583 20.5171 10.5678 20.1268C10.1775 19.7364 9.98229 19.2585 9.98229 18.693C9.98229 18.1277 10.1775 17.6499 10.5678 17.2595C10.9583 16.8692 11.4362 16.674 12.0015 16.674C12.5669 16.674 13.0448 16.8692 13.4353 17.2595C13.8256 17.6499 14.0208 18.1277 14.0208 18.693C14.0208 19.2585 13.8256 19.7364 13.4353 20.1268C13.0448 20.5171 12.5669 20.7123 12.0015 20.7123ZM6.35154 15.3508L4.79004 13.7585C5.71571 12.8329 6.79346 12.1034 8.02329 11.57C9.25329 11.0367 10.5799 10.77 12.003 10.77C13.4264 10.77 14.7525 11.0393 15.9813 11.5778C17.2101 12.1163 18.2874 12.8534 19.213 13.7893L17.6515 15.3508C16.9182 14.6174 16.0682 14.0424 15.1015 13.6258C14.1349 13.2091 13.1015 13.0008 12.0015 13.0008C10.9015 13.0008 9.86821 13.2091 8.90154 13.6258C7.93487 14.0424 7.08487 14.6174 6.35154 15.3508ZM2.10154 11.1008L0.540039 9.53927C2.00287 8.05594 3.71121 6.89027 5.66504 6.04227C7.61887 5.1941 9.73104 4.77002 12.0015 4.77002C14.272 4.77002 16.3842 5.1941 18.338 6.04227C20.2919 6.89027 22.0002 8.05594 23.463 9.53927L21.9015 11.1008C20.6182 9.81744 19.1307 8.81327 17.439 8.08827C15.7474 7.36327 13.9349 7.00077 12.0015 7.00077C10.0682 7.00077 8.25571 7.36327 6.56404 8.08827C4.87237 8.81327 3.38487 9.81744 2.10154 11.1008Z" fill="black" fill-opacity="0.9"/>
</svg>
