<svg width="24" height="24" viewBox="0 0 24 24" fill="none" xmlns="http://www.w3.org/2000/svg">
<path d="M14.2693 19.5V18H16.7402C17.0942 18 17.3927 17.8802 17.6355 17.6405C17.8785 17.4007 18 17.1102 18 16.7692V14.7115C18 14.1167 18.1769 13.5833 18.5308 13.1115C18.8846 12.6397 19.3455 12.3115 19.9135 12.127V11.873C19.3455 11.6885 18.8846 11.3603 18.5308 10.8885C18.1769 10.4167 18 9.88333 18 9.2885V7.23075C18 6.88975 17.8785 6.59933 17.6355 6.3595C17.3927 6.11983 17.0942 6 16.7402 6H14.2693V4.5H16.7402C17.5096 4.5 18.1618 4.766 18.697 5.298C19.2323 5.83017 19.5 6.47442 19.5 7.23075V9.2885C19.5 9.64233 19.6247 9.93917 19.874 10.179C20.1233 10.4187 20.4282 10.5385 20.7885 10.5385H21.5V13.4615H20.7885C20.4282 13.4615 20.1233 13.5813 19.874 13.821C19.6247 14.0608 19.5 14.3577 19.5 14.7115V16.7692C19.5 17.5256 19.2323 18.1698 18.697 18.702C18.1618 19.234 17.5096 19.5 16.7402 19.5H14.2693ZM7.25975 19.5C6.49692 19.5 5.84625 19.234 5.30775 18.702C4.76925 18.1698 4.5 17.5256 4.5 16.7692V14.7115C4.5 14.3577 4.37533 14.0608 4.126 13.821C3.87667 13.5813 3.57183 13.4615 3.2115 13.4615H2.5V10.5385H3.2115C3.57183 10.5385 3.87667 10.4187 4.126 10.179C4.37533 9.93917 4.5 9.64233 4.5 9.2885V7.23075C4.5 6.47442 4.76925 5.83017 5.30775 5.298C5.84625 4.766 6.49692 4.5 7.25975 4.5H9.74025V6H7.25975C6.91225 6 6.61542 6.11983 6.36925 6.3595C6.12308 6.59933 6 6.88975 6 7.23075V9.2885C6 9.88333 5.82467 10.4167 5.474 10.8885C5.12333 11.3603 4.66083 11.6885 4.0865 11.873V12.127C4.66083 12.3115 5.12333 12.6397 5.474 13.1115C5.82467 13.5833 6 14.1167 6 14.7115V16.7692C6 17.1102 6.12308 17.4007 6.36925 17.6405C6.61542 17.8802 6.91225 18 7.25975 18H9.74025V19.5H7.25975Z" fill="black" fill-opacity="0.9"/>
</svg>
