<svg width="24" height="24" viewBox="0 0 24 24" fill="none" xmlns="http://www.w3.org/2000/svg">
<path d="M20.6652 11.2002L12.8038 3.33878C12.5861 3.12182 12.2913 3 11.9839 3C11.6766 3 11.3817 3.12182 11.164 3.33878L9.52824 4.97055L11.5981 7.0404C12.6873 6.67466 13.7162 7.71561 13.3424 8.79676L15.3399 10.7943C16.7144 10.32 17.7996 12.0402 16.7667 13.0731C15.7016 14.1382 13.9453 12.9566 14.516 11.574L12.6511 9.7091V14.6084C13.6679 15.1108 13.5474 16.2924 13.0168 16.8189C12.8888 16.9475 12.7366 17.0495 12.569 17.1191C12.4014 17.1887 12.2217 17.2246 12.0402 17.2246C11.8587 17.2246 11.679 17.1887 11.5114 17.1191C11.3438 17.0495 11.1916 16.9475 11.0635 16.8189C10.3562 16.1116 10.6174 14.934 11.5177 14.5682V9.6247C10.6817 9.28307 10.529 8.39082 10.7701 7.81609L8.72843 5.77035L3.33878 11.16C3.12182 11.3777 3 11.6725 3 11.9799C3 12.2873 3.12182 12.5821 3.33878 12.7998L11.2002 20.6612C11.4179 20.8782 11.7127 21 12.0201 21C12.3275 21 12.6223 20.8782 12.84 20.6612L20.6652 12.836C20.8822 12.6183 21.004 12.3234 21.004 12.0161C21.004 11.7087 20.8822 11.4139 20.6652 11.1962V11.2002Z" fill="black" fill-opacity="0.9"/>
</svg>
