<svg width="24" height="24" viewBox="0 0 24 24" fill="none" xmlns="http://www.w3.org/2000/svg">
<path d="M5.45575 19.8943C4.54425 19.0224 3.82375 17.9965 3.29425 16.8165C2.76475 15.6363 2.5 14.3651 2.5 13.0027C2.5 11.6881 2.74933 10.4527 3.248 9.2965C3.74667 8.14033 4.42342 7.13467 5.27825 6.2795C6.13308 5.42433 7.13833 4.74725 8.294 4.24825C9.44967 3.74942 10.6844 3.5 11.9983 3.5C13.3123 3.5 14.5473 3.74942 15.7035 4.24825C16.8597 4.74708 17.8653 5.42408 18.7205 6.27925C19.5757 7.13442 20.2528 8.14 20.7518 9.296C21.2506 10.452 21.5 11.6872 21.5 13.0015C21.5 14.3633 21.2353 15.6372 20.7057 16.823C20.1763 18.009 19.4558 19.0328 18.5443 19.8943L17.5 18.8405C18.2667 18.1083 18.875 17.2389 19.325 16.2323C19.775 15.2256 20 14.1482 20 13C20 10.7667 19.225 8.875 17.675 7.325C16.125 5.775 14.2333 5 12 5C9.76667 5 7.875 5.775 6.325 7.325C4.775 8.875 4 10.7667 4 13C4 14.15 4.225 15.225 4.675 16.225C5.125 17.225 5.74167 18.0917 6.525 18.825L5.45575 19.8943ZM8.28075 17.0693C7.73592 16.5641 7.30292 15.9627 6.98175 15.2653C6.66058 14.5676 6.5 13.8125 6.5 13C6.5 11.4722 7.0345 10.1736 8.1035 9.10425C9.1725 8.03475 10.4706 7.5 11.9978 7.5C13.5249 7.5 14.8238 8.03508 15.8943 9.10525C16.9648 10.1754 17.5 11.4749 17.5 13.0037C17.5 13.8141 17.3394 14.5705 17.0182 15.273C16.6971 15.9757 16.2641 16.5744 15.7193 17.0693L14.65 16C15.0667 15.6167 15.3958 15.1667 15.6375 14.65C15.8792 14.1333 16 13.5833 16 13C16 11.9 15.6083 10.9583 14.825 10.175C14.0417 9.39167 13.1 9 12 9C10.9 9 9.95833 9.39167 9.175 10.175C8.39167 10.9583 8 11.9 8 13C8 13.6 8.12083 14.1542 8.3625 14.6625C8.60417 15.1708 8.93333 15.6167 9.35 16L8.28075 17.0693ZM12 14.5C11.591 14.5 11.2388 14.3523 10.9433 14.0568C10.6478 13.7612 10.5 13.409 10.5 13C10.5 12.591 10.6478 12.2388 10.9433 11.9433C11.2388 11.6478 11.591 11.5 12 11.5C12.409 11.5 12.7613 11.6478 13.0568 11.9433C13.3523 12.2388 13.5 12.591 13.5 13C13.5 13.409 13.3523 13.7612 13.0568 14.0568C12.7613 14.3523 12.409 14.5 12 14.5Z" fill="black" fill-opacity="0.9"/>
</svg>
