<svg width="24" height="24" viewBox="0 0 24 24" fill="none" xmlns="http://www.w3.org/2000/svg">
<path fill-rule="evenodd" clip-rule="evenodd" d="M13.8159 4.03651L4.96271 4.69042C4.24848 4.75218 4 5.2189 4 5.77825V15.4837C4 15.9194 4.15472 16.2922 4.52799 16.7904L6.60909 19.4965C6.951 19.9322 7.26188 20.0256 7.91467 19.9946L18.1957 19.3722C19.0649 19.3102 19.3141 18.9055 19.3141 18.2213V7.30255C19.3141 6.94896 19.1744 6.84704 18.7632 6.54528L15.8666 4.50306C15.1829 4.00595 14.9034 3.94307 13.8159 4.03635V4.03651ZM8.14715 7.12383C7.30764 7.18031 7.11724 7.19311 6.64045 6.80544L5.4283 5.84129C5.3051 5.71649 5.36702 5.56081 5.67742 5.52977L14.1882 4.90786C14.9029 4.84546 15.2751 5.09458 15.5546 5.31218L17.0142 6.36976C17.0766 6.40128 17.2318 6.58736 17.0451 6.58736L8.25595 7.11647L8.14715 7.12383ZM7.16844 18.128V8.85885C7.16844 8.45406 7.29276 8.26734 7.66492 8.23598L17.7598 7.64495C18.1022 7.61407 18.257 7.83166 18.257 8.23582V17.4432C18.257 17.848 18.1946 18.1904 17.6357 18.2213L7.97547 18.7813C7.4166 18.8122 7.1686 18.6261 7.1686 18.128H7.16844ZM16.7043 9.35581C16.7662 9.6358 16.7043 9.9158 16.4243 9.9478L15.9587 10.0401V16.8837C15.5544 17.1013 15.1823 17.2256 14.8712 17.2256C14.3741 17.2256 14.25 17.07 13.8776 16.6037L10.8329 11.8134V16.448L11.7961 16.6661C11.7961 16.6661 11.7961 17.2261 11.019 17.2261L8.87658 17.3504C8.81418 17.2256 8.87658 16.9148 9.0937 16.8528L9.65321 16.6976V10.5697L8.87674 10.5068C8.81434 10.2268 8.96954 9.82252 9.40474 9.79116L11.7034 9.63644L14.8714 14.4887V10.196L14.0639 10.1032C14.0015 9.76028 14.25 9.51117 14.5604 9.48077L16.7043 9.35581Z" fill="black" fill-opacity="0.9"/>
</svg>
