<svg width="24" height="24" viewBox="0 0 24 24" fill="none" xmlns="http://www.w3.org/2000/svg">
<path d="M9.48875 16.8832C9.48875 16.9493 9.41265 17.0023 9.31671 17.0023C9.20753 17.0122 9.13143 16.9593 9.13143 16.8832C9.13143 16.817 9.20753 16.7641 9.30347 16.7641C9.40273 16.7541 9.48875 16.8071 9.48875 16.8832ZM8.45982 16.7343C8.43666 16.8005 8.50283 16.8766 8.60208 16.8964C8.6881 16.9295 8.78735 16.8964 8.8072 16.8302C8.82706 16.7641 8.76419 16.688 8.66494 16.6582C8.57892 16.635 8.48297 16.6681 8.45982 16.7343ZM9.92216 16.6781C9.82621 16.7012 9.76004 16.7641 9.76997 16.8402C9.77989 16.9063 9.86591 16.9493 9.96517 16.9262C10.0611 16.903 10.1273 16.8402 10.1174 16.774C10.1074 16.7111 10.0181 16.6681 9.92216 16.6781ZM12.0991 4C7.51029 4 4 7.48382 4 12.0727C4 15.7418 6.30931 18.8815 9.60785 19.9865C10.0313 20.0626 10.1802 19.8012 10.1802 19.5862C10.1802 19.3811 10.1703 18.2496 10.1703 17.5548C10.1703 17.5548 7.85437 18.0511 7.36802 16.5689C7.36802 16.5689 6.99086 15.6061 6.44827 15.358C6.44827 15.358 5.69063 14.8385 6.5012 14.8485C6.5012 14.8485 7.32501 14.9146 7.77827 15.7021C8.50283 16.9791 9.71703 16.6119 10.1901 16.3935C10.2662 15.8642 10.4813 15.4969 10.7195 15.2786C8.87007 15.0734 7.00409 14.8055 7.00409 11.6227C7.00409 10.7129 7.25553 10.2563 7.78489 9.67402C7.69887 9.45897 7.41765 8.5723 7.87091 7.42757C8.56238 7.21252 10.1538 8.32086 10.1538 8.32086C10.8154 8.13559 11.5268 8.03964 12.2315 8.03964C12.9362 8.03964 13.6475 8.13559 14.3092 8.32086C14.3092 8.32086 15.9006 7.20921 16.592 7.42757C17.0453 8.57561 16.7641 9.45897 16.6781 9.67402C17.2074 10.2596 17.5316 10.7162 17.5316 11.6227C17.5316 14.8154 15.5829 15.0701 13.7335 15.2786C14.0379 15.5399 14.296 16.0362 14.296 16.8137C14.296 17.9287 14.286 19.3083 14.286 19.5796C14.286 19.7946 14.4382 20.056 14.8584 19.9799C18.1669 18.8815 20.41 15.7418 20.41 12.0727C20.41 7.48382 16.688 4 12.0991 4ZM7.21583 15.4109C7.17282 15.444 7.18275 15.5201 7.23899 15.5829C7.29193 15.6359 7.36802 15.659 7.41103 15.616C7.45404 15.5829 7.44412 15.5069 7.38787 15.444C7.33494 15.3911 7.25884 15.3679 7.21583 15.4109ZM6.85852 15.1429C6.83536 15.1859 6.86844 15.2389 6.93461 15.272C6.98755 15.305 7.05372 15.2951 7.07688 15.2488C7.10003 15.2058 7.06695 15.1528 7.00078 15.1198C6.93461 15.0999 6.88168 15.1098 6.85852 15.1429ZM7.93046 16.3207C7.87752 16.3637 7.89738 16.463 7.97347 16.5259C8.04957 16.602 8.14551 16.6119 8.18852 16.5589C8.23153 16.5159 8.21168 16.4167 8.14551 16.3538C8.07272 16.2777 7.97347 16.2678 7.93046 16.3207ZM7.5533 15.8344C7.50036 15.8675 7.50036 15.9535 7.5533 16.0296C7.60623 16.1057 7.69556 16.1388 7.73857 16.1057C7.7915 16.0627 7.7915 15.9767 7.73857 15.9006C7.69225 15.8245 7.60623 15.7914 7.5533 15.8344Z" fill="black" fill-opacity="0.9"/>
</svg>
