<svg width="24" height="24" viewBox="0 0 24 24" fill="none" xmlns="http://www.w3.org/2000/svg">
<path d="M5.30775 21.4953C4.80258 21.4953 4.375 21.3203 4.025 20.9703C3.675 20.6203 3.5 20.1927 3.5 19.6875V6.303C3.5 5.79784 3.675 5.37025 4.025 5.02025C4.375 4.67025 4.80258 4.49525 5.30775 4.49525H6.69225V2.38H8.23075V4.49525H15.8077V2.38H17.3077V4.49525H18.6923C19.1974 4.49525 19.625 4.67025 19.975 5.02025C20.325 5.37025 20.5 5.79784 20.5 6.303V19.6875C20.5 20.1927 20.325 20.6203 19.975 20.9703C19.625 21.3203 19.1974 21.4953 18.6923 21.4953H5.30775ZM5.30775 19.9953H18.6923C18.7692 19.9953 18.8398 19.9632 18.9038 19.899C18.9679 19.835 19 19.7645 19 19.6875V10.303H5V19.6875C5 19.7645 5.03208 19.835 5.09625 19.899C5.16025 19.9632 5.23075 19.9953 5.30775 19.9953ZM5 8.803H19V6.303C19 6.226 18.9679 6.1555 18.9038 6.0915C18.8398 6.02734 18.7692 5.99525 18.6923 5.99525H5.30775C5.23075 5.99525 5.16025 6.02734 5.09625 6.0915C5.03208 6.1555 5 6.226 5 6.303V8.803ZM12 14.0723C11.7552 14.0723 11.5465 13.986 11.374 13.8135C11.2017 13.6412 11.1155 13.4325 11.1155 13.1875C11.1155 12.9427 11.2017 12.734 11.374 12.5615C11.5465 12.3892 11.7552 12.303 12 12.303C12.2448 12.303 12.4535 12.3892 12.626 12.5615C12.7983 12.734 12.8845 12.9427 12.8845 13.1875C12.8845 13.4325 12.7983 13.6412 12.626 13.8135C12.4535 13.986 12.2448 14.0723 12 14.0723ZM8 14.0723C7.75517 14.0723 7.5465 13.986 7.374 13.8135C7.20167 13.6412 7.1155 13.4325 7.1155 13.1875C7.1155 12.9427 7.20167 12.734 7.374 12.5615C7.5465 12.3892 7.75517 12.303 8 12.303C8.24483 12.303 8.4535 12.3892 8.626 12.5615C8.79833 12.734 8.8845 12.9427 8.8845 13.1875C8.8845 13.4325 8.79833 13.6412 8.626 13.8135C8.4535 13.986 8.24483 14.0723 8 14.0723ZM16 14.0723C15.7552 14.0723 15.5465 13.986 15.374 13.8135C15.2017 13.6412 15.1155 13.4325 15.1155 13.1875C15.1155 12.9427 15.2017 12.734 15.374 12.5615C15.5465 12.3892 15.7552 12.303 16 12.303C16.2448 12.303 16.4535 12.3892 16.626 12.5615C16.7983 12.734 16.8845 12.9427 16.8845 13.1875C16.8845 13.4325 16.7983 13.6412 16.626 13.8135C16.4535 13.986 16.2448 14.0723 16 14.0723ZM12 17.9953C11.7552 17.9953 11.5465 17.909 11.374 17.7365C11.2017 17.5642 11.1155 17.3556 11.1155 17.1108C11.1155 16.8658 11.2017 16.6571 11.374 16.4848C11.5465 16.3123 11.7552 16.226 12 16.226C12.2448 16.226 12.4535 16.3123 12.626 16.4848C12.7983 16.6571 12.8845 16.8658 12.8845 17.1108C12.8845 17.3556 12.7983 17.5642 12.626 17.7365C12.4535 17.909 12.2448 17.9953 12 17.9953ZM8 17.9953C7.75517 17.9953 7.5465 17.909 7.374 17.7365C7.20167 17.5642 7.1155 17.3556 7.1155 17.1108C7.1155 16.8658 7.20167 16.6571 7.374 16.4848C7.5465 16.3123 7.75517 16.226 8 16.226C8.24483 16.226 8.4535 16.3123 8.626 16.4848C8.79833 16.6571 8.8845 16.8658 8.8845 17.1108C8.8845 17.3556 8.79833 17.5642 8.626 17.7365C8.4535 17.909 8.24483 17.9953 8 17.9953ZM16 17.9953C15.7552 17.9953 15.5465 17.909 15.374 17.7365C15.2017 17.5642 15.1155 17.3556 15.1155 17.1108C15.1155 16.8658 15.2017 16.6571 15.374 16.4848C15.5465 16.3123 15.7552 16.226 16 16.226C16.2448 16.226 16.4535 16.3123 16.626 16.4848C16.7983 16.6571 16.8845 16.8658 16.8845 17.1108C16.8845 17.3556 16.7983 17.5642 16.626 17.7365C16.4535 17.909 16.2448 17.9953 16 17.9953Z" fill="black" fill-opacity="0.9"/>
</svg>
