<svg width="24" height="24" viewBox="0 0 24 24" fill="none" xmlns="http://www.w3.org/2000/svg">
<path d="M21.3054 20.6538L17.7669 17.1152H7.99769C7.51119 17.1152 7.09469 16.942 6.74819 16.5955C6.40169 16.2492 6.22844 15.8327 6.22844 15.346V14.7308H17.1132C17.6102 14.7308 18.0357 14.5538 18.3897 14.1997C18.7437 13.8457 18.9207 13.4202 18.9207 12.923V6H19.5362C20.0227 6 20.4392 6.17325 20.7857 6.51975C21.1322 6.86625 21.3054 7.28275 21.3054 7.76925V20.6538ZM4.18994 12.6463L5.60544 11.2308H15.1132C15.2029 11.2308 15.2765 11.2019 15.3342 11.1443C15.3919 11.0866 15.4207 11.0128 15.4207 10.923V4.30775C15.4207 4.21792 15.3919 4.14417 15.3342 4.0865C15.2765 4.02883 15.2029 4 15.1132 4H4.49769C4.40802 4 4.33427 4.02883 4.27644 4.0865C4.21877 4.14417 4.18994 4.21792 4.18994 4.30775V12.6463ZM2.68994 16.2693V4.30775C2.68994 3.81058 2.86694 3.385 3.22094 3.031C3.57494 2.677 4.00052 2.5 4.49769 2.5H15.1132C15.6102 2.5 16.0357 2.677 16.3897 3.031C16.7437 3.385 16.9207 3.81058 16.9207 4.30775V10.923C16.9207 11.4202 16.7437 11.8457 16.3897 12.1997C16.0357 12.5538 15.6102 12.7308 15.1132 12.7308H6.22844L2.68994 16.2693Z" fill="black" fill-opacity="0.9"/>
</svg>
