<svg width="24" height="24" viewBox="0 0 24 24" fill="none" xmlns="http://www.w3.org/2000/svg">
<path d="M17.6537 15.1443C17.6537 16.7683 17.0887 18.1502 15.9585 19.29C14.8285 20.43 13.4529 21 11.8318 21C10.2106 21 8.83333 20.43 7.7 19.29C6.56667 18.1502 6 16.7683 6 15.1443V6.15375C6 4.99992 6.40067 4.01917 7.202 3.2115C8.00317 2.40383 8.98067 2 10.1345 2C11.2883 2 12.2659 2.40383 13.0673 3.2115C13.8686 4.01917 14.2692 4.99992 14.2692 6.15375V14.6635C14.2692 15.3403 14.0335 15.9182 13.562 16.397C13.0903 16.8758 12.5157 17.1152 11.838 17.1152C11.1602 17.1152 10.5818 16.8775 10.103 16.402C9.62417 15.9265 9.38475 15.347 9.38475 14.6635V5.88475H10.8845V14.6635C10.8845 14.9315 10.9746 15.1572 11.1547 15.3405C11.3349 15.5238 11.559 15.6155 11.827 15.6155C12.0948 15.6155 12.3188 15.5238 12.499 15.3405C12.6792 15.1572 12.7693 14.9315 12.7693 14.6635V6.14425C12.7589 5.40575 12.5024 4.78042 11.9998 4.26825C11.4971 3.75608 10.8753 3.5 10.1345 3.5C9.39683 3.5 8.77333 3.75767 8.264 4.273C7.75467 4.7885 7.5 5.41542 7.5 6.15375V15.1443C7.48967 16.3533 7.90758 17.3814 8.75375 18.2288C9.59992 19.0763 10.6271 19.5 11.8352 19.5C13.0262 19.5 14.0387 19.0763 14.8725 18.2288C15.7062 17.3814 16.1332 16.3533 16.1537 15.1443V5.88475H17.6537V15.1443Z" fill="black" fill-opacity="0.9"/>
</svg>
