<svg width="24" height="24" viewBox="0 0 24 24" fill="none" xmlns="http://www.w3.org/2000/svg">
<path d="M12 18.9007C13.1 18.9007 14.0417 18.5091 14.825 17.7257C15.6083 16.9424 16 16.0007 16 14.9007V10.9007C16 9.80073 15.6083 8.85907 14.825 8.07573C14.0417 7.2924 13.1 6.90073 12 6.90073C10.9 6.90073 9.95833 7.2924 9.175 8.07573C8.39167 8.85907 8 9.80073 8 10.9007V14.9007C8 16.0007 8.39167 16.9424 9.175 17.7257C9.95833 18.5091 10.9 18.9007 12 18.9007ZM10.1537 15.6507H13.8462V14.1507H10.1537V15.6507ZM10.1537 11.6507H13.8462V10.1507H10.1537V11.6507ZM12 20.4007C11.0065 20.4007 10.0889 20.1565 9.24725 19.668C8.40558 19.1795 7.73725 18.5071 7.24225 17.6507H4.5V16.1507H6.677C6.57567 15.7406 6.52083 15.3255 6.5125 14.9055C6.50417 14.4856 6.5 14.0674 6.5 13.6507H4.5V12.1507H6.5C6.5 11.7277 6.501 11.3062 6.503 10.8862C6.50483 10.4664 6.56283 10.0546 6.677 9.65073H4.5V8.15073H7.24225C7.48208 7.74173 7.76542 7.36898 8.09225 7.03248C8.41925 6.69598 8.79367 6.41232 9.2155 6.18148L7.51925 4.45448L8.55375 3.41998L10.6848 5.55073C11.1129 5.42007 11.5462 5.35473 11.9845 5.35473C12.423 5.35473 12.8563 5.42007 13.2845 5.55073L15.4653 3.41998L16.5 4.45448L14.773 6.18148C15.1948 6.41232 15.5712 6.6934 15.902 7.02473C16.2327 7.35623 16.5179 7.73157 16.7578 8.15073H19.5V9.65073H17.323C17.4372 10.0546 17.4952 10.4664 17.497 10.8862C17.499 11.3062 17.5 11.7277 17.5 12.1507H19.5V13.6507H17.5C17.5 14.0674 17.4958 14.4856 17.4875 14.9055C17.4792 15.3255 17.4243 15.7406 17.323 16.1507H19.5V17.6507H16.7578C16.2627 18.5071 15.5944 19.1795 14.7527 19.668C13.9111 20.1565 12.9935 20.4007 12 20.4007Z" fill="black" fill-opacity="0.9"/>
</svg>
