<svg width="24" height="24" viewBox="0 0 24 24" fill="none" xmlns="http://www.w3.org/2000/svg">
<path d="M12.6125 6.8625L15.1156 8.325C15.2063 8.375 15.2094 8.51875 15.1156 8.56875L12.1406 10.3094C12.05 10.3625 11.9437 10.3562 11.8594 10.3094L8.8875 8.56875C8.79375 8.51875 8.79375 8.375 8.8875 8.325L11.3875 6.8625V4L5 7.73125V15.1969L7.45 13.7656V10.8406C7.44688 10.7375 7.56875 10.6625 7.65937 10.7188L10.6344 12.4563C10.725 12.5094 10.775 12.6031 10.775 12.7031V16.1781C10.775 16.2812 10.6562 16.3562 10.5656 16.3L8.0625 14.8375L5.6125 16.2688L12 20L18.3875 16.2688L15.9375 14.8375L13.4344 16.3C13.3469 16.3531 13.2219 16.2844 13.225 16.1781V12.7031C13.225 12.5969 13.2844 12.5063 13.3656 12.4563L16.3406 10.7188C16.4281 10.6625 16.5531 10.7344 16.55 10.8406V13.7656L19 15.1969V7.73125L12.6125 4V6.8625Z" fill="black" fill-opacity="0.9"/>
</svg>
