<svg width="24" height="24" viewBox="0 0 24 24" fill="none" xmlns="http://www.w3.org/2000/svg">
<path d="M11.2545 21.389C11.093 21.389 10.9532 21.3301 10.8352 21.2122C10.7172 21.0942 10.6582 20.9545 10.6582 20.793C10.6582 20.6313 10.7172 20.4916 10.8352 20.3737C10.9532 20.2557 11.093 20.1967 11.2545 20.1967H11.4082V18.4737C10.6827 18.3904 10.0228 18.2237 9.42849 17.9737C8.83433 17.7237 8.30008 17.3936 7.82575 16.9832L6.616 18.2082L6.73149 18.3237C6.85583 18.4481 6.91641 18.5894 6.91325 18.7477C6.90991 18.9061 6.84933 19.0442 6.73149 19.1622C6.60716 19.2866 6.46583 19.3472 6.3075 19.344C6.14916 19.3407 6.00783 19.2768 5.8835 19.1525L4.83724 18.1217C4.71291 17.9974 4.65075 17.8551 4.65075 17.6947C4.65075 17.5346 4.71291 17.3923 4.83724 17.268C4.96158 17.1437 5.10133 17.0872 5.2565 17.0987C5.41166 17.1102 5.55141 17.1698 5.67575 17.2775L5.77175 17.3737L6.99675 16.1487C6.56091 15.6192 6.22758 15.0737 5.99675 14.5122C5.76608 13.9506 5.61225 13.3134 5.53524 12.6007H3.81225V12.7545C3.81225 12.916 3.75324 13.0557 3.63524 13.1737C3.51741 13.2917 3.37766 13.3507 3.216 13.3507C3.0545 13.3507 2.91475 13.2917 2.79675 13.1737C2.67891 13.0557 2.62 12.916 2.62 12.7545V11.2545C2.62 11.093 2.67891 10.9532 2.79675 10.8352C2.91475 10.7172 3.0545 10.6582 3.216 10.6582C3.37766 10.6582 3.51741 10.7172 3.63524 10.8352C3.75324 10.9532 3.81225 11.093 3.81225 11.2545V11.4082H5.53524C5.61225 10.6956 5.77191 10.0568 6.01424 9.492C6.25641 8.92733 6.58716 8.38341 7.00649 7.86024L5.7815 6.63524L5.67575 6.741C5.55141 6.85516 5.41166 6.91483 5.2565 6.92C5.10133 6.92499 4.96158 6.86533 4.83724 6.741C4.71291 6.61666 4.65075 6.47441 4.65075 6.31425C4.65075 6.15391 4.71291 6.01158 4.83724 5.88725L5.88725 4.83725C6.01158 4.71291 6.15549 4.65074 6.31899 4.65074C6.4825 4.65074 6.62641 4.71291 6.75075 4.83725C6.87508 4.96158 6.934 5.10391 6.9275 5.26425C6.92116 5.42441 6.85583 5.56666 6.73149 5.691L6.62575 5.79675L7.83525 7.0065C8.37758 6.5705 8.92308 6.23716 9.47175 6.0065C10.0206 5.77566 10.6577 5.61858 11.3832 5.53524V3.81225H11.239C11.0775 3.81225 10.9403 3.75324 10.8275 3.63524C10.7147 3.51741 10.6582 3.37766 10.6582 3.216C10.6582 3.0545 10.7172 2.91475 10.8352 2.79675C10.9532 2.67891 11.093 2.62 11.2545 2.62H12.7545C12.916 2.62 13.0557 2.67891 13.1737 2.79675C13.2917 2.91475 13.3507 3.0545 13.3507 3.216C13.3507 3.37766 13.2917 3.51741 13.1737 3.63524C13.0557 3.75324 12.916 3.81225 12.7545 3.81225H12.6007V5.53524C13.3262 5.61858 13.9634 5.77566 14.5122 6.0065C15.0609 6.23716 15.6064 6.5705 16.1487 7.0065L17.3737 5.7815L17.2582 5.666C17.1404 5.54816 17.0815 5.41008 17.0815 5.25175C17.0815 5.09341 17.1404 4.95525 17.2582 4.83725C17.3826 4.71291 17.5249 4.65074 17.6852 4.65074C17.8454 4.65074 17.9877 4.71291 18.1122 4.83725L19.1717 5.91225C19.2961 6.03658 19.3582 6.17633 19.3582 6.3315C19.3582 6.48666 19.2961 6.62641 19.1717 6.75074C19.0474 6.87508 18.9067 6.93566 18.7497 6.9325C18.5926 6.92916 18.4518 6.86533 18.3275 6.741L18.2122 6.62574L17.0025 7.83524C17.4385 8.36474 17.7734 8.91608 18.0072 9.48925C18.2412 10.0622 18.3967 10.7019 18.4737 11.4082H20.1967V11.2545C20.1967 11.093 20.2557 10.9532 20.3737 10.8352C20.4916 10.7172 20.6313 10.6582 20.793 10.6582C20.9545 10.6582 21.0942 10.7172 21.2122 10.8352C21.3301 10.9532 21.389 11.093 21.389 11.2545V12.7545C21.389 12.916 21.3301 13.0557 21.2122 13.1737C21.0942 13.2917 20.9545 13.3507 20.793 13.3507C20.6313 13.3507 20.4916 13.2917 20.3737 13.1737C20.2557 13.0557 20.1967 12.916 20.1967 12.7545V12.6007H18.4737C18.3967 13.3134 18.2412 13.9531 18.0072 14.5197C17.7734 15.0864 17.4385 15.6345 17.0025 16.164L18.2122 17.3737L18.3275 17.2582C18.4518 17.1339 18.5942 17.0733 18.7545 17.0765C18.9147 17.0798 19.057 17.1404 19.1815 17.2582C19.3058 17.3762 19.368 17.5186 19.368 17.6852C19.368 17.8519 19.3058 17.9974 19.1815 18.1217L18.1315 19.1717C18.007 19.2961 17.8631 19.3582 17.6997 19.3582C17.5362 19.3582 17.3923 19.2961 17.268 19.1717C17.15 19.0537 17.0936 18.9156 17.0987 18.7572C17.1039 18.5989 17.1635 18.4576 17.2775 18.3332L17.3737 18.2275L16.1487 17.0025C15.6577 17.4128 15.1267 17.7423 14.5555 17.991C13.9843 18.2397 13.3327 18.4057 12.6007 18.489V20.1967H12.7545C12.916 20.1967 13.0557 20.2557 13.1737 20.3737C13.2917 20.4916 13.3507 20.6313 13.3507 20.793C13.3507 20.9545 13.2917 21.0942 13.1737 21.2122C13.0557 21.3301 12.916 21.389 12.7545 21.389H11.2545ZM12.0045 17.0045C13.3878 17.0045 14.567 16.517 15.542 15.542C16.517 14.567 17.0045 13.3878 17.0045 12.0045C17.0045 10.6212 16.517 9.442 15.542 8.467C14.567 7.492 13.3878 7.0045 12.0045 7.0045C10.6212 7.0045 9.442 7.492 8.467 8.467C7.492 9.442 7.0045 10.6212 7.0045 12.0045C7.0045 13.3878 7.492 14.567 8.467 15.542C9.442 16.517 10.6212 17.0045 12.0045 17.0045ZM10.3507 15.793C10.5956 15.793 10.8042 15.7067 10.9765 15.5342C11.149 15.3619 11.2352 15.1532 11.2352 14.9082C11.2352 14.6634 11.149 14.4548 10.9765 14.2825C10.8042 14.11 10.5956 14.0237 10.3507 14.0237C10.1057 14.0237 9.89708 14.11 9.72475 14.2825C9.55225 14.4548 9.466 14.6634 9.466 14.9082C9.466 15.1532 9.55225 15.3619 9.72475 15.5342C9.89708 15.7067 10.1057 15.793 10.3507 15.793ZM13.6582 15.793C13.9032 15.793 14.1119 15.7067 14.2842 15.5342C14.4567 15.3619 14.543 15.1532 14.543 14.9082C14.543 14.6634 14.4567 14.4548 14.2842 14.2825C14.1119 14.11 13.9032 14.0237 13.6582 14.0237C13.4134 14.0237 13.2048 14.11 13.0325 14.2825C12.86 14.4548 12.7737 14.6634 12.7737 14.9082C12.7737 15.1532 12.86 15.3619 13.0325 15.5342C13.2048 15.7067 13.4134 15.793 13.6582 15.793ZM8.60075 12.889C8.84558 12.889 9.05416 12.8028 9.2265 12.6305C9.399 12.458 9.48525 12.2493 9.48525 12.0045C9.48525 11.7597 9.399 11.551 9.2265 11.3785C9.05416 11.2062 8.84558 11.12 8.60075 11.12C8.35575 11.12 8.14708 11.2062 7.97475 11.3785C7.80225 11.551 7.716 11.7597 7.716 12.0045C7.716 12.2493 7.80225 12.458 7.97475 12.6305C8.14708 12.8028 8.35575 12.889 8.60075 12.889ZM12.0045 12.889C12.2493 12.889 12.458 12.8028 12.6305 12.6305C12.8028 12.458 12.889 12.2493 12.889 12.0045C12.889 11.7597 12.8028 11.551 12.6305 11.3785C12.458 11.2062 12.2493 11.12 12.0045 11.12C11.7597 11.12 11.551 11.2062 11.3785 11.3785C11.2062 11.551 11.12 11.7597 11.12 12.0045C11.12 12.2493 11.2062 12.458 11.3785 12.6305C11.551 12.8028 11.7597 12.889 12.0045 12.889ZM15.4082 12.889C15.6532 12.889 15.8619 12.8028 16.0342 12.6305C16.2067 12.458 16.293 12.2493 16.293 12.0045C16.293 11.7597 16.2067 11.551 16.0342 11.3785C15.8619 11.2062 15.6532 11.12 15.4082 11.12C15.1634 11.12 14.9548 11.2062 14.7825 11.3785C14.61 11.551 14.5237 11.7597 14.5237 12.0045C14.5237 12.2493 14.61 12.458 14.7825 12.6305C14.9548 12.8028 15.1634 12.889 15.4082 12.889ZM10.3507 9.98524C10.5956 9.98524 10.8042 9.899 10.9765 9.7265C11.149 9.55416 11.2352 9.34558 11.2352 9.10074C11.2352 8.85574 11.149 8.64708 10.9765 8.47475C10.8042 8.30225 10.5956 8.216 10.3507 8.216C10.1057 8.216 9.89708 8.30225 9.72475 8.47475C9.55225 8.64708 9.466 8.85574 9.466 9.10074C9.466 9.34558 9.55225 9.55416 9.72475 9.7265C9.89708 9.899 10.1057 9.98524 10.3507 9.98524ZM13.6582 9.98524C13.9032 9.98524 14.1119 9.899 14.2842 9.7265C14.4567 9.55416 14.543 9.34558 14.543 9.10074C14.543 8.85574 14.4567 8.64708 14.2842 8.47475C14.1119 8.30225 13.9032 8.216 13.6582 8.216C13.4134 8.216 13.2048 8.30225 13.0325 8.47475C12.86 8.64708 12.7737 8.85574 12.7737 9.10074C12.7737 9.34558 12.86 9.55416 13.0325 9.7265C13.2048 9.899 13.4134 9.98524 13.6582 9.98524Z" fill="black" fill-opacity="0.9"/>
</svg>
