<svg width="24" height="24" viewBox="0 0 24 24" fill="none" xmlns="http://www.w3.org/2000/svg">
<path d="M12 19.5C9.90617 19.5 8.13275 18.7736 6.67975 17.3207C5.22658 15.8679 4.5 14.0948 4.5 12.0015C4.5 9.90817 5.22658 8.13458 6.67975 6.68075C8.13275 5.22692 9.90617 4.5 12 4.5C13.1692 4.5 14.2756 4.75992 15.3193 5.27975C16.3628 5.79975 17.2307 6.53342 17.923 7.48075V4.5H19.423V10.6152H13.3077V9.1155H17.2578C16.7308 8.15 15.9999 7.38942 15.0653 6.83375C14.1308 6.27792 13.109 6 12 6C10.3333 6 8.91667 6.58333 7.75 7.75C6.58333 8.91667 6 10.3333 6 12C6 13.6667 6.58333 15.0833 7.75 16.25C8.91667 17.4167 10.3333 18 12 18C13.2833 18 14.4417 17.6333 15.475 16.9C16.5083 16.1667 17.2333 15.2 17.65 14H19.2308C18.7769 15.632 17.883 16.9567 16.549 17.974C15.215 18.9913 13.6987 19.5 12 19.5Z" fill="black" fill-opacity="0.9"/>
</svg>
