<svg width="24" height="24" viewBox="0 0 24 24" fill="none" xmlns="http://www.w3.org/2000/svg">
<path d="M16.1438 14.5895C15.9954 14.5895 15.8504 14.5455 15.7271 14.4631C15.6037 14.3807 15.5076 14.2636 15.4508 14.1265C15.3941 13.9895 15.3792 13.8387 15.4082 13.6932C15.4371 13.5477 15.5085 13.4141 15.6134 13.3092C15.7183 13.2043 15.8519 13.1329 15.9974 13.1039C16.1429 13.075 16.2937 13.0898 16.4308 13.1466C16.5678 13.2034 16.6849 13.2995 16.7674 13.4228C16.8498 13.5462 16.8938 13.6912 16.8938 13.8395C16.8938 14.0384 16.8147 14.2292 16.6741 14.3699C16.5334 14.5105 16.3427 14.5895 16.1438 14.5895ZM7.85938 14.5895C7.71104 14.5895 7.56603 14.5455 7.4427 14.4631C7.31936 14.3807 7.22323 14.2636 7.16647 14.1265C7.1097 13.9895 7.09485 13.8387 7.12379 13.6932C7.15272 13.5477 7.22416 13.4141 7.32904 13.3092C7.43393 13.2043 7.56757 13.1329 7.71306 13.1039C7.85854 13.075 8.00934 13.0898 8.14639 13.1466C8.28343 13.2034 8.40057 13.2995 8.48298 13.4228C8.56539 13.5462 8.60938 13.6912 8.60938 13.8395C8.60938 14.0384 8.53036 14.2292 8.38971 14.3699C8.24905 14.5105 8.05829 14.5895 7.85938 14.5895ZM16.4125 10.0739L17.9094 7.48015C17.932 7.44458 17.9472 7.40481 17.954 7.36322C17.9608 7.32163 17.9592 7.27909 17.9492 7.23815C17.9392 7.19722 17.9209 7.15873 17.8957 7.12501C17.8704 7.09129 17.8385 7.06304 17.802 7.04195C17.7656 7.02086 17.7252 7.00736 17.6833 7.00228C17.6415 6.9972 17.5991 7.00063 17.5586 7.01237C17.5181 7.02412 17.4804 7.04393 17.4478 7.07061C17.4152 7.0973 17.3883 7.1303 17.3687 7.16765L15.8531 9.79577C14.6413 9.25226 13.3282 8.97127 12 8.97127C10.6718 8.97127 9.35872 9.25226 8.14687 9.79577L6.63125 7.17077C6.61171 7.13343 6.58483 7.10042 6.5522 7.07374C6.51958 7.04705 6.4819 7.02724 6.44142 7.0155C6.40094 7.00376 6.35851 7.00032 6.31667 7.00541C6.27483 7.01049 6.23445 7.02398 6.19796 7.04507C6.16147 7.06616 6.12963 7.09442 6.10434 7.12814C6.07905 7.16186 6.06085 7.20034 6.05082 7.24128C6.04079 7.28221 6.03915 7.32476 6.04599 7.36634C6.05283 7.40793 6.06801 7.44771 6.09063 7.48327L7.5875 10.077C5.01562 11.4739 3.25625 14.0801 3 17.1551H21C20.7437 14.077 18.9844 11.4739 16.4094 10.0739" fill="black" fill-opacity="0.9"/>
</svg>
