<svg width="24" height="24" viewBox="0 0 24 24" fill="none" xmlns="http://www.w3.org/2000/svg">
<path d="M8.63825 21.7305L6.85375 18.723L3.46525 17.9805L3.796 14.4922L1.5 11.8652L3.796 9.23825L3.46525 5.75L6.85375 5.0075L8.63825 2L11.8268 3.35375L15.0153 2L16.7998 5.0075L20.1883 5.75L19.8575 9.23825L22.1535 11.8652L19.8575 14.4922L20.1883 17.9805L16.7998 18.723L15.0153 21.7305L11.8268 20.3768L8.63825 21.7305ZM9.27675 19.8153L11.8268 18.7345L14.4075 19.8153L15.8268 17.4152L18.5768 16.7845L18.3268 13.9653L20.1768 11.8652L18.3268 9.7345L18.5768 6.91525L15.8268 6.31525L14.3768 3.91525L11.8268 4.996L9.246 3.91525L7.82675 6.31525L5.07675 6.91525L5.32675 9.7345L3.47675 11.8652L5.32675 13.9653L5.07675 16.8152L7.82675 17.4152L9.27675 19.8153ZM10.7768 15.069L16.0805 9.76525L15.0268 8.68075L10.7768 12.9307L8.62675 10.8115L7.573 11.8652L10.7768 15.069Z" fill="black" fill-opacity="0.9"/>
</svg>
