<svg width="24" height="24" viewBox="0 0 24 24" fill="none" xmlns="http://www.w3.org/2000/svg">
<path d="M19.7066 10.0177C19.4316 8.91416 18.9102 8.08205 17.7996 8.08205H16.3675V9.77485C16.3675 11.0891 15.2532 12.1962 13.9818 12.1962H10.1677C9.12485 12.1962 8.2606 13.089 8.2606 14.1354V17.771C8.2606 18.8067 9.16056 19.4138 10.1677 19.7102C11.3748 20.0638 12.5354 20.1281 13.9818 19.7102C14.9425 19.4317 15.8889 18.871 15.8889 17.771V16.3175H12.0783V15.8318H17.7996C18.9102 15.8318 19.3209 15.0568 19.7066 13.8961C20.1066 12.6997 20.0888 11.5498 19.7066 10.0177ZM14.2211 17.2853C14.6175 17.2853 14.9389 17.6103 14.9389 18.0103C14.9389 18.4138 14.6175 18.7388 14.2211 18.7388C13.8283 18.7388 13.5033 18.4103 13.5033 18.0103C13.5068 17.6067 13.8283 17.2853 14.2211 17.2853ZM9.99268 11.7176H13.8068C14.8675 11.7176 15.7139 10.8427 15.7139 9.77842V6.13926C15.7139 5.10358 14.8425 4.32861 13.8068 4.15361C12.5283 3.94291 11.1391 3.95362 9.99268 4.15718C8.37845 4.44289 8.0856 5.0393 8.0856 6.14283V7.59635H11.9033V8.08205H6.65351C5.54283 8.08205 4.57144 8.74988 4.26787 10.0177C3.91789 11.4712 3.9036 12.3783 4.26787 13.8961C4.53929 15.0247 5.1857 15.8318 6.29638 15.8318H7.60705V14.089C7.60705 12.8283 8.69629 11.7176 9.99268 11.7176ZM9.7534 6.62496C9.35699 6.62496 9.03557 6.29997 9.03557 5.89998C9.03914 5.49642 9.35699 5.17143 9.7534 5.17143C10.1462 5.17143 10.4712 5.49999 10.4712 5.89998C10.4712 6.29997 10.1498 6.62496 9.7534 6.62496Z" fill="black" fill-opacity="0.9"/>
</svg>
