<svg width="24" height="24" viewBox="0 0 24 24" fill="none" xmlns="http://www.w3.org/2000/svg">
<path d="M16.7065 14.8774C15.4484 15.1774 15.1452 15.9129 13.3516 16.4065C13.3516 16.4065 13.2645 16.5355 13.0161 16.5935C12.5839 16.7 10.9548 16.7871 10.8065 16.7903C10.4065 16.7935 10.1645 16.6871 10.0968 16.5258C9.89032 16.0323 10.3935 15.8161 10.3935 15.8161C10.1323 15.6548 10.1032 15.4968 10.0774 15.5548C10 15.7419 9.96129 16.2032 9.75161 16.4097C9.46774 16.6968 8.92903 16.6 8.6129 16.4355C8.26452 16.2516 8.63871 15.8161 8.63871 15.8161C8.63871 15.8161 8.45161 15.9258 8.3 15.7C8.10645 15.4 7.74839 14.4968 8.67097 13.7C8.62903 13.3742 8.52258 11.9677 9.98064 10.9387C9.98064 10.9387 9.31613 10.2032 9.56452 9.54194C9.72581 9.10968 9.79032 9.1129 9.84194 9.09355C10.0258 9.02258 10.2065 8.94516 10.3387 8.8C11.0032 8.08387 11.8484 8.21935 11.8484 8.21935C11.8484 8.21935 12.2484 7 12.6194 7.23871C12.7323 7.3129 13.1452 8.22581 13.1452 8.22581C13.1452 8.22581 13.5839 7.97097 13.6323 8.06452C13.8968 8.58065 13.929 9.56452 13.8129 10.1645C13.6161 11.1516 13.1226 11.6839 12.9226 12.0194C12.8774 12.0968 13.4548 12.3419 13.8194 13.3516C14.1548 14.2742 13.8548 15.0516 13.9097 15.1355C13.9355 15.1806 14.3516 15.1613 15.0839 14.7097C15.4968 14.4548 15.9903 14.1645 16.5484 14.1613C17.0871 14.1452 17.1161 14.7806 16.7065 14.8774ZM20 12C20 16.4161 16.4161 20 12 20C7.58387 20 4 16.4161 4 12C4 7.58387 7.58387 4 12 4C16.4161 4 20 7.58387 20 12ZM17.4419 14.4258C17.3871 13.9871 17.0161 13.6839 16.5387 13.6903C15.829 13.7 15.2323 14.0677 14.8355 14.3097C14.6806 14.4065 14.5484 14.4774 14.4355 14.529C14.5355 13.0935 13.7097 12.171 13.5097 11.9677C13.7613 11.6032 14.1032 11.071 14.2645 10.2516C14.4032 9.55161 14.3613 8.46129 14.0419 7.84839C13.9903 7.74839 13.8032 7.4871 13.3645 7.60968C13.0516 6.96452 12.9452 6.89677 12.8613 6.84194C12.8258 6.81935 12.1 6.3129 11.5258 7.74516C11.1323 7.77419 10.5161 7.91613 9.99355 8.48064C9.92903 8.55161 9.80323 8.60323 9.66774 8.65484H9.67097C9.4 8.75161 9.27419 8.97419 9.12581 9.37419C8.91613 9.93548 9.13226 10.4903 9.34516 10.8484C8.77097 11.3613 8.15161 12.1323 8.19355 13.5097C7.09677 14.671 7.8129 15.8645 8.0129 16.0774C7.96129 16.4355 8.13226 16.7032 8.4 16.8452C8.80645 17.0613 9.37742 17.1548 9.81613 16.9355C9.97419 17.1032 10.2613 17.2613 10.7839 17.2613C11.0032 17.2613 12.6548 17.1677 13.1258 17.0516C13.3452 17 13.4968 16.9065 13.5968 16.8226C13.9129 16.7226 14.7839 16.4258 15.6032 15.8968C16.1839 15.5194 16.3839 15.4387 16.8161 15.3355C17.2323 15.2323 17.4935 14.8484 17.4419 14.4258Z" fill="black" fill-opacity="0.9"/>
</svg>
