<svg width="24" height="24" viewBox="0 0 24 24" fill="none" xmlns="http://www.w3.org/2000/svg">
<path d="M2.5 19.5V17.25H4.5V6.30775C4.5 5.81058 4.677 5.385 5.031 5.031C5.385 4.677 5.81058 4.5 6.30775 4.5H20.5V6H6.30775C6.21792 6 6.14417 6.02883 6.0865 6.0865C6.02883 6.14417 6 6.21792 6 6.30775V17.25H11.7402V19.5H2.5ZM15.0288 19.5C14.7728 19.5 14.5581 19.4133 14.3848 19.24C14.2116 19.0668 14.125 18.8522 14.125 18.596V9.09625C14.125 8.84008 14.2116 8.62542 14.3848 8.45225C14.5581 8.27892 14.7728 8.19225 15.0288 8.19225H20.6057C20.8617 8.19225 21.0764 8.27892 21.2498 8.45225C21.4229 8.62542 21.5095 8.84008 21.5095 9.09625V18.596C21.5095 18.8522 21.4229 19.0668 21.2498 19.24C21.0764 19.4133 20.8617 19.5 20.6057 19.5H15.0288ZM15.625 17.25H20.0095V9.69225H15.625V17.25Z" fill="black" fill-opacity="0.9"/>
</svg>
