<svg width="24" height="24" viewBox="0 0 24 24" fill="none" xmlns="http://www.w3.org/2000/svg">
<path d="M10.25 11.0562C11.2437 10.5812 11.7625 9.8625 11.7625 8.74375C11.7625 6.5375 10.1188 6 8.22188 6H3V17.075H8.36875C10.3813 17.075 12.2719 16.1094 12.2719 13.8594C12.2719 12.4688 11.6125 11.4406 10.25 11.0562ZM5.43438 7.89062H7.71875C8.59688 7.89062 9.3875 8.1375 9.3875 9.15625C9.3875 10.0969 8.77187 10.475 7.90312 10.475H5.43438V7.89062ZM8.0375 15.1938H5.43438V12.1438H8.0875C9.15938 12.1438 9.8375 12.5906 9.8375 13.725C9.8375 14.8438 9.02812 15.1938 8.0375 15.1938ZM19.2406 7.67187H14.75V6.58125H19.2406V7.67187ZM21 13.1813C21 10.8094 19.6125 8.83125 17.0969 8.83125C14.6531 8.83125 12.9937 10.6687 12.9937 13.075C12.9937 15.5719 14.5656 17.2844 17.0969 17.2844C19.0125 17.2844 20.2531 16.4219 20.85 14.5875H18.9062C18.6969 15.2719 17.8344 15.6344 17.1656 15.6344C15.875 15.6344 15.1969 14.8781 15.1969 13.5938H20.9813C20.9906 13.4625 21 13.3219 21 13.1813ZM15.2 12.2063C15.2719 11.1531 15.9719 10.4937 17.0281 10.4937C18.1344 10.4937 18.6906 11.1438 18.7844 12.2063H15.2Z" fill="black" fill-opacity="0.9"/>
</svg>
