<svg width="24" height="24" viewBox="0 0 24 24" fill="none" xmlns="http://www.w3.org/2000/svg">
<path d="M0.5 16.4808V15.2615C0.5 14.5962 0.847417 14.0497 1.54225 13.622C2.23725 13.1945 3.14308 12.9808 4.25975 12.9808C4.44425 12.9808 4.63008 12.9865 4.81725 12.998C5.00442 13.0095 5.19292 13.0319 5.38275 13.0653C5.18792 13.3769 5.04333 13.7003 4.949 14.0355C4.85483 14.3708 4.80775 14.7148 4.80775 15.0673V16.4808H0.5ZM6.5 16.4808V15.1058C6.5 14.6376 6.63142 14.2097 6.89425 13.822C7.15708 13.4342 7.53592 13.0961 8.03075 12.8078C8.52558 12.5193 9.11025 12.3029 9.78475 12.1588C10.4591 12.0144 11.1962 11.9423 11.9963 11.9423C12.8116 11.9423 13.5564 12.0144 14.2308 12.1588C14.9051 12.3029 15.4897 12.5193 15.9845 12.8078C16.4795 13.0961 16.8558 13.4342 17.1135 13.822C17.3712 14.2097 17.5 14.6376 17.5 15.1058V16.4808H6.5ZM19.1923 16.4808V15.0703C19.1923 14.6941 19.1477 14.3396 19.0588 14.0068C18.9696 13.6741 18.8359 13.3603 18.6578 13.0653C18.8539 13.0319 19.0414 13.0095 19.2203 12.998C19.3991 12.9865 19.5757 12.9808 19.75 12.9808C20.8667 12.9808 21.7708 13.192 22.4625 13.6145C23.1542 14.0368 23.5 14.5858 23.5 15.2615V16.4808H19.1923ZM8.077 14.9808H15.9385V14.875C15.836 14.4712 15.4103 14.1314 14.6615 13.8558C13.9128 13.5801 13.0257 13.4423 12 13.4423C10.9743 13.4423 10.0872 13.5801 9.3385 13.8558C8.58967 14.1314 8.16917 14.4712 8.077 14.875V14.9808ZM4.257 12.0095C3.78567 12.0095 3.383 11.8419 3.049 11.5068C2.715 11.1716 2.548 10.7687 2.548 10.298C2.548 9.82117 2.71567 9.41833 3.051 9.0895C3.38617 8.76067 3.78908 8.59625 4.25975 8.59625C4.73658 8.59625 5.141 8.76067 5.473 9.0895C5.80517 9.41833 5.97125 9.82217 5.97125 10.301C5.97125 10.7657 5.80692 11.1666 5.47825 11.5038C5.14975 11.8409 4.74267 12.0095 4.257 12.0095ZM19.75 12.0095C19.2833 12.0095 18.8814 11.8409 18.5443 11.5038C18.2071 11.1666 18.0385 10.7657 18.0385 10.301C18.0385 9.82217 18.2071 9.41833 18.5443 9.0895C18.8814 8.76067 19.2839 8.59625 19.7518 8.59625C20.2339 8.59625 20.6394 8.76067 20.9683 9.0895C21.2971 9.41833 21.4615 9.82117 21.4615 10.298C21.4615 10.7687 21.2975 11.1716 20.9695 11.5068C20.6415 11.8419 20.235 12.0095 19.75 12.0095ZM12.0035 11.1923C11.2832 11.1923 10.6698 10.9398 10.1635 10.435C9.65717 9.93033 9.404 9.31742 9.404 8.59625C9.404 7.86058 9.65633 7.244 10.161 6.7465C10.6658 6.24883 11.2788 6 12 6C12.7355 6 13.3521 6.2485 13.8497 6.7455C14.3472 7.24233 14.596 7.85808 14.596 8.59275C14.596 9.31292 14.3476 9.92625 13.8508 10.4328C13.3538 10.9391 12.738 11.1923 12.0035 11.1923ZM12.0048 9.69225C12.3106 9.69225 12.5689 9.58525 12.7797 9.37125C12.9908 9.15708 13.0962 8.89708 13.0962 8.59125C13.0962 8.28558 12.9912 8.02725 12.781 7.81625C12.5708 7.60542 12.3105 7.5 12 7.5C11.6975 7.5 11.4392 7.60508 11.225 7.81525C11.0108 8.02525 10.9038 8.28558 10.9038 8.59625C10.9038 8.89875 11.0108 9.15708 11.225 9.37125C11.4392 9.58525 11.6991 9.69225 12.0048 9.69225Z" fill="black" fill-opacity="0.9"/>
</svg>
