<svg width="24" height="24" viewBox="0 0 24 24" fill="none" xmlns="http://www.w3.org/2000/svg">
<path d="M11.75 15.2885V6.8885L9.28475 9.35375L8.23075 8.26925L12.5 4L16.7693 8.26925L15.7153 9.35375L13.25 6.8885V15.2885H11.75ZM6.80775 19C6.30258 19 5.875 18.825 5.525 18.475C5.175 18.125 5 17.6974 5 17.1923V14.4808H6.5V17.1923C6.5 17.2692 6.53208 17.3398 6.59625 17.4038C6.66025 17.4679 6.73075 17.5 6.80775 17.5H18.1923C18.2692 17.5 18.3398 17.4679 18.4038 17.4038C18.4679 17.3398 18.5 17.2692 18.5 17.1923V14.4808H20V17.1923C20 17.6974 19.825 18.125 19.475 18.475C19.125 18.825 18.6974 19 18.1923 19H6.80775Z" fill="black" fill-opacity="0.9"/>
</svg>
