<svg width="24" height="24" viewBox="0 0 24 24" fill="none" xmlns="http://www.w3.org/2000/svg">
<path d="M12.4638 16.077C13.5969 16.077 14.5593 15.6804 15.351 14.8872C16.1427 14.0941 16.5385 13.1309 16.5385 11.9978C16.5385 10.8646 16.1419 9.90217 15.3488 9.1105C14.5556 8.31883 13.5924 7.923 12.4593 7.923C11.3261 7.923 10.3637 8.31958 9.572 9.11275C8.78033 9.90592 8.3845 10.8691 8.3845 12.0023C8.3845 13.1354 8.78108 14.0978 9.57425 14.8895C10.3674 15.6812 11.3306 16.077 12.4638 16.077ZM12.4615 14.7C11.7115 14.7 11.074 14.4375 10.549 13.9125C10.024 13.3875 9.7615 12.75 9.7615 12C9.7615 11.25 10.024 10.6125 10.549 10.0875C11.074 9.5625 11.7115 9.3 12.4615 9.3C13.2115 9.3 13.849 9.5625 14.374 10.0875C14.899 10.6125 15.1615 11.25 15.1615 12C15.1615 12.75 14.899 13.3875 14.374 13.9125C13.849 14.4375 13.2115 14.7 12.4615 14.7ZM12.4628 19C10.1632 19 8.068 18.3657 6.177 17.097C4.286 15.8285 2.89367 14.1295 2 12C2.89367 9.8705 4.2855 8.1715 6.1755 6.903C8.06567 5.63433 10.1606 5 12.4603 5C14.7598 5 16.855 5.63433 18.746 6.903C20.637 8.1715 22.0293 9.8705 22.923 12C22.0293 14.1295 20.6375 15.8285 18.7475 17.097C16.8573 18.3657 14.7624 19 12.4628 19ZM12.4615 17.5C14.3448 17.5 16.074 17.0042 17.649 16.0125C19.224 15.0208 20.4282 13.6833 21.2615 12C20.4282 10.3167 19.224 8.97917 17.649 7.9875C16.074 6.99583 14.3448 6.5 12.4615 6.5C10.5782 6.5 8.849 6.99583 7.274 7.9875C5.699 8.97917 4.49483 10.3167 3.6615 12C4.49483 13.6833 5.699 15.0208 7.274 16.0125C8.849 17.0042 10.5782 17.5 12.4615 17.5Z" fill="black" fill-opacity="0.9"/>
</svg>
