<svg width="24" height="24" viewBox="0 0 24 24" fill="none" xmlns="http://www.w3.org/2000/svg">
<path d="M7.30775 20.3845C6.80908 20.3845 6.38308 20.2079 6.02975 19.8547C5.67658 19.5014 5.5 19.0754 5.5 18.5768V5.8845H4.5V4.3845H9V3.5H15V4.3845H19.5V5.8845H18.5V18.5768C18.5 19.0819 18.325 19.5095 17.975 19.8595C17.625 20.2095 17.1974 20.3845 16.6923 20.3845H7.30775ZM17 5.8845H7V18.5768C7 18.6666 7.02883 18.7403 7.0865 18.798C7.14417 18.8557 7.21792 18.8845 7.30775 18.8845H16.6923C16.7692 18.8845 16.8398 18.8524 16.9038 18.7883C16.9679 18.7243 17 18.6538 17 18.5768V5.8845ZM9.404 16.8845H10.9037V7.8845H9.404V16.8845ZM13.0962 16.8845H14.596V7.8845H13.0962V16.8845Z" fill="black" fill-opacity="0.9"/>
</svg>
