<svg width="24" height="24" viewBox="0 0 24 24" fill="none" xmlns="http://www.w3.org/2000/svg">
<path d="M11.25 17.1848V7.35375C10.5475 6.89608 9.78725 6.55283 8.96925 6.324C8.15125 6.09517 7.32817 5.98075 6.5 5.98075C5.9 5.98075 5.33942 6.02783 4.81825 6.122C4.29708 6.21633 3.7615 6.3705 3.2115 6.5845C3.13467 6.61017 3.08017 6.64708 3.048 6.69525C3.016 6.74325 3 6.79608 3 6.85375V16.3115C3 16.4013 3.03208 16.4671 3.09625 16.5087C3.16025 16.5504 3.23075 16.5552 3.30775 16.523C3.78208 16.3615 4.28267 16.2372 4.8095 16.15C5.3365 16.0628 5.9 16.0193 6.5 16.0193C7.32817 16.0193 8.13392 16.1132 8.91725 16.301C9.70058 16.4888 10.4782 16.7834 11.25 17.1848ZM12 19.3845C11.1937 18.7897 10.3238 18.3301 9.3905 18.0057C8.45717 17.6814 7.49367 17.5193 6.5 17.5193C5.88983 17.5193 5.2905 17.5868 4.702 17.722C4.1135 17.8573 3.54617 18.0564 3 18.3193C2.64367 18.4833 2.30458 18.4573 1.98275 18.2413C1.66092 18.0253 1.5 17.7192 1.5 17.323V6.4655C1.5 6.25 1.5555 6.04775 1.6665 5.85875C1.77733 5.66958 1.93725 5.53333 2.14625 5.45C2.82308 5.1205 3.5285 4.87658 4.2625 4.71825C4.9965 4.55992 5.74233 4.48075 6.5 4.48075C7.66283 4.48075 8.67275 4.62083 9.52975 4.901C10.3868 5.18117 11.2864 5.60325 12.2288 6.16725C12.3993 6.26092 12.5288 6.37758 12.6173 6.51725C12.7058 6.65708 12.75 6.82892 12.75 7.03275V17.1848C13.5218 16.7834 14.2994 16.4888 15.0828 16.301C15.8661 16.1132 16.6718 16.0193 17.5 16.0193C18.1 16.0193 18.6635 16.0628 19.1905 16.15C19.7173 16.2372 20.2179 16.3615 20.6923 16.523C20.7693 16.5552 20.8398 16.5504 20.9038 16.5087C20.9679 16.4671 21 16.4013 21 16.3115V5.08475C21.1538 5.13592 21.3051 5.19233 21.4538 5.254C21.6026 5.3155 21.7488 5.38725 21.8923 5.46925C22.0947 5.55892 22.2467 5.69517 22.348 5.878C22.4493 6.06067 22.5 6.2565 22.5 6.4655V17.323C22.5 17.7192 22.3327 18.0221 21.998 18.2318C21.6633 18.4413 21.3114 18.464 20.9423 18.3C20.4026 18.0435 19.8433 17.8492 19.2645 17.7172C18.6857 17.5852 18.0975 17.5193 17.5 17.5193C16.5063 17.5193 15.5428 17.6814 14.6095 18.0057C13.6762 18.3301 12.8063 18.7897 12 19.3845ZM15.3462 14V3.5L18.4038 2.5V13L15.3462 14Z" fill="black" fill-opacity="0.9"/>
</svg>
