<svg width="24" height="24" viewBox="0 0 24 24" fill="none" xmlns="http://www.w3.org/2000/svg">
<path d="M16.2413 12.4551C16.2342 11.1442 16.8272 10.1547 18.0274 9.42599C17.3558 8.4651 16.3413 7.93643 15.0018 7.83284C13.7337 7.73282 12.3478 8.57226 11.8405 8.57226C11.3047 8.57226 10.0759 7.86856 9.11146 7.86856C7.11824 7.90071 5 9.45814 5 12.6266C5 13.5625 5.17146 14.5293 5.51438 15.5271C5.97161 16.838 7.62191 20.0529 9.34365 19.9993C10.2438 19.9779 10.8796 19.3599 12.0513 19.3599C13.1872 19.3599 13.7766 19.9993 14.7803 19.9993C16.5164 19.9743 18.0095 17.0524 18.4453 15.7379C16.1163 14.6412 16.2413 12.523 16.2413 12.4551ZM14.2195 6.58976C15.1947 5.4324 15.1054 4.37864 15.0768 4C14.216 4.05001 13.2194 4.58582 12.6514 5.24666C12.0263 5.95393 11.6584 6.82909 11.7369 7.81498C12.6693 7.88642 13.5194 7.40776 14.2195 6.58976Z" fill="black" fill-opacity="0.9"/>
</svg>
