<svg width="24" height="24" viewBox="0 0 24 24" fill="none" xmlns="http://www.w3.org/2000/svg">
<path d="M18.3055 21C17.557 21 16.9215 20.7382 16.399 20.2148C15.8767 19.6912 15.6155 19.0556 15.6155 18.3078C15.6155 18.2078 15.6501 17.9648 15.7193 17.5788L8.60775 13.3923C8.36675 13.6423 8.08042 13.8381 7.74875 13.9798C7.41708 14.1214 7.06175 14.1923 6.68275 14.1923C5.93758 14.1923 5.30417 13.9294 4.7825 13.4038C4.26083 12.8781 4 12.2435 4 11.5C4 10.7565 4.26083 10.1219 4.7825 9.59625C5.30417 9.07058 5.93758 8.80775 6.68275 8.80775C7.06175 8.80775 7.41708 8.87858 7.74875 9.02025C8.08042 9.16192 8.36675 9.35775 8.60775 9.60775L15.7193 5.43075C15.6796 5.30775 15.6523 5.18725 15.6375 5.06925C15.6228 4.95125 15.6155 4.82558 15.6155 4.69225C15.6155 3.94442 15.8774 3.30875 16.4012 2.78525C16.9253 2.26175 17.5615 2 18.31 2C19.0585 2 19.6939 2.262 20.2163 2.786C20.7388 3.30983 21 3.946 21 4.6945C21 5.443 20.7383 6.0785 20.2148 6.601C19.6913 7.12333 19.0556 7.3845 18.3077 7.3845C17.9269 7.3845 17.5728 7.31208 17.2452 7.16725C16.9176 7.02242 16.6333 6.825 16.3923 6.575L9.28075 10.7615C9.32042 10.8847 9.34767 11.0052 9.3625 11.123C9.37717 11.241 9.3845 11.3667 9.3845 11.5C9.3845 11.6333 9.37717 11.759 9.3625 11.877C9.34767 11.9948 9.32042 12.1153 9.28075 12.2385L16.3923 16.425C16.6333 16.175 16.9176 15.9776 17.2452 15.8328C17.5728 15.6879 17.9269 15.6155 18.3077 15.6155C19.0556 15.6155 19.6913 15.8774 20.2148 16.4012C20.7383 16.9253 21 17.5615 21 18.31C21 19.0585 20.738 19.6939 20.214 20.2163C19.6902 20.7388 19.054 21 18.3055 21ZM18.3077 19.5C18.6456 19.5 18.9288 19.3857 19.1572 19.1572C19.3857 18.9287 19.5 18.6456 19.5 18.3078C19.5 17.9699 19.3857 17.6868 19.1572 17.4583C18.9288 17.2296 18.6456 17.1152 18.3077 17.1152C17.9699 17.1152 17.6868 17.2296 17.4583 17.4583C17.2296 17.6868 17.1152 17.9699 17.1152 18.3078C17.1152 18.6456 17.2296 18.9287 17.4583 19.1572C17.6868 19.3857 17.9699 19.5 18.3077 19.5ZM6.68275 12.6923C7.02325 12.6923 7.30867 12.578 7.539 12.3495C7.7695 12.121 7.88475 11.8378 7.88475 11.5C7.88475 11.1622 7.7695 10.879 7.539 10.6505C7.30867 10.422 7.02325 10.3077 6.68275 10.3077C6.34758 10.3077 6.06667 10.422 5.84 10.6505C5.61333 10.879 5.5 11.1622 5.5 11.5C5.5 11.8378 5.61333 12.121 5.84 12.3495C6.06667 12.578 6.34758 12.6923 6.68275 12.6923ZM18.3077 5.88475C18.6456 5.88475 18.9288 5.77042 19.1572 5.54175C19.3857 5.31325 19.5 5.03008 19.5 4.69225C19.5 4.35442 19.3857 4.07125 19.1572 3.84275C18.9288 3.61425 18.6456 3.5 18.3077 3.5C17.9699 3.5 17.6868 3.61425 17.4583 3.84275C17.2296 4.07125 17.1152 4.35442 17.1152 4.69225C17.1152 5.03008 17.2296 5.31325 17.4583 5.54175C17.6868 5.77042 17.9699 5.88475 18.3077 5.88475Z" fill="black" fill-opacity="0.9"/>
</svg>
